<?xml version="1.0" encoding="utf-8"?>
<!-- Generator: Adobe Illustrator 21.1.0, SVG Export Plug-In . SVG Version: 6.00 Build 0)  -->
<svg version="1.1" id="Layer_1" xmlns="http://www.w3.org/2000/svg" xmlns:xlink="http://www.w3.org/1999/xlink" x="0px" y="0px"
	 viewBox="0 0 619.1 48.7" style="enable-background:new 0 0 619.1 48.7;" xml:space="preserve">
<style type="text/css">
	.st0{fill:#442F85;}
	.st1{fill:#372472;}
</style>
<title>brush_stroke_3</title>
<path class="st0" d="M183.3,48.5c0,0.1-0.4,0.1-0.6,0.1C182.7,48.5,183,48.5,183.3,48.5z"/>
<path class="st0" d="M181.5,48.5c0.1,0.1-0.2,0.2-0.3,0.1S181.5,48.4,181.5,48.5z"/>
<path class="st0" d="M154.1,48c0,0.1-0.4,0.1-0.6,0.1C153.5,48,153.8,48,154.1,48z"/>
<path class="st0" d="M152.6,48c0.1,0.1-0.2,0.2-0.3,0.1S152.5,48,152.6,48z"/>
<path class="st0" d="M146.9,48c0,0.3-1,0-1.4,0.1C145.9,47.9,146.4,47.8,146.9,48z"/>
<path class="st0" d="M130.3,47.5c0.4-0.3,1.1,0.2,2,0C132,48,130.8,47.6,130.3,47.5z"/>
<path class="st0" d="M126.3,47.3c0.2,0.1-0.2,0.2-0.3,0.1S126.2,47.2,126.3,47.3z"/>
<path class="st0" d="M124.3,47.2c-0.1,0.1,0.8,0.1,0.9,0.1S124.1,47.6,124.3,47.2z"/>
<path class="st1" d="M115,46.6c-7.3,0.2-12.6,0-19.5,0.6h-2.3c-0.6,0.2-1.9,0.1-2.6,0.2h-2.9c-0.3,0.1-0.6,0.1-0.9,0.1h-2.9
	c-0.3,0.1-0.6,0.1-0.9,0.1h-2c-0.7,0.2-2.3,0.1-2.9,0.4c0.3,0.1,0.9,0.6,1.4,0.2c0.8,0,0.9-0.3,1.7-0.2c4.7,0,9.1,0,13.2-0.2
	c0.3,0,0.2,0.2,0.3,0.2h0.6c10-0.1,17.6-0.5,28.1-0.5c1-0.2,2.1-0.2,3.2,0c3.2,0,7-0.1,9.7,0.1c2.3-0.2,5,0.2,8,0.1
	c0.3-0.1,0.6-0.1,0.9-0.1h2.3c0-0.1-0.5-0.1-0.9-0.1h-5.2c-0.3-0.1-0.6-0.1-0.9-0.1h-3.4c-0.3-0.1-0.6-0.1-0.9-0.1h-1.7
	c-0.5,0-1.1,0.1-1.1-0.1c5.4,0,10.6,0.2,16.3,0.1c-0.1,0.3,1.3-0.1,0.9,0.4c0.6,0.1,0.4-0.2,0.9-0.2c1.9,0.1,3.8,0.2,5.7,0.1
	c0.3,0,0.5,0,0.6,0.1c0.9-0.1,1.7-0.1,2.6,0c0.3-0.2,1.2-0.1,1.7-0.1c1.1,0,2.1,0.1,3.1,0.1c0.3,0,0.2-0.1,0.3-0.1
	c0.4,0.1,0.8,0.1,1.1,0.1c1.4-0.1,1.4,0,2.9,0c0.4-0.2,1.9,0,2.3-0.2c0.9,0.2,1.9,0.2,2.9,0.1c0.3-0.2,0.4,0,1.4,0
	c0.7-0.1,1.3-0.1,2,0c0.5-0.1,0.9-0.2,1.4-0.1c0.9-0.1,0.8,0.2,1.7,0.1c0.4-0.1,0.8-0.1,1.1-0.1h4.6c1.1-0.2,1.8,0.1,2.6-0.2
	c-0.4,0-1.1,0.1-1.1-0.1h1.4c-0.1,0.2,0.2,0.2,0.6,0.2c1.7,0.1,2.3,0,4,0.1c0.5,0,0.6-0.1,1.1-0.1c0,0,0.1,0.1,0.3,0.1
	c0.4,0,0.8,0,0.9,0.1c3.3-0.3,7.9,0,11.4-0.1c0.2,0,0.4,0,0.6,0v-0.1c0.7,0.1,1.3,0.1,2,0h3.7c2.1-0.3,5.9,0.1,8-0.2
	c3.3,0.1,6-0.1,8,0c0.8-0.2,2.6,0,3.4-0.2c2.8,0.1,6.2-0.1,8.6,0.1c0.4-0.4,1.2,0,1.7-0.2c0.3,0.1,0.3,0.3,0.9,0.2
	c-0.1-0.2,0.2-0.2,0.6-0.2c0.8,0,1.5,0,2.3,0.1c-0.1,0,0.1-0.1,0.3-0.1c0.7,0,1.9-0.1,2.9,0c0.5,0,0.6,0.1,1.1,0.1
	c0.9-0.1,1.9-0.1,2.9-0.1c0.4,0.1,0.8,0.1,1.1,0c1.4-0.1,5.2-0.1,7.2,0c0.5,0,0.6,0.1,1.1,0.1c0.3-0.1,0.6-0.1,0.9-0.1
	c0-0.1,0.5-0.2,0.6,0h-0.6c0.5,0.3,2.2,0,3.1,0.1c0.8,0.1,2.3-0.2,2.6,0.1c0.5,0.5-1.2,0-1.1,0.4c2.3,0,4.3-0.2,6.9-0.1
	c1.8-0.3,5.3,0.1,7.2-0.2h4.6c1.8-0.3,5.3,0.1,7.2-0.2c1.7,0.1,3.4,0,5.2-0.1v-0.1c-1.2,0.1-4.3,0.3-5.2-0.1h3.1
	c1.6-0.3,4.9,0.1,6.6-0.2c3.5,0,6.1-0.3,9.7-0.2c0.3-0.1,0.6-0.1,0.9-0.1c3.6,0,5.7-0.2,9.7-0.2c0.3,0.1,0.6,0.1,0.9,0.1h6.3
	c0-0.3-1-0.1-1.4-0.1h-3.1c-0.5,0-1.1,0.1-1.1-0.1c4.2,0,9.4-0.5,14.3-0.1h1.7c0.4,0.1,1.5-0.1,1.4,0.1c-0.6,0.1-1.9-0.2-2,0.1
	c2.4,0.1,4.8,0.1,7.2-0.1c1.1,0.1,2.1,0,3.1-0.1c0,0.3,1,0.1,1.4,0.1s0.8,0,1.1-0.1c0.1,0.3,1.4,0,2,0.1h6.9
	c0.3,0.1,0.6,0.1,0.9,0.1c0.1-0.2,0.3,0,0.3,0.1c0.9,0.2,0.2-0.4,1.1-0.2c3.9-0.1,8.4,0.1,11.7-0.1c0.4,0.1,0.8,0.1,1.1,0.1
	c8.2-0.4,17.6-0.2,25.2-0.5c0.7,0,1.3,0,2,0.1c-0.1,0,0.2-0.1,0.3-0.1c2.6-0.3,7,0.2,10.3,0h1.7c0.5,0,1.1-0.1,1.1,0.1H414
	c-1.2,0.2-2.5,0.2-3.7,0.1c-0.4,0.2-1.7,0-1.7,0.4c11.9-0.2,23.1-0.6,35.8-0.5c0.3,0,0.2,0.2,0.3,0.2c0.9,0.1,0.6-0.4,1.7-0.2
	c2.8,0.1,6.2-0.1,8.6,0.1c0.3-0.1,0.6-0.1,0.9-0.1c0.1,0.3,1.4,0,2,0.1c0.7-0.1,1.3,0,2,0.1c0.1-0.3,1.4,0,2-0.1
	c2.2,0.1,5-0.1,7.4,0.1c1-0.1,0.7,0,1.7-0.1c0.9,0,1.7,0,2.6,0h3.2c2.1-0.2,3.2-0.2,5.7-0.2c0.8-0.2,1.5-0.2,2.3,0
	c-0.5,0-1.1-0.1-1.1,0.1c1.2,0.1,2.3,0,3.4-0.2c-0.6-0.1-1.9,0.2-2-0.1c0.4,0,0.8,0,0.9-0.1c-0.8,0-1.5,0-2.3,0.1
	c-1.8-0.2-4,0.3-6.6,0.1c-0.3,0.1-0.6,0.1-0.9,0.1c-2.4,0-3.8,0.1-5.7,0c-0.8-0.1-0.7,0.2-1.4,0.1c-2.1-0.2-4.2-0.2-6.3,0
	c-0.2-0.3-1.6,0-2.3-0.1h-5.1c-0.6-0.1-1.9,0.2-2-0.1c6.5,0.2,11.3-0.5,16.6-0.1c2.9-0.3,7.7,0.1,10.6-0.2h5.7c0.1,0.2,0.4,0,0.9,0
	c-0.9,0.4,1.1,0.2,1.1,0c-0.9,0.1-1-0.2-2-0.1c-0.6-0.1-1.9,0.2-2-0.1c0.8-0.2,1.5-0.2,2.3,0c1.1-0.4,2.2-0.1,3.7-0.2
	c0.6,0.2,1.6,0.1,2.3,0.2c0.3-0.2,1.5-0.1,2-0.2c1,0,1.9,0,2.9-0.1c0.7,0,0.6,0.2,1.4,0.1c0.3,0,0.2-0.2,0.6-0.2
	c0.6,0,0.4,0.3,1.1,0.2c0.3-0.4,0.5-0.1,1.4-0.1c0.9-0.1,1.9-0.2,2.9-0.2c0.5,0,1,0.1,1.4,0.2c0-0.3,2,0.1,2-0.2
	c-0.4,0-0.8,0-0.9-0.1c0.5,0,1.4-0.1,1.1,0.2c3.3-0.2,7.9,0.1,11.7-0.1c-0.6-0.5-1.9,0-2.9-0.2c-0.3,0.4-0.6,0-1.1,0.2
	c-1.7-0.3-4.5,0-6.6-0.1c-0.2-0.1-0.8-0.1-0.9-0.2c-0.6,0.1-1.1,0.1-1.7,0.1c-0.7-0.2-1.4,0.3-1.4,0c0.5-0.4,2.8-0.1,3.7-0.4
	c0,0.1,0.5,0.1,0.9,0.1c0,0.1,0.1,0.2,0.3,0.2c0.3-0.2,1.5-0.1,2-0.2c0.8,0,0.6,0.2,1.1,0c0.1-0.3,0.5,0.2,1.1,0s0.9-0.4,1.7-0.4
	h3.7c0.3-0.1,0.6-0.1,0.9-0.1c1.3,0,2.6,0,4,0c0.1,0,0.5,0,0.6,0s0-0.1,0-0.1c0.2,0,0.4,0,0.6,0.1c0.7,0,0.9-0.1,1.4-0.1
	c1.5,0,3.1,0,4.6,0c1.3,0,2.6-0.1,3.7,0c0.4-0.1,0.8-0.1,1.2-0.1c0.5,0,1-0.1,0.6-0.1h-1.2c-0.6-0.1-1.9,0.2-2-0.1h3.2
	c0.9-0.1,2.5,0.2,2.9-0.1c-0.4-0.1-1.5,0.1-1.4-0.1c1.4-0.1,2.9-0.2,4.3-0.1c0.3-0.1,0.6-0.1,0.9-0.1c0.6,0.1,1.2,0,1.7-0.1
	c0.1,0.2,0.7,0.1,1.2,0.1s1.1,0.1,1.1-0.1c-1.3,0.1-1-0.4-1.4-0.6c0.5,0,1,0,1.4-0.1h5.2c0.6,0.1,1.2,0.1,1.7,0
	c-0.2,0.3,1.3-0.1,1.1,0.2s-1.1-0.3-1.1,0.1c0.9,0.3,3.1,0,4,0.2c0-0.1,0.5-0.1,0.9-0.1h2.6c0.6-0.1,2,0.2,1.7-0.2
	c-1.1,0-2.1,0-3.2-0.1h-1.7c-0.5,0-1.1,0.1-1.1-0.1c1.6,0,3.3-0.1,4.9-0.4c0.1,0.3,1.4,0,2,0.1h2c1.8-0.4,3.6-0.5,5.4-0.4
	c0-0.1,0.5-0.1,0.9-0.1c0.3-0.1,0.6-0.1,0.9-0.1c0.8-0.1,0.7,0.2,1.4,0.1c1.2-0.2,2.5-0.2,3.7-0.1c-0.1-0.3,1.3,0.1,0.9-0.4
	c-1.5,0.2-4,0.1-6,0.1c-0.7-0.2-0.9,0-1.7-0.1s-2.3,0.2-2.6-0.1c3.2-0.1,5.7-0.2,8.9-0.2c1.3,0.2,2.3-0.2,3.2,0.2
	c0-0.3,0.4-0.5,1.2-0.5h1.1c0.3,0,0.2-0.1,0-0.1c-0.5-0.1-1.7,0.1-1.7-0.1c0.4-0.1,1.5,0.1,1.4-0.1c-0.9,0.1-0.9-0.2-1.4-0.2
	c-0.2,0.3-1.6,0-2.3,0.1c-0.7-0.2-1.2,0.2-1.7-0.1c0.5,0,0.6-0.1,0.3-0.2c0.3,0,0.6,0,0.9-0.1c1.3,0,1.5,0.4,2.9,0.4
	c-0.1-0.1,0.8-0.2,0.6-0.2s-2.5,0.1-1.4-0.2c0.3,0.1,0.6,0.2,0.9,0.2c-0.2-0.1-0.3-0.2,0-0.2c0.6,0.1,1.1,0.1,1.7,0.1h0.9
	c0.3,0,0.2-0.1,0-0.1c-0.5-0.1-1.7,0.2-1.7-0.1c2.4-0.1,4.7-0.2,8-0.1c0.3-0.2,1.3-0.2,1.7-0.4c-0.9,0-1.7,0-2.6-0.2
	c-0.6,0.1-1.1,0.2-1.7,0.1c-0.4-0.1-1.5,0.1-1.4-0.1c1.1-0.2,2.3-0.3,3.4-0.2c0.2-0.3-1-0.5-0.3-0.6c1.8-0.3,3.6-0.3,5.4-0.1
	c1.1,0.1,1.2-0.2,2.3-0.1c0.1,0.2,0.6,0.1,0.6,0c-0.2-0.2-1.4,0-1.4-0.2c4.5-0.1,9.4-0.5,14-0.2c0-0.4-0.9-0.4-1.7-0.4h-2.6
	c-0.7,0-0.6-0.2-1.4-0.1c-2.5,0.4-6-0.3-8.6,0.1h-4.3c-0.7,0-0.6,0.2-1.4,0.1c-0.5,0-1.1,0.1-1.1-0.1c0.5-0.1,1.7,0.2,1.7-0.1
	c-0.4,0-0.8,0-0.9-0.1c-0.5,0-1.7,0.3-2,0c1.1-0.1,2.1-0.2,3.2-0.4c0.5,0,0.6,0.1,1.1,0.1c1-0.2,2.1-0.2,3.2-0.1
	c0.5,0,0.6-0.2,1.1-0.1s1.5,0.1,1.4-0.1c-0.4,0-0.8,0-0.9-0.1h1.7c0.4-0.3,2.8,0.2,2.9-0.4c-1.1-0.1-2.1-0.1-3.2,0.1
	c-0.4-0.1-1.5,0.1-1.4-0.1c-0.6,0.1-1.2,0.1-1.7,0c-0.1,0.3-1.4,0-2,0.1c-0.8,0-1.7,0.1-1.7-0.2c1.8,0.1,3-0.3,4.3,0
	c2.2-0.3,4.4-0.4,6.6-0.4c0.6-0.2,2.2-0.1,2.9-0.2h1.1c0.3,0,0.2-0.1,0-0.1h-1.7c-0.5,0-1.7,0.3-2,0c2.1-0.2,5,0,6.3-0.6
	c-0.8-0.1-1.5,0-2.3,0.1c-0.7-0.1-2.1,0.1-2.3-0.1c0.5,0,1.1,0.1,1.2-0.1c-0.5,0-1.1,0.1-1.2-0.1c0.4,0,0.8,0,0.9-0.1
	c-1.1,0-2.3,0-3.4,0.1h-1.7c-0.3,0-1.8,0-0.9,0.1c0.4,0.1,1.5-0.1,1.4,0.1c-1-0.1-2.2,0.4-2.9,0c0.4,0,0.8,0,0.9-0.1
	c-0.7,0.2-1.1-0.3-1.2,0c-0.4,0.1-0.8,0.1-1.2,0.1c-0.5,0-1,0-1.4-0.1c0,0.3-1.2,0-1.7,0.1c-0.7,0-0.9,0.2-1.2-0.1
	c1.5-0.1,3.1-0.2,4.6-0.1c1.1-0.2,2.1-0.2,3.2-0.1c0.6,0,0.4-0.3,1.2-0.2h2c0.6-0.2,0.6,0,1.2,0.1c-0.1-0.4,0.9-0.2,1.4-0.4h2.9
	c0.6-0.2,1.9-0.1,2.6-0.2h2c0.4-0.1,1.5,0.1,1.4-0.1c-0.5-0.3-2.7,0.1-3.2-0.2c-0.6,0.3-0.8-0.1-1.7,0c-0.4,0-0.8,0-1.1,0.1
	c-0.4-0.1-0.8-0.2-1.2-0.1c-0.2,0.1-0.5,0.1-0.6,0c-0.6-0.1-1.9,0.1-2-0.1c0.9,0,2.5,0.2,2.6-0.2c-1.5,0.2-4,0.1-6,0.1
	c-0.6,0.1-1.1,0.1-1.7,0.1c-0.5,0-1-0.5-0.3-0.5c0.5,0,0.2,0.4,1.2,0.2c2.2-0.3,4.4-0.4,6.6-0.4c3.7-0.4,8.5-0.4,12.3-0.7
	c-0.1-0.5-1.9-0.3-2.9-0.5h-1.1c-0.7,0-0.6,0.2-1.4,0.1c-0.5,0-1,0.1-0.6,0.1c0.8,0.1,2.7-0.2,2.6,0.2c-1.9-0.1-4,0.1-5.2,0
	c-0.2,0.1-1.8,0.2-2,0c0.5,0,1,0,1.4-0.1c0.7-0.1,2.1,0.1,2.3-0.1c-0.8,0-1.2-0.2-2-0.2h-6c-0.3,0.1-0.6,0.1-0.9,0.1
	c-1.3-0.1-2.5,0.4-3.4,0c0.9-0.1,1.7-0.1,2.6-0.1c1.2-0.1,2.4-0.4,3.4-0.5h1.7c0.4-0.1,1.5,0.1,1.4-0.1c-0.5,0-1.1,0.1-1.1-0.1
	c-0.9,0.1-1.9,0.2-2.9,0.1c-0.9,0-2.2,0.1-2.3-0.2c0.9-0.2,1.9-0.4,2.9-0.4c0.6,0,0.4-0.3,1.1-0.2c0.8,0,1.5,0,2.3-0.1
	c1,0,1.9,0,2.9-0.1c0.2,0.1,1.4,0.3,1.1-0.1c0.9-0.4-0.7-0.1-0.8-0.4c0.8,0,1.7,0.1,1.7-0.2c-0.7-0.2-0.7-0.6-1.1-1h-4.6
	c-0.7-0.1-1.4,0.4-1.7,0c0.8-0.4,3.2-0.1,4-0.5c-1.8-0.4-4.4-0.1-6.6,0c-0.2-0.1-0.7-0.1-0.6-0.4c-1.2,0.2-0.9-0.3-1.7-0.2h-3.4
	c-0.5,0-0.2-0.5-1.2-0.4c-0.8,0-1.5,0-2.3,0.1c-0.8-0.1-2.3,0.1-2.6-0.1c2-0.2,4-0.4,6-0.4c0.3,0,0.5-0.1,0.9-0.1
	c1,0.1,1.9,0,2.9-0.1h-8.6c-1.5-0.1-2.2,0.3-2.6-0.2c1-0.1,1.3-0.2,2-0.2s2.1,0.1,2.3-0.1c-0.6,0.1-0.5-0.2-0.6-0.4
	c1.9-0.2,3.8-0.3,5.7-0.2c0.6-0.2,2.2-0.1,2.9-0.2h1.2c0.3,0,0.2-0.1,0-0.1c-0.8,0.1-1.6,0-2.3-0.2c0.3,0,0.5,0,0.6-0.1
	c-2.2,0.1-4.4,0.2-6.9,0.1c-1.3-0.1-3.4,0.2-3.4-0.4c0.9,0,1.7,0,2.6-0.1c0.3-0.1,0.3-0.3,0.9-0.2c2.9,0.1,4.9-0.2,7.7-0.1
	c0.6-0.2,1.3-0.3,2-0.2c0.1-0.1,0.6-0.1,0.6-0.2c0.3,0,0.2-0.2,0.6-0.2c0.8,0.1,1.5,0,2.3-0.2c-0.6,0-1.2,0-1.7,0.1
	c-0.8,0.1-1.5,0-2.3-0.1c0.5,0,0.5-0.1,0.6-0.2c-1.5,0-2.6,0.2-4,0.2c-0.6,0-1.2-0.1-1.7-0.2l1.7-0.4c0.5,0,0.7-0.1,0.9-0.2
	c0.4,0,0.8,0,0.9-0.1c-2.3,0-4,0.3-6.3,0.4c-0.3,0.1-0.6,0.2-0.9,0.2c-1.4,0-2,0.3-3.4,0.2c-0.3-0.1-1,0-0.9-0.4
	c-0.4-0.1-1.5,0.1-1.4-0.1c0.2-0.1,0.8-0.1,0.9-0.2c-0.5-0.2-0.7,0-1.4,0c-0.5,0-0.2-0.4-0.6-0.5c0.7,0.1,1,0.2,1.4-0.1
	c-0.3,0-0.7-0.2-0.3-0.2c0.8-0.1,1.5-0.2,2.3-0.4c0.6-0.1,1.9,0.1,2-0.1c-0.7-0.2-1.4,0.1-2.3-0.1c0,0.2-1.8,0.2-1.7,0h1.7
	c0.4-0.2,1.8-0.1,2.3-0.2h1.7c0.5,0,0.2-0.4,0.9-0.4c0.5,0,0.5-0.1,0.9-0.1c3.3-0.1,5.7-0.6,9.5-0.5c0.3-0.1,0.6-0.1,0.9-0.1
	c2.5,0,4.7-0.1,6.9-0.2c1.5-0.1,2.1,0.2,2.9-0.1c-4.2-0.2-7.5,0.5-11.2,0.1c-0.4,0.1-0.8,0.1-1.1,0.1h-2c-0.4-0.1-1.5,0.1-1.4-0.1
	c0.5,0,1.1,0.1,1.1-0.1c-1,0-1.9,0-2.9,0h-1.7c-0.4-0.1-1.5,0.1-1.4-0.1c0.5,0,0.7-0.1,0.9-0.2c-0.5,0-1.1,0.1-1.2-0.1
	c0.5,0,0.2-0.4,1.2-0.2h1.4c0.6-0.1,1.1-0.2,1.7-0.1c0.1-0.3,1.5-0.1,1.7-0.4c-0.6-0.2-1.3-0.3-2-0.2c-0.3-0.3-0.7-0.4-1.2-0.4
	c-1.8,0.1-3.5-0.2-4.6,0c-0.2-0.2-1.6,0-1.7-0.2c-0.2,0.1-1.4,0.3-1.4,0c0.9,0.1,0.4-0.4,1.1-0.4c4.1-0.2,8.3-0.3,12.6-0.5
	c-0.1-0.3,1.1-0.1,1.1-0.4c-2.7-0.1-4.5,0.2-7.2,0.1c-1.7,0.3-5.1-0.1-6.9,0.2c-0.7-0.2-0.9,0-1.7-0.1c-0.5,0.1-1,0.2-1.4,0.1
	c-0.4-0.1-1.5,0.1-1.4-0.1c1.4,0,2.9-0.1,4.3-0.4c2.6,0.1,4.3-0.2,6.9-0.1c0-0.1,0.5-0.1,0.9-0.1s0.2-0.2,0.6-0.2h2
	c0.3-0.1,0.6-0.1,0.9-0.1h1.4c0.3-0.3,2.5,0.2,2.3-0.4c-0.8-0.2-2.5,0.1-4,0c-0.3,0.1-0.6,0.1-0.9,0.1h-4c-0.5,0-0.5-0.3-1.4-0.2
	c-1.6,0.1-3.2,0.2-4.9,0.1c-0.5-0.1-0.9-0.2-1.4-0.2c-1.5,0.1-4.8,0.1-7.4,0.1v-0.4c-0.5,0-1.1,0.1-1.2-0.1c-2.3,0-4.1,0.3-6.6,0.2
	c-0.6-0.2-1.4-0.2-2-0.4c0.3,0.4-1.9,0.3-2,0.1c0.4-0.1,0-0.1,0-0.2c0.4,0,0.8,0,0.9-0.1c-0.5-0.1-1.4,0-1.7-0.2
	c0.4,0,0.3-0.2,0-0.2c0,0.1-0.4,0.1,0,0c0.1-0.2-2.2-0.1-2.9-0.2c0,0.1-0.1,0.3-0.6,0.2c-0.9,0-1.7,0-2.6-0.1c-0.7,0.1-0.9,0-2,0.1
	c-0.8-0.1-2.3,0.1-2.6-0.1c2.6,0,5.3-0.4,7.7-0.1c-0.3-0.4,1.1-0.2,1.7-0.2c-0.1-0.2,0.2-0.2,0.6-0.2c0.4,0,0.2-0.2,0.6-0.2
	c-0.6-0.3-2.4,0-3.4-0.1c-0.3,0.1-0.6,0.1-0.8,0.1c-0.8-0.1-2.3,0.1-2.6-0.1c0-0.1,0.4-0.1,0.6-0.1c0.5-0.1,0.9-0.2,1.4-0.2h2
	c0.4-0.1,0.8-0.1,1.2-0.1c0.5,0,1-0.1,0.6-0.1S571,11,571,10.8c1,0,1.9-0.1,2.9-0.2c1,0,0.4-0.2-0.3-0.1c-0.5,0-0.6,0.2-1.1,0.1
	c-1-0.2-2.1-0.3-3.2-0.1c-0.3,0-0.2-0.2-0.3-0.2c-1.2,0.3-2.1-0.1-3.7,0c-0.5,0-0.6,0.2-1.2,0.1h-9.2c-0.6,0.2-0.4,0-1.2,0
	c-0.3,0.2-0.7,0.3-1.1,0.2c-2.7,0-6,0-8.3,0.1c-1,0.1-1.9,0.1-2.9,0c-0.3-0.1-0.6-0.1-0.9-0.1c-2.6-0.1-5.6-0.1-8,0
	c-0.7,0.1-1.3,0.1-2,0.1c0,0-0.1-0.2-0.3-0.1c-0.6,0.1-1.1,0.2-1.7,0.1c-1,0-2.4,0.1-3.2,0c-0.3,0-0.2-0.2-0.6-0.2v0.2
	c-0.5,0.2-2.8-0.2-3.4,0c-0.4,0-0.5-0.2-0.9-0.2c-0.1,0.2-0.4,0.2-0.9,0.2c-0.1-0.3-1.4-0.1-2-0.1h-2c-1.3-0.1-3.2,0.2-3.7-0.2
	c0.7,0,3.3,0.1,2.6-0.1H509c-0.5,0,0.2,0.2-0.3,0.2c-1.1-0.2-3.5,0.2-4.9-0.1c-0.5,0.3-2.3,0-2.9,0.2c-0.2-0.3-0.4-0.1-1.1-0.1
	s-1.5-2.4-2.2-2.4c0,0.3-1,0.1-1.4,0.1c-1.5-0.2-4.3,0.2-6-0.1c-0.4,0.2-0.8,0.3-1.1,0.2c-2.5,0.1-3.2-0.2-5.2,0
	c-0.4-0.1-0.8-0.1-1.1-0.1c-0.7-0.1-2.1,0.2-2.3-0.1c0.7,0.1,1.3,0,2-0.1c0.4,0,2.1,0,1.1-0.1c-0.4-0.1-1.5,0.1-1.4-0.1
	c1.3,0.2,3-0.3,3.1,0.1c-0.4,0-0.8,0-0.9,0.1c1.3,0.1,1.1-0.3,2-0.4c0.4,0,0.8,0,1.1,0.1c0-0.3,1.2-0.1,1.7-0.1
	c0.3,0.1,0.3,0.3,0.9,0.2c0.8,0.1,1.5,0,2.3-0.1c0.6-0.4,1.8,0.1,0,0c0.3,0.3,1.8,0,2.6,0.1c0.2-0.3-0.8-0.4,0.3-0.4
	c1.1-0.2,0.1,0.5,1.1,0.4c0.5-0.1,0.2-0.4,0.9-0.1c0-0.3,0.7-0.3,1.4-0.2c-0.1,0.1-0.6,0.1-0.6,0.2c1.4,0.2,0.7-0.5,2-0.4
	c-0.1,0.1-0.6,0.1-0.6,0.2c0.9,0.1,0.8-0.2,1.7-0.1c0,0.2,0,0.3,0.3,0.4c0-0.2,0-0.3,0.3-0.4c1-0.2,2.5,0.2,3.7-0.1
	c0.5,0.1,0.9,0.2,1.4,0.1c0.5,0,0.7-0.2,0.9,0c-0.1,0.2-0.9,0-0.9,0.2c0.9-0.1,2.5,0.2,2.9-0.1c-0.3,0-0.7-0.2-0.3-0.2h2.3
	c0.5,0.1,1.7-0.2,1.7,0.1c-0.3,0.3-1.2-0.3-1.1,0.2c1.6,0.2,3.3-0.1,5.4,0c0.8,0.1,0.6-0.2,1.2-0.2c0.2,0.4,1.2-0.1,1.2,0.5
	c-0.4-0.1-0.8-0.1-1.2,0h-2.6c-0.7,0.1-2.1-0.2-2.3,0.1c0.9,0.1,1.7,0.1,2.6,0h6.6c0.5-0.1,0.9-0.2,1.4-0.2c0.1,0.2,0.2,0,0.6,0
	c0.5,0,0.6,0.2,1.2,0.1c0.5-0.2,1-0.2,1.4,0c-0.1-0.4,0.8-0.6-0.3-0.7c-0.3-0.3-1,0-1.1-0.2c-1.6,0.1-1.9,0-3.4,0.1
	c-2.3,0.1-4.6,0-6.9-0.1c-0.7,0-0.6,0.2-1.4,0.1C514.5,7,514.2,7,514,7c-0.5,0-0.5,0.1-0.9,0.1c0.1-0.3-1.6,0.1-1.4-0.2
	c-5.5,0.3-13.1-0.1-17.5,0.1c-0.8,0.1-0.7-0.2-1.4-0.1C492.4,7,492,7,491.7,7h-5.2c-1.5,0-2.5,0.1-3.7,0c-1.7,0.1-3.4,0.2-5.1,0.1
	h-2c-0.4-0.1-1.5,0.1-1.4-0.1c2.1-0.1,4.6-0.1,6.6-0.2c2,0.1,3.5,0,6,0c1-0.3,3.5,0,4.6-0.2c0.4,0.1,0.8,0.1,1.1,0.1
	c0.6-0.1,1.1-0.1,1.7,0c0.2,0,0.5-0.1,0.9-0.1c1.9-0.1,3.8,0.1,5.7,0c0.6,0.1,1.1,0.2,1.7,0.2c2.7-0.2,4.7-0.1,7.4-0.2
	c1.2,0.1,2.5,0.2,3.7,0.1c0.3,0,0.2-0.2,0.6-0.2s0.3,0.3,0.9,0.2c0.6-0.1,1.7,0.2,1.7-0.1c-0.3,0-0.8,0-0.9-0.1c0.3,0,0.8,0,0.9,0.1
	c1.7-0.1,2.5-0.2,3.4,0.1c0.2-0.3,1.8-0.1,2.3-0.4c0,0.1,0.5,0.1,0.9,0.1c0,0.1,0.3,0.1,0.3,0c0.6,0.1,1.1,0.1,1.7,0.1
	s1.2-0.1,1.7-0.2c-0.1,0.1,0.8,0.4,0.9,0.1c-0.9-0.1,0.3-0.3,0.9-0.2c-0.1,0.1-0.6,0.1-0.6,0.2c0.9-0.1,1.2,0.3,1.4-0.1
	c-0.2,0-0.3-0.1,0-0.1c0.1-0.4,1.5,0.3,1.7-0.1c-0.4,0-0.8,0-0.9-0.1c1.2-0.1,2.4,0.4,2.9-0.1c-0.2,0-0.3-0.1-0.6-0.1
	c0,0.6-1.2,0-1.4-0.1c0.5,0,0.5-0.1,0.6-0.2c-0.7,0.1-1.3,0.1-2,0h-1.4c-0.5,0-0.6,0.1-0.3,0.1c0.8,0,1.7-0.1,1.7,0.2h-2.9
	c-0.3,0.2,0.7,0.3-0.4,0.3c-0.4-0.1,0-0.1,0-0.2h-1.4c-0.5-0.1,0.1-0.6-0.9-0.5c0.8,0.5-0.8,0.3-1.4,0.6h1.4c0-0.1,0.2-0.1,0.3,0
	h-0.3c0,0.6-1.1,0.1-2.3,0.2V5.8c-1.1,0-2.5,0.1-2.9-0.2c0.4,0,0.8,0,0.9-0.1c-0.5,0-1,0-1.4,0.1c0.1,0.3-0.8,0.1-0.9,0.4
	c0.9,0.1,0.9-0.2,1.4,0c0.5,0.1,1.7-0.1,1.7,0.1c-1.3-0.1-0.3,0.2-0.9,0.2c-0.3-0.1-0.6-0.1-0.9-0.1s-0.2,0.1-0.3,0.1
	c-0.3,0-0.2-0.1-0.3-0.1c-0.6,0.1-1.1,0.1-1.7,0h-4.3c-0.1-0.1-0.4-0.1-0.7-0.1h-2.3c-0.6-0.1-1.9,0.2-2-0.1c4.2-0.1,5.5,0,9.4-0.1
	c0.3-0.4-0.6-0.2-1.2-0.2h-4.3c-0.5,0-0.6-0.2-1.1-0.1c-2.2,0.2-4.4,0.2-6.6,0c-1.3,0.1-2.7,0-4-0.1c-0.7,0-0.6,0.2-1.4,0.1
	c-0.2-0.2-1.6,0-1.7-0.2h2.6c0.3,0,0.2-0.2,0.6-0.2c1.1,0.2,2.3,0.2,3.4,0c1,0.1,2.1,0.1,3.1,0c0,0.1-0.3,0.1-0.3,0.2h0.6
	c1.2-0.2,3.5,0,4.6-0.2c0.1,0.2,0.7,0.1,1.1,0.1c0.4,0.1,0.8,0.1,1.1,0.1s0.2-0.2,0.6-0.2c0.5,0.1,0.9,0.1,1.4,0.1
	c0.4,0.1,1.5-0.1,1.4,0.1c0.9-0.1,1.7-0.1,2.6,0c0.1-0.2,0.7-0.1,1.2-0.1c0.8-0.1,0.7,0.2,1.4,0.1c0-0.1,0.1-0.2,0.3-0.2
	c0.4,0.2,1.3,0.1,1.7,0.2c0.9-0.4,3,0.3,3.4-0.2c-0.5,0-0.6-0.2-1.1-0.1c0.2,0.2-1.3,0.2-1.2,0h1.2V5c-3.6-0.8-10.5,0.1-14.5-0.5
	c0.1,0.2-0.2,0.2-0.6,0.2c-0.9,0-1.7,0-2.6,0.1c-0.5,0-0.6-0.2-1.1-0.1c-0.4,0.1-0.8,0.1-1.1,0.1H497c-0.9,0-1.7,0-2.6,0
	c0.3-0.2,0.1-0.2,0-0.4c-2.4-0.1-4.7,0.1-7.2,0c-0.2,0-0.4,0-0.6,0c-0.3-0.2-0.1,0-0.3,0c-0.6,0-1.1-0.1-1.7-0.1
	c-4.4-0.1-8.9,0.2-13.5,0c-0.5,0-0.6-0.1-1.1-0.1c-0.3,0.1-0.6,0.1-0.9,0.1c0.1,0-0.2-0.1-0.3-0.1c-1.4-0.2-4.1,0.1-6,0
	c-2.3-0.2-4.6-0.2-6.9,0c-1.7-0.3-4.9,0-6.6-0.2c-2.6,0.2-5.2,0.2-7.7,0c-0.8,0-1.5,0-2.3,0c-0.1,0.1-0.4,0.1-0.7,0.2
	c-1.5,0-3.1,0-4.6-0.1c-0.9-0.1-0.8,0.2-1.7,0.1c-0.1-0.1-0.6,0-0.9-0.1s-0.2-0.2-0.6-0.2c-0.1,0.2-0.4,0.2-0.9,0.2V3.8
	c-0.5,0-0.6-0.2-1.1-0.1s-0.6,0.2-1.4,0.1c-2.6-0.4-5.6,0.1-8.6,0c-0.5,0.1-0.9,0.2-1.4,0.2s-0.5-0.3-1.4-0.2c-0.5,0-1,0.1-1.4,0.2
	c-0.4,0-0.5-0.2-0.9-0.2c-0.4,0.1-0.8,0.2-1.1,0.2c0.1,0-0.2-0.2-0.3-0.1C412,4,411.7,4.1,411.4,4c-1-0.1-2.1-0.2-3.1-0.1
	c-1,0.3-2.4,0-3.7,0.4c0-0.3-1-0.1-1.4-0.1c-0.6-0.1-1.1-0.2-1.7-0.1c-0.3,0.1-0.3,0.3-0.9,0.2c-3.3,0.1-7.6-0.2-11.2,0.1
	c-2.1-0.1-4.2-0.1-6.3,0.1c-0.4,0-0.6-0.2-0.6-0.4c-0.8-0.1-0.6,0.2-1.1,0.2c-0.1-0.2-0.4-0.2-0.9-0.2c-0.3,0.1-0.3,0.3-0.9,0.2
	c-4.1,0.1-7-0.2-10,0c-0.6-0.1-1.1-0.2-1.7-0.2c-2.3,0.4-5.1-0.1-7.5,0.1c-0.1-0.2-0.9,0-0.9-0.2c-0.5,0-0.6-0.2-1.1-0.1
	c-0.8,0.1-0.7,0.5-1.7,0.5c-0.7,0.1-1.3,0-2-0.1c-0.5,0.1-1,0-1.4-0.2c-1.7,0-3.4,0-5.1,0c-0.6,0.2,0.4,0.3-0.3,0.4s0.2-0.5-0.9-0.4
	c-0.3,0-0.5,0-0.6-0.1c-0.9-0.2-0.2,0.4-1.1,0.2h-1.5c0,0.2-0.4,0.1,0,0c0.1-0.3-0.9,0-1.1,0c0,0-0.1-0.1-0.3-0.1s-1.4,0-2,0
	c-0.6,0.1-1.1,0.1-1.7,0C338,4,337,4.3,336.1,4.2c-0.9-0.1-1.9-0.2-2.9-0.1c-0.6,0.1-0.6,0.5-1.4,0.5c-0.9-0.1-1.9,0.1-3.4,0
	c-1-0.1-2,0.1-3.2,0c-0.5-0.1-1-0.1-1.4,0c-0.9,0-2.2,0-3.4,0c-1.3,0.1-2.7,0-4-0.1c-0.1,0.3-1.4,0-2,0.1h-6.6
	c-0.5,0-0.6,0.2-1.1,0.1c-0.6-0.1-1.1-0.1-1.7-0.1c-2,0.3-5.7-0.1-7.7,0.2c-1.4-0.2-2.9-0.2-4.3,0c-3.5,0-7.3,0-9.7,0.1
	c-0.6-0.1-1.1-0.1-1.7-0.1s-0.4-0.3-1.1-0.2c-0.3,0-0.2,0.2-0.6,0.2s-0.5-0.2-0.9-0.2c0.1,0.2-0.2,0.2-0.6,0.2s-0.2-0.2-0.6-0.2
	c-0.1,0.1-0.3,0.1-0.3,0c-0.6,0-1.1,0.1-1.7,0.2c-0.4-0.2-1.4-0.1-1.7-0.2c-0.1,0.2-0.7,0.1-1.1,0.1c-0.3,0.2-1,0.2-1.4,0.4
	c-0.3-0.3-0.7-0.5-1.1-0.5c0,0.3-2-0.1-2,0.2c0.4,0,0.2,0.2,0,0s-1.1,0-1.1-0.2c-0.9,0.1-1.7,0.1-2.6,0c0,0.1-0.5,0.1-0.9,0.1h-5.4
	c-0.5,0-0.5,0.1-0.9,0.1c-0.9-0.2-1.9-0.2-2.9,0c-0.4-0.2-0.8-0.3-1.1-0.2c-0.4,0-1.2,0.4-1.4,0.1c-0.6,0-0.5,0.3-1.4,0.2
	c-0.4,0-0.8,0-0.9-0.1c-2.5,0.1-4.4-0.1-6.9,0.1c-0.6-0.1-1.2-0.1-1.7,0V4.6c-0.5,0-1,0.1-1.4,0.2c0.2-0.2-1.4-0.2-1.1,0
	c-0.4-0.1-0.8-0.1-1.1-0.1s-0.2,0.2-0.6,0.2c-0.6-0.3-2.6,0-3.1-0.2c0,0.2,0,0.3-0.3,0.4c-0.5,0-0.8-0.7-1.4-0.2
	c0.3,0,0.5,0,0.6,0.1c-0.8,0.1-1.5,0-2.3-0.1c-0.1,0.2-0.5,0.3-1.1,0.2c-1-0.1-1.3,0-2.6-0.1c-0.9-0.1-0.8,0.2-1.7,0.1
	c-0.1-0.2-0.3,0-0.6,0c-0.7,0-0.3-0.3-0.9-0.4c-0.5,0.2-1.1,0.2-1.7,0.1c-0.1,0.2-0.7,0.1-1.1,0.1c-0.8,0.2-1.1,0.2-1.3,0.2
	c-1.3-0.2-2.7-0.2-4,0c0.1-0.2-0.1-0.4-0.6-0.4s-0.1,0.4-0.6,0.4c-0.9,0.2-0.2-0.4-1.1-0.2c-1,0.3-2.1,0.3-3.1,0
	c-0.5,0.1-1,0.2-1.4,0.2c0.3-0.4-0.9-0.2-1.1-0.4c-0.4,0.3-1,0.2-1.7,0.1c-0.3,0.4-0.5,0.1-1.4,0.1c0.1-0.2-0.1-0.4-0.6-0.4
	c-0.9,0.1,0.7,0.2,0.3,0.5c-0.9-0.2-1.7-0.2-2.6,0c0-0.4-1.1-0.3-1.7-0.5c0,0.8-1.2,0-2,0c0.1,0.3-0.2,0.4-0.9,0.4
	c-0.2-0.1-0.2-0.3-0.6-0.4c-0.1,0.1-0.3,0.1-0.3,0c-0.7-0.1-1.4,0-2,0.2c-0.5-0.4-1.1,0-1.7-0.2c-0.3,0.4-0.6,0-1.1,0.2
	c-0.7-0.1-0.6-0.5-1.7-0.4c-0.9-0.1-0.6,0.3-1.4,0.2c-0.1-0.2-0.7-0.1-1.1-0.1c0.1-0.2-0.2-0.2-0.6-0.2c-1.5,0.2-3.1-0.2-4.6,0.1
	c-0.1-0.2-0.5-0.3-1.1-0.2c-2.5,0.1-4.8-0.2-6.6,0C173.7,4,173.2,4,172.6,4c-3,0.2-4.1,0-7.7,0c-1.1,0.2-1.3,0-2.6,0.1h-1.4
	c-0.4,0-1.1-0.1-1.1,0.1c-0.9-0.1-1.7-0.2-2.6-0.1c-0.4,0-0.4-0.2-0.9-0.2c-0.4,0.2-2,0-2.6,0.2c-0.5,0-0.6-0.2-1.1-0.1
	c0,0.1-0.5,0.1-0.9,0.1c0,0.1-0.1,0.2-0.3,0.2c0.1-0.2-0.2-0.2-0.6-0.2c-0.9-0.1-1.8,0-2.7,0.1c0-0.3-2,0.1-2-0.2
	c-0.7,0.1-1.3,0.1-2,0.1c-0.5,0-0.6-0.2-1.1-0.1c-0.8,0.2-2.1-0.1-3.1,0.1c-0.2-0.3-1.8,0-2-0.2c-0.4,0.4-1.4-0.2-1.7,0.1h-2.3
	c-0.7,0-0.6-0.2-1.4-0.1c-0.4,0,0.2,0.2-0.3,0.2c-0.9,0-1.6-0.2-2.6-0.2c0.1,0.2-0.1,0.4-0.6,0.4c0.1-0.2-0.1-0.4-0.6-0.4
	c0.1,0.2-0.3,0.2-0.3,0.4c0.3,0,0.2,0.2,0,0c-0.3,0-0.2-0.2-0.3-0.2c-0.9,0.2-1.5-0.1-2.6,0.1C125.3,4,125,4,124.6,4
	c-0.1,0.2-0.7,0.1-1.1,0.1c-0.6-0.1-0.4,0.2-0.9,0.2V4.1c-1.4,0.1-3.2,0.3-4,0c-0.1,0.1-1.1,0.4-1.1,0.1c-0.6,0-0.4,0.3-1.1,0.2
	c-0.7-0.1-0.2-0.5-1.2-0.4c0,0.2,0,0.3-0.3,0.4s-0.2,0.2-0.6,0.2V4.3c-1,0-0.6,0.6-1.7,0.5c-0.1-0.2-0.2,0-0.6,0
	c-0.1-0.2-0.7-0.1-1.1-0.1c0.3-0.2,0.3-0.3-0.3-0.4c-0.3,0.1-0.1,0.4-0.9,0.4c-1.3-0.1-2.7-0.2-4-0.1c-0.6,0-0.4-0.3-1.2-0.2
	c-0.4,0-0.4,0.2-0.8,0.2c-0.1-0.2-0.4-0.2-0.9-0.2c-0.3,0.1-0.3,0.3-0.9,0.2h-4c-0.3,0-0.2-0.2-0.6-0.2c-0.3,0.4-0.6,0-1.1,0.2
	c0.3-0.4-0.9-0.2-1.2-0.4c-0.3,0.3-1.3,0.2-2.3,0.2c0-0.2,0-0.3-0.3-0.4c0.2,0.3-0.6,0.2-0.9,0.4c-0.2-0.3-0.9,0.1-1.4,0
	s-0.4,0-0.8,0c-0.8-0.2-1.6-0.2-2.4-0.1c-0.6,0,0,0.5-1.2,0.4c-0.2-0.3,0.6-0.2,0.6-0.4c-1.3,0.1-1.7-0.2-2.9-0.1
	c-0.2,0.2-0.5,0-0.9,0c0.9,0.7-2.3,0.4-3.1,0.7c1,0,1.9,0,2.9-0.1C82.2,4.9,82,4.9,82,5h0.6c0.5-0.1,1,0.4,1.2,0
	c-0.2,0-0.3-0.1,0-0.1c1.2,0.2,3-0.1,4,0.4c0-0.1,0.5-0.2,0.6,0c0.3,0,0.7,0,0.6,0.2c-0.8,0-1,0-0.6-0.2h-0.5c0,0.1-0.4,0.1-0.9,0.1
	s-0.3-0.3-0.9-0.3c-0.5,0-0.2,0.3-0.6,0.4c-0.5-0.2-0.9-0.2-1.4-0.2c0,0.2-0.2,0.3-0.6,0.4V5.4c-1.1-0.1-0.5,0.4-1.4,0.4V5h-0.6
	c-1,0,0.7,0.4-0.3,0.5c-0.7-0.1-1.3-0.1-2-0.1C79,5.2,79,4.9,78.6,4.8C78.5,5,78.1,5,78,5.2c0.2,0.1,0.3,0.2,0,0.2
	c-1.1-0.2-0.5,0.3-1.1,0.3c-0.3,0-0.2-0.2-0.3-0.4c-0.3,0-0.5,0-0.6-0.1c-0.9,0-1.7,0.1-2.6,0.4c-0.7-0.2-1.4-0.1-2,0.1
	c0,0.1-0.2,0.1-0.3,0c-0.4,0-1.1-0.1-1.2,0.1c0.4,0,0.8,0,0.9,0.1h-1.4c-0.3-0.1-0.3-0.3-0.9-0.2c0,0.1-0.1,0.2-0.3,0.2h-0.6
	c0.2-0.1,0.7-0.1,0.6-0.4s-0.2,0-0.6,0C67.5,5.6,67,5.6,67,5.7c-0.6-0.3-0.9,0-1.4,0.1c0-0.3-1-0.1-1.4-0.1c-0.1,0.3-0.5-0.2-1.1,0
	c-0.1,0.2-0.9,0-0.9,0.2C61.8,6,61.4,6,61,6c-0.9,0.1-0.4-0.4-1.2-0.4c-0.2,0.3-1.6,0-1.4,0.5c0.5,0,1.1-0.1,1.1,0.1
	c0.8,0.1,1.5,0,2.3-0.1c1,0.2,0.7-0.1,1.7-0.1c-1,0.7-4.6,0.8-6.9,0.6c-0.4,0.4-2.8,0-3.2,0.5c0.3,0,0.2,0.2,0.3,0.4
	s-0.6,0.1-0.6,0.2c0.8,0.2,1.8,0,1.8,0.3c-3.6,0.1-6.2,0.4-9.2-0.1c-0.7,0.3-3.1-0.1-2.9,0.6C44.1,8.4,44,8.6,43.7,9h4
	c0.6,0.2,2.1,0,2.6,0.2c-1.5,0.2-3,0.3-4.6,0.4c-0.3,0.1-0.5,0.2-0.8,0.2c-0.2,0.1-0.2,0.3-0.6,0.4c-0.1-0.2-0.2,0-0.6,0
	c0-0.1-0.5-0.1-0.9-0.1c-0.4,0.1-0.8,0.1-1.1,0.1c-0.8,0.1-0.7-0.2-1.4-0.1c0,0.1-0.5,0.1-0.9,0.1c-0.5,0.2,0.5,0.3-0.5,0.4
	c-0.7,0.1-1.3,0.3-2,0.5c0.9,0.1,0.8-0.2,1.7-0.1c0.9-0.1,0.8,0.2,1.7,0.1c0.4-0.1,0.8-0.1,1.2-0.1c0.5,0,1,0,1.4,0.1
	c0.2-0.1,0.8-0.2,0.9,0s-1,0.1-1.1,0.2c-1.7,0-3.4,0.1-5.2,0.2c-0.4,0-0.8,0-1.2-0.1c-0.1,0.2-1.3,0-1.4,0.2c-0.6-0.3-1.2,0.1-2.3,0
	c0,0.2-0.1,0.5,0.3,0.5c0.2,0.3-0.5,0.2-0.6,0.4c1,0.2,2.1,0.1,3.1-0.1c1.6,0.1,3.3,0,4.9-0.1c0.4,0.1,0.8,0.1,1.2,0.1
	c0.7,0.2,1.2-0.4,1.4,0c-0.3,0.4-1,0-1.7,0.4c-0.8-0.2-1.5,0.1-2.9,0c-0.5,0.2-2.4,0-2.3,0.5c0.8,0.1,1.8-0.4,2.3,0
	c-0.5,0.5-3.1,0-4,0.4c-0.3-0.1-0.6-0.1-0.9-0.1c-0.6,0.1-1.1,0.2-1.7,0.1c-0.6,0.2-1.1,0.3-1.7,0.4c-1.5,0-2.4,0.2-4,0.1
	c-1,0.2-2.1,0.3-3.1,0.2c-0.8,0.2,0,0.4-0.6,0.6s-1.9-0.1-2,0.1c2.3,0,4.1,0.5,6,0.2c-0.4,0.8,0.6,0.2,1.2,0.5
	c-0.1,0.7-2.7,0.4-3.1,1c1.7,0.1,2.7,0,4.9,0c0.8,0.1,0.7-0.2,1.4-0.1c-0.1,0.3,1.6-0.1,1.1,0.4c-0.5,0.2-1.2-0.1-2.3,0
	c0,0.1-0.5,0.1-0.9,0.1c-0.6,0-0.4,0.3-1.1,0.2c-1.2,0-2.3,0.1-3.4,0.2c-0.7,0-1.3,0-2,0.1c-0.6-0.1-1.8,0.1-0.9,0.2
	c0-0.1,0.4-0.1,0.6-0.1c0.9,0.2,2.4,0,2.9,0.1s-0.1,0.1-0.3,0.4c0.5,0,1.1-0.1,1.1,0.1c-1.3,0.1-2.7,0-4-0.1c-1,0.1-1.9,0-2.9-0.1
	c-1.4,0.1-3.3-0.5-4,0.1c1.2,0,2.5,0.1,3.7,0.4c-0.5-0.1-1,0-1.4,0.2c3.7,0,6.2,0.6,10.3,0.5c0.3,0.1,0.6,0.1,0.9,0.1
	c0.6-0.1,1.2,0,1.7,0.1c-0.2-0.2,1.4-0.2,1.1,0c-2.3,0.4-4.8,0.2-7.1,0.4c-1-0.1-1.9-0.1-2.9,0c-0.4,0-0.8,0-1.1,0
	c-0.2,0-0.3-0.1-0.6-0.1c0.1,0-0.1,0.1-0.3,0.1c-0.5,0-1.2,0-2,0c-0.5,0-0.6-0.1-1.1-0.1c-2,0.1-4.3-0.2-6.3,0.1H6.2
	c-0.4,0.1-1.1,0.1-1.2,0.4c-0.5,0-1.4-0.1-1.1,0.2c1.6,0,2-0.1,3.2,0c0.4-0.1,0.8-0.1,1.1-0.1c1.1,0.2,2.3,0.3,3.4,0.2
	c0.1,0.3,1.2,0.1,1.4,0.4c1.4-0.1,2.5,0.3,3.4,0c0.6,0.1,1.1,0.2,1.7,0.2c0.7-0.1,1.4,0,2,0.2c-2.9,0.1-5.7-0.4-7.4,0.2
	c0.7,0.2,2.4,0,3.1,0.2c0,0.2-0.4,0.2-0.3,0.5c0.9-0.1,0.8,0.3,1.1,0.5c1.4,0.1,2.9,0,4.3-0.1c-0.2,0.3,1.4-0.1,1.1,0.2
	s-1.9,0.2-2.9,0.2c-0.7,0-0.3,0.3-0.9,0.4s-0.7,0.1-0.9,0.2c0.8,0.1,2.7-0.2,2.6,0.2c-0.2,0.3-2,0-2.3,0.2c-1.6-0.1-3-0.2-4.3-0.2
	c0.1,0-0.1,0.1-0.3,0.1S12.9,24,12.7,24c-0.6,0-1.2,0-2,0c-0.6,0.1-1.1,0.2-1.7,0.1c0.2,0.3-1.3-0.1-1.2,0.2
	c1.3,0.2,3.4,0.2,4.9,0.4c0.9,0,1.7,0,2.6,0c1.2,0.3,2.8,0.1,3.7,0.2c0.1,0.3-1.1,0.1-0.9,0.5c2.1,0.1,3-0.4,4.3,0.1
	c-1.5,0.1-3.2,0.1-4.6,0.2c-0.3-0.2-2.4,0-1.4-0.4c-0.5,0-0.5,0.1-0.9,0.1c-0.7,0.1,0.7,0.2,0.9,0.4c0.6,0,1.2,0.1,1.7,0.2
	c-0.6,0.2-2.3,0-2.9,0.2c1.2-0.1,1.4,0.2,1.7,0.5c-1.6,0.3-3.2,0.4-4.9,0.2c-1.5,0.2-3.1,0.2-4.6,0.1c-0.3-0.1-0.6-0.1-0.9-0.1
	C6,27,4.8,26.8,4.8,27c2.9,0.3,5.7,0.5,8.6,0.5c0,0.1,0.4,0.1,0.6,0.1c-0.1,0.2,0.2,0.3,0.3,0.5c0.3,0,0.5,0,0.6,0.1
	c1.2-0.1,2.3,0,3.4,0.2c-0.4,0.3-0.4,0.6-1,0.7c-0.8-0.1-0.6,0.2-0.9,0.4c0.7-0.1,1.4,0,2,0.2c-3.8-0.1-4.7,0-8.6,0
	c0,0.8-2.2,0.1-2.9,0.5c1,0.1,0.2,0.3,0,0.5c0.8,0,2-0.1,2,0.2c-0.4,0-0.8,0-1.1-0.1c-0.4,0.1,0,0.5-0.6,0.5c-1,0-2.1,0-3.1-0.1
	c-0.6,0.1-1.9-0.1-2,0.1c0.7,0.1,1.4,0.2,2,0.5C3.9,32,3,31.8,3,32c1.1,0.1,2.2,0.1,3.2,0.2c0.8-0.2,1.5,0.1,2.9,0
	c0.2,0.3,2.2-0.1,2,0.4c-1,0-1.9,0-2.9-0.1H3.9c-0.5,0-2.1-0.4-2,0.1c0.6,0.3,2.3,0.2,3.7,0.2c4.7,0.4,8.8,0.6,13.4,0.7
	c0.1,0.2,1.3,0,1.1,0.4c-1.2,0.1-2.5,0-3.7-0.1c-0.5,0.1-0.9,0.2-1.4,0.1c-1.6,0-2.5-0.1-4.3-0.2c-0.9,0-1.7,0-2.6,0.2
	c1.4,0.2,2.9,0.3,4.3,0.4v0.2c0.9-0.1,1.9,0.1,3.4,0c0.6,0.2,1.9,0.1,2.6,0.2c0.5,0.1,1.7-0.2,1.7,0.1c0.5,0.1,1-0.4,1.1,0
	c-0.6,0.1-0.6,0.2-0.3,0.4c-2.9,0.3-4.6-0.1-8,0c-0.1-0.1-0.4-0.1-0.7-0.1h-1.7c-0.8-0.2-0.9,0-1.7-0.1c-0.7,0.1-1.6-0.4-2,0
	c0.8,0,0.7,0.4,1.4,0.4c0.6,0,1.1,0,1.7,0.1h1.4c0.6,0.2,1.6,0.1,2.3,0.2c1,0,1.9,0,2.9,0.1c0.8,0.1,2.3-0.2,2.6,0.1
	c-1.1-0.1-1.4,0.2-2.3,0.1c-0.9-0.1-2.5-0.3-3.2,0c0.5,0.2,0.7,0,1.4,0c0.4,0.1,0.8,0.1,1.1,0.1c0.9,0.1,2.5-0.2,2.9,0.1
	c-1.3-0.1-2.7,0-4,0.2H9c-0.8-0.2-1.2,0.1-2-0.1c-0.3,0.3-1.9,0-2,0.4c2.9,0.1,5.1,0.2,7.7,0.1c2.5,0.4,6.6,0.1,10,0.4
	c0.6-0.1,1.1-0.1,1.7-0.1c0.4,0.2,1.4,0,1.4,0.4c-2.2,0.2-4.2,0-6.6,0.2c-0.7,0-0.6-0.2-1.4-0.1c-0.5,0-0.6,0.2-1.1,0.1
	c-0.5-0.2-0.7,0.1-1.7,0c-0.5,0.1-1.7-0.2-1.7,0.1c0.6,0.2,0.4,0,1.1,0s0.6,0.2,1.4,0.1s2.3,0,4,0h4.6c1-0.1,1.6-0.1,3.7-0.1
	c0.5,0,0.6-0.2,1.1-0.1c0.6,0.3,0.8-0.1,1.7,0c-0.3,0.2-0.2,0.2,0.3,0.2s1.9-0.2,2,0.1c-1.6,0.1-2.6,0-4.3,0.2
	c-1.8-0.1-3.6-0.1-5.4,0.1c-1.9,0-2.1,0-3.7,0.1c-0.7,0-0.6-0.2-1.4-0.1c-0.2,0.2-1.6,0-1.7,0.2c0.4,0,0.8,0,0.9,0.1
	c-0.9,0.3-3.4-0.1-4.3,0.2c-0.6-0.1-1.1-0.2-1.7-0.1C11.1,39,9.9,38.8,9.9,39c1.6,0.1,1.7,0,3.2,0.1c1,0.1,2.7-0.2,3.1,0.1
	c-0.3,0-0.5,0-0.6,0.1c1.4-0.1,2,0.1,3.1,0.1c0.7,0,0.6-0.2,1.4-0.1c1.6,0.1,1.8,0,3.1,0.1c0.6-0.1,1.2-0.1,1.7,0
	c0-0.3,1-0.1,1.4-0.1c0.2,0.1,0.8,0.1,0.9,0.2c-1.8-0.1-2.7,0.2-4.6,0.1c-0.2,0.2-1.4,0-1.4,0.2c0.8,0,1.5,0,2.3-0.1h3.7
	c0.2-0.1,0.5-0.1,0.6,0c-0.2,0.3-1.6,0-2.3,0.1c-0.1,0.3-0.4,0.3-0.7,0.3h-3.7c-2.3,0.3-5,0.3-7.4,0.5c-0.4,0-0.8,0-0.9,0.1h3.4
	c0.8-0.1,1.5-0.2,2.3-0.1c0.4-0.1,0.8-0.1,1.1-0.1c0.5,0.1,1.7-0.1,1.7,0.1c-1.4,0-2.2,0.2-3.7,0.1c-0.3,0.1-0.3,0.3-0.9,0.2
	c-0.2,0-0.3,0.1-0.6,0.1c-1,0-1.9,0-2.9,0.1c-0.9-0.2-1.8-0.2-2.6,0.1c2.4,0.2,3.8,0,5.7,0.2c0.7,0,0.6-0.2,1.4-0.1
	c0.5,0.1,0.9,0.2,1.4,0.1c2.2-0.1,5,0.1,7.5,0.2c0.7-0.1,1.3-0.2,2-0.1c0.6,0.2,2.4,0,2.6,0.4c-1-0.1-1.9,0-2.9,0.1
	c-0.9,0-2.5-0.2-2.6,0.2c1.5-0.1,3.1-0.1,4.6,0.1c0.5,0,1.4-0.3,1.7,0c-1.4,0.2-3.1,0.1-4.3,0.4c-1-0.1-1.9,0-2.9,0.2
	c3.2,0,5.9-0.3,9.2-0.2c0.7,0.2,1.5,0.2,2.3,0.1c-0.1,0.2-0.5,0.2-0.6,0.4c1,0,1.9,0,2.9-0.1c0.2,0.2,1.4,0,1.4,0.2
	c1.8-0.1,3.6-0.2,5.4-0.1c0.3-0.1,0.6-0.1,0.9-0.1h2c0.5,0,1.4-0.3,1.7,0c-0.3,0.2-1.5,0.1-2,0.2c-0.7,0-1.3,0-2,0.1
	c-0.1-0.2-0.8-0.2-0.9,0c0.9,0,1,0.3,2,0.2c0.9-0.1,1.7-0.2,2.6-0.2c0.4-0.1,0.8-0.1,1.2-0.1c0.5,0,1.1-0.1,1.1,0.1s-2,0.1-0.9,0.4
	c-0.2-0.2,1.3-0.2,1.1,0c-0.4,0-0.8,0-0.9,0.1c0.7,0.1,2.1-0.2,2.3,0.1c-0.1,0.3-0.8,0.4-1.4,0.5c-0.3,0.2-1,0.2-1.4,0.4
	c-0.4-0.1-0.5,0-0.9,0s-0.6,0.2-1.2,0.1h-0.9c-0.3,0-0.2,0.1,0,0.1h1.4c1.7-0.3,4.3-0.2,5.4-0.4c0-0.2,0.4-0.1,0,0
	c0,0.1-0.3,0.1-0.3,0.2c1.4-0.2,2.7-0.3,4.3-0.4c3.3,0.2,7.4-0.1,11.7-0.1c-0.3,0.2-0.2,0.2,0.3,0.2c0.9-0.1,1.7-0.1,2.6,0.1
	c0.3-0.3,1.8,0,2.6-0.1c0.8-0.1,1.5-0.1,2.3,0c1-0.1,2.1-0.2,3.2-0.1c0.3-0.1,0.6-0.1,0.8-0.1c2.9,0,6.2,0.1,8.6-0.1
	c0.8,0.1,1.5,0.2,2.3,0.1c2.6-0.2,5.2-0.3,7.7-0.1c0-0.3,1.2,0,1.7-0.1c0.6,0,1.2,0.1,1.7,0.2c-1.1,0-2.3,0-3.4-0.1
	c0,0.2,0.1,0.5-0.3,0.5c-1.3-0.1-1.8,0.2-3.2,0.1c-0.2,0.2-1.4,0-1.4,0.2c1.6,0,3.3,0.1,4.9,0.2c0.4,0.2,2.7-0.2,3.2,0
	c0.7,0.1,1.3,0.1,2,0c0,0,0.1,0.1,0.3,0.1c0.1-0.1,0.2-0.1,0.3-0.1c0.5,0,1,0,1.4,0c0.1,0,0.4,0.1,0.3,0.1c0.3-0.1,0.6-0.1,0.9-0.1
	s0.6,0.1,0.9,0.1c-0.1,0,0.1-0.1,0.3-0.1s0,0.1,0.3,0.1c-0.1,0,0.2-0.1,0.3-0.1c0.7-0.1,2.6,0,3.7,0c2.6,0,5.5,0,8.9,0
	c0.5,0,0.6,0.2,1.2,0.1s1.7-0.2,1.7,0.1c-1.7,0.3-3.2-0.1-4.9,0.1c-1.4-0.1-2.9-0.2-4.3-0.1c-0.2-0.1-1.4-0.3-1.4,0
	c0.5,0,0.5,0.1,0.6,0.2h-2.5c-0.9,0-1.7,0-1.7,0.4c1-0.1,1.9-0.1,2.9,0c0-0.1,0.4-0.1,0,0L115,46.6z M106.1,47.6
	c-0.5,0.3-2.2,0-3.2,0.1c-0.1-0.3,1.6,0.1,1.4-0.2C105,47.4,105.6,47.5,106.1,47.6L106.1,47.6z M102.4,47.6c0,0.1-0.3,0.1-0.6,0.1
	H101c0-0.1,0.3-0.1,0.6-0.1H102.4z M112.4,47.6c-1-0.2,0.3-0.3,0.6-0.2S112.3,47.4,112.4,47.6L112.4,47.6z M110.7,47.5
	c0,0.1-0.5,0.1-0.9,0.1C109.9,47.4,110.4,47.4,110.7,47.5L110.7,47.5z M108.1,47.6h-1.7c0.1-0.2,0.7-0.1,1.1-0.1
	C108.2,47.3,109.4,47.5,108.1,47.6L108.1,47.6z M115,47.5c-0.2-0.3,1.3,0.1,1.2-0.2h1.4C116.7,47.4,115.9,47.5,115,47.5L115,47.5z
	 M133.3,47.2c-0.2,0.3-1.6,0-2.3,0.1h-2.3c-0.8,0.1-0.7-0.2-1.4-0.1c-0.8,0.1-1.5,0.1-2.3,0c0.3-0.2,1.3-0.1,1.7-0.1
	c0.8-0.1,1.5-0.1,2.3,0v0.1c0.7-0.1,1.3-0.1,2,0C131.8,47.2,132.6,47.1,133.3,47.2L133.3,47.2z M123,47.2c0,0.1-0.3,0.1-0.6,0.1
	h-0.9c0-0.1,0.4-0.1,0.6-0.1H123z M118.7,47.3h-0.8C117.9,47.2,118.4,47.2,118.7,47.3C119.8,47.1,119.8,47.4,118.7,47.3L118.7,47.3z
	 M193.1,47c1.3,0.1,2.7,0,4-0.1h6.9c0.9,0.1,0.9-0.2,1.4,0c-0.1,0.3-1.4,0-2,0.1h-2.3c-0.8-0.1-0.7,0.2-1.4,0.1h-4
	c-0.9-0.1-0.8,0.2-1.7,0.1C194.1,46.9,192.9,47.5,193.1,47L193.1,47z M191.4,47.2h-0.5C190.8,46.8,193,47.2,191.4,47.2L191.4,47.2z
	 M206,47c0.1-0.2,0.4-0.2,0.9-0.2C207.1,47,206.5,46.9,206,47L206,47z M208.6,46.7c0,0.1-0.4,0.1-0.6,0.1h-0.9
	c0-0.1,0.4-0.1,0.6-0.1H208.6z M268.4,46.6c-0.1,0.2-0.3,0-0.3-0.1C268.7,46.4,268.8,46.6,268.4,46.6L268.4,46.6z M267.6,46.6
	c0,0.1-0.3,0.1-0.3,0S267.6,46.5,267.6,46.6L267.6,46.6z M215.8,46.7h-3.4c-0.4,0-0.8,0-0.9-0.1h2.6c0.7-0.1,1.3-0.1,2-0.1
	c0.5,0,0.6,0.1,0.3,0.1S216.1,46.7,215.8,46.7L215.8,46.7z M275,46.5c0.1-0.2,0.6,0,0.6,0c0.7-0.1,1.3-0.2,2-0.1
	c0.9,0.1-0.8,0.1-1.1,0.1C276,46.6,275.5,46.6,275,46.5L275,46.5z M273.6,46.6h-1.1c0-0.1,0.5-0.1,0.9-0.1
	C274.3,46.4,275,46.6,273.6,46.6L273.6,46.6z M272.2,46.5c0,0.3-1,0-1.4,0.1h-1.7c0-0.1,0.4-0.1,0.6-0.1H272.2z M117.9,46.6h-1.4
	c-0.3-0.4,0.9-0.2,1.4-0.2V46.6z M116.2,46.6h-0.6v-0.2h0.6V46.6z M288,46.2c0,0.1-0.4,0.1-0.6,0.1C287.4,46.2,287.7,46.3,288,46.2
	L288,46.2z M286.8,46.2c0,0.1-0.4,0.1-0.6,0.1C286.2,46.2,286.6,46.3,286.8,46.2L286.8,46.2z M292.6,46.1c0.1,0.1-0.2,0.2-0.3,0.1
	S292.5,46.1,292.6,46.1L292.6,46.1z M282.6,45.9c0,0.3-1.2,0-1.7,0.1h-1.7c-1.1,0-2.3,0-3.4,0.1c-1.7-0.2-4.2,0.1-6.6,0
	c-0.5,0-0.7,0.2-0.9,0c-0.9,0.1-1.7,0-3.1,0c-1,0-3,0.2-4.9,0.1c-0.9,0-2.2-0.1-0.3-0.1h2c2.8-0.3,7.2,0.1,10-0.2
	c1.7,0.1,3.2-0.1,5.4,0h2.9C281,45.8,281.8,45.8,282.6,45.9L282.6,45.9z M292.3,45.9h-2.6c-2,0-3.1,0.1-4.6,0c0.2-0.3,1.6,0,2.3-0.1
	h2.9c0.4,0,0.7,0,0.6-0.2c0.4,0,0.3,0.2,0.6,0.2C291.6,45.6,292.1,45.7,292.3,45.9l2.1-0.1c0-0.3,1-0.1,1.4-0.1h2c0,0.3-1,0-1.4,0.1
	h-2C294,46,292.9,45.9,292.3,45.9L292.3,45.9z M284,45.9c-0.1,0.2-0.3,0-0.3-0.1C284.2,45.7,284.3,45.9,284,45.9L284,45.9z
	 M130,45.7c0,0.1-0.5,0.1-0.9,0.1h-1.2c0-0.1,0.5-0.1,0.8-0.1H130z M298.9,45.6c0,0.1-0.4,0.1-0.6,0.1
	C298.3,45.6,298.6,45.6,298.9,45.6L298.9,45.6z M348.2,45.3c0,0.1-0.5,0.1-0.9,0.1C347.3,45.2,347.8,45.3,348.2,45.3L348.2,45.3z
	 M166.9,45.3c0.2-0.2,0.5,0,0.9,0h3.4c0.8,0.2-1.5,0.1-2,0.1C168.4,45.4,167.6,45.4,166.9,45.3L166.9,45.3z M373.4,45
	c-1.6,0.1-3.6-0.3-5.7-0.1c0,0.2,0.7,0.1,0.6,0.4c-0.2-0.2-1.1,0-1.1-0.2c-0.9,0.3-1.9-0.1-2.6,0.1c-0.6,0-0.6-0.2-0.9-0.2
	c-2.5,0.1-5.1,0.2-7.7,0.2c-0.5,0-1-0.1-1.4-0.2c-0.6,0.1-1.1,0.1-1.7,0.1c-0.4,0-0.8,0-1.1-0.1c-1.1-0.1-1.8,0.2-2.3,0
	c0-0.2,0.7-0.1,1.1-0.1h3.1c0.4-0.1,1.5,0.1,1.4-0.1c1.7,0.3,4.5,0,6.6,0.1c0.5,0,1-0.1,1.4-0.2c0.7,0.2,0.6,0.2,1.7,0.1
	c0.9,0.1,1.7,0.1,2.6,0.1c-0.1-0.1-0.2-0.1-0.6-0.1c0-0.3,1.2,0,1.7-0.1c0.1-0.1,0.3-0.1,0.6,0c0.3,0,0.6,0,0.9-0.1
	c0.5,0,0.6,0.1,1.1,0.1c0.1,0,0.2,0,0.3-0.1c0.3,0,0.6,0.1,0.9,0.1c0.8,0,1.4-0.1,2.3-0.1c0.6,0,1.1,0,1.7,0c1-0.1,2.1-0.1,3.1,0
	c0.1,0,0.4,0.1,0.3,0.1c0.4,0,0.6-0.1,0.9-0.1c0.7,0.1,1.3,0.2,2,0.1c0.4,0,0.7,0,0.6,0.2c0.2,0,0.3-0.1,0.3-0.2
	c0.5,0,0.6,0.1,0.3,0.2c0.9-0.1,1.5-0.2,2.3-0.4h12.8c0,0.1-0.5,0.1-0.9,0.1c-2.2,0.3-4.2-0.2-6,0.1c-0.5-0.1-1.7,0.1-1.7-0.1
	c-0.3,0-0.5,0.2-0.6,0c-0.4,0-0.3,0.2-0.6,0.2s-1,0-0.9-0.2c-0.9,0-0.8,0.4-2,0.2c-0.3,0.4-1.5-0.1,0,0v-0.1c-0.5-0.1-1,0-1.4,0.2
	c-0.9,0.1-1.7,0-2.6-0.1c-0.4,0.1-0.8,0.1-1.1,0c-0.2,0-0.3,0.1-0.3,0.2c-0.9-0.1-1.9-0.2-2.9-0.1h-1.4c-0.4-0.1-1.5,0.1-1.4-0.1
	c-0.6,0-0.4,0.3-1.1,0.2c-0.1-0.1-0.3-0.2-0.6-0.2C373.3,44.8,373.3,45,373.4,45L373.4,45z M306.6,45.1c-0.1,0.2-0.6,0.1-0.6,0
	C306.3,45.1,306.5,45,306.6,45.1z M305.4,45.1c0,0.1-0.5,0.1-0.9,0.1h-0.9c0-0.1,0.5-0.1,0.9-0.1H305.4z M302.8,45.1
	c0,0.1-0.4,0.1-0.6,0.1C302.3,45.1,302.6,45.2,302.8,45.1L302.8,45.1z M183.7,45.1c-0.3,0.3-1.8,0-2.6,0.1c0.1,0,0.2-0.2,0.3-0.2
	c0.4-0.1,0.5,0.1,0.6,0.1C182.6,45,183.2,45,183.7,45.1z M176.9,45.1c0,0.2-1.9,0.2-1.4-0.1C175.9,45.1,176.4,45.1,176.9,45.1z
	 M165.4,45.1c0,0.1-0.4,0.1-0.6,0.1h-8.6c0.1-0.2,0.7-0.1,1.1-0.1H165.4L165.4,45.1z M169.7,44.6c0.4,0,1.1,0,1.1-0.1
	s0.4-0.2,0.9-0.2c2.1,0.1,2.6,0.1,4.9,0.1c0.6,0,1.2,0,1.7-0.1c0.4,0.1,1.5-0.1,1.4,0.1c0.5-0.1,1.4-0.2,2-0.2c2.4,0,4.1,0.1,6,0
	c2.7,0,3.9,0,6-0.1c0.7,0,1.3,0,2,0.1c2.6-0.1,5.3-0.1,8-0.4h7.2c1.2-0.2,2.6-0.1,3.7-0.1c0.5,0,0.6-0.1,1.1-0.1
	c0.4,0,0.8,0.1,1.1,0.1c0.4,0,1-0.1,1.4-0.1c3.6,0,6.5,0,10,0c0,0.2-0.5,0.1-0.9,0.1c-0.6,0.1-1.1,0.1-1.7,0c-1-0.1-1.9,0-2.9,0.1
	c-0.8,0.1-0.7-0.2-1.4-0.1c-1.4,0.1-2.9,0.2-4.3,0.1c-0.4,0-0.7,0-0.6,0.2c-0.4,0-0.3-0.2-0.6-0.2s-0.7,0.1-0.3,0.1
	c0,0.2-0.5,0.1-0.6,0.2h-2.6c-1.1-0.2-0.6,0.3-1.4,0.2c-0.4-0.3-0.7,0.1-1.4-0.1c-0.6,0.1-1.2,0.1-1.7,0c-0.3,0.5-1.1-0.4-1.1,0
	h-2.6c0,0.1,0.5,0.1,0.9,0.1c-0.1,0.2-0.7,0.1-1.1,0.1h-5c-0.8-0.1-0.7,0.2-1.4,0.1h-2.9c-0.8,0.1-2.3-0.2-2.6,0.1
	c0.4,0.4,1.3-0.1,2,0c0.1,0.2,0.6,0.1,0.9,0h6.9c1.7-0.1,3.4-0.2,5.1-0.1c-0.1,0.3-1.4,0-2,0.1c0.1,0.3-1.8-0.1-1.7,0.2
	c-0.9-0.1-1.7-0.2-2.6-0.1c-4,0.2-8.7,0.1-12.9,0.2c0.5-0.3,1.2-0.3,1.7-0.1c0.2-0.3,1.8,0,2-0.2c-0.3-0.3-1.8,0-2.6-0.1
	c-0.5,0-0.7,0.1-0.9,0.2c-0.3,0-0.6-0.2-0.9,0c0.9,0-0.3,0.5,0,0c-1.8-0.1-3.6-0.1-5.4,0c-0.5,0-1.2,0.1-1.4-0.1
	c-0.8,0.1-1.2,0.1-1.4,0s-1.3,0-1.1,0.1c-0.8,0.1-0.6-0.2-1.1-0.2s-1,0-1.4-0.1c-0.8,0,0.7,0.5-0.3,0.5c-3.1,0-6,0.1-8.9,0
	c-0.5,0-0.9-0.1-1.4-0.1c-3-0.1-6.4-0.1-9.2,0c-0.6,0-1.1,0.1-1.7,0.1s-1.4-0.1-2-0.1c0,0-0.1,0.1-0.3,0.1s-0.4-0.1-0.3-0.1
	c-0.5,0-0.6,0.1-1.1,0.1s-1.2-0.1-1.7-0.1c-1.6-0.1-4,0.1-5.2,0c-0.1,0-0.4-0.1-0.3-0.1c-0.3,0-0.6,0.1-0.9,0.1
	c-0.5-0.1-1-0.1-1.4-0.1c-0.8,0.1-1.5,0.1-2.3,0c-0.4,0-0.8,0-1.1,0s-0.6-0.1-0.9-0.1s-0.2,0.1-0.3,0.1c-0.3,0-0.3-0.1-0.3-0.1
	c-1.7,0.1-3.4,0-5.1-0.1h-9.2c-0.8-0.1-0.7,0.2-1.4,0.1h-10.3c-1.6,0-1.6,0-3.2,0c-0.3,0-0.7-0.1-0.3-0.1h3.8
	c4.7-0.2,8.7-0.2,12.9-0.2c0.6,0,1.2-0.1,1.7-0.1s1,0,1.4,0.1c0.1,0,0-0.1,0.3-0.1c1.1,0,1.4,0.1,2,0.1c0.1,0,0-0.1,0.3-0.1
	c0.1,0-0.1,0.1,0.3,0.1c0.1-0.1,0.2-0.1,0.3-0.1c1-0.1,2.1-0.1,3.2,0c0.8,0,1.1,0.1,1.4,0.1c0.9,0,1.3-0.2,1.7,0
	c0.1,0.1,0.4-0.1,0.3-0.1c0.4,0,0.6,0.1,0.9,0.1c1.3,0,2.6,0,4,0c0.8-0.1,0.7,0.2,1.4,0.1h7.2c0.8-0.1,0.7,0.2,1.4,0.1h9.2
	c0.6-0.2,0.7,0,1.4,0c1-0.1-0.8,0-0.3-0.4c1.2,0.1,2.9-0.2,4.3,0.1h2.3c0.7,0.1,2.1-0.2,2.3,0.1h0.6c0-0.2,0.4-0.1,0,0
	C170.3,44.6,169.8,44.5,169.7,44.6L169.7,44.6z M186,45c0,0.1-0.4,0.1-0.6,0.1C185.5,45,185.8,45.1,186,45L186,45z M185.1,45
	c0,0.1-0.5,0.1-0.9,0.1C184.3,45,184.8,45,185.1,45L185.1,45z M179.1,45c0.1,0.1-0.2,0.2-0.3,0.1S179.1,45,179.1,45L179.1,45z
	 M178,45c0,0.1-0.4,0.1-0.6,0.1C177.4,45,177.8,45.1,178,45L178,45z M348.9,45h-2.6C346.5,44.8,349,44.6,348.9,45L348.9,45z
	 M346.1,44.9c0.1,0.1-0.2,0.2-0.3,0.1S346,44.9,346.1,44.9L346.1,44.9z M315.4,44.9c0.1,0.1-0.2,0.2-0.3,0.1S315.4,44.9,315.4,44.9
	L315.4,44.9z M423.7,44.9c0.2-0.4,2.1-0.2,3.1-0.2s1,0.2,0,0.1h-1.7C424.7,44.9,424.2,44.9,423.7,44.9L423.7,44.9z M422.2,44.7
	c0,0.1-0.4,0.1-0.6,0.1C421.7,44.8,422,44.8,422.2,44.7L422.2,44.7z M321.5,44.7c0,0.1-0.4,0.1-0.6,0.1h-2c0.1-0.2,0.7-0.1,1.1-0.1
	H321.5z M103.3,44.9h-0.6C102.6,44.6,104.8,44.9,103.3,44.9L103.3,44.9z M431.1,44.7c-0.3-0.2-0.5-0.3-1.7-0.2
	c0.1-0.1,0.3-0.1,0.3-0.2c-0.8,0-0.6,0.2-1.1,0h-3.4c-0.3,0-0.2-0.1,0-0.1h2.3c2,0.2,3.9-0.3,6,0c0.7,0,1.3,0,2,0c0.6,0,1.1,0,1.7,0
	c0.4,0,0.8,0,0.9,0.1h-2.6c0,0.3,1,0.1,1.4,0.1c-0.4,0.5-1.6,0-2.3,0.2c-0.8-0.1-1.5-0.1-2.3-0.1c0-0.1,0.5-0.1,0.9-0.1
	c-0.1-0.3-1.4,0-2-0.1c0,0.1,0.5,0.1,0.9,0.1C432.1,44.7,431.2,44.6,431.1,44.7L431.1,44.7z M429.7,44.6c0.1,0.1-0.2,0.2-0.3,0.1
	S429.6,44.6,429.7,44.6L429.7,44.6z M423.1,44.6c0.1,0.1-0.2,0.2-0.3,0.1S423,44.6,423.1,44.6L423.1,44.6z M212.6,44.6
	c-0.1,0.2-0.6,0.1-0.6,0C212.3,44.6,212.6,44.5,212.6,44.6L212.6,44.6z M210.4,44.7c0.4-0.2,0.8-0.3,1.1-0.2
	C211.8,44.9,210.9,44.8,210.4,44.7L210.4,44.7z M210.1,44.6C209.2,45.1,209.1,44.3,210.1,44.6z M208.6,44.6c0,0.1-0.4,0.1-0.6,0.1
	h-0.9c0-0.1,0.4-0.1,0.6-0.1H208.6z M277.9,44.5c0,0.1-0.4,0.1-0.6,0.1C277.4,44.6,277.7,44.6,277.9,44.5L277.9,44.5z M213.5,44.5
	c0,0.1-0.4,0.1-0.6,0.1C212.9,44.6,213.3,44.6,213.5,44.5L213.5,44.5z M456.6,44.4c-2.2,0-4.4,0-6.3,0c-3.3,0.3-6.6-0.1-9.2,0.1
	c-1.1,0-1.6-0.2-2.9-0.1c-0.3,0.4-1.5-0.1,0,0c0-0.2,0.5-0.1,0.6-0.2c1.7,0.1,3.4,0.2,5.1,0.1c0.5-0.3,1.8,0.1,1.7-0.1
	c0.2-0.5-1.4-0.2-2-0.2c-2.1,0.1-4.7,0.2-6.9,0.1V44h-1.4c-0.3,0.4-1.5-0.1,0,0c-0.1-0.2,1.6-0.2,1.4,0c2.4-0.2,4.9-0.1,7.7-0.1h14
	c1-0.1,1,0.2,0,0.1h-8.3c-0.1,0.4,0.9,0.2,1.4,0.4c0.9,0.1,1-0.2,2-0.1c1.5,0,3.1,0,4.6,0.1c0.3-0.5,1.2,0,2.3-0.1
	c1-0.2,2.1-0.2,3.1-0.2c0,0.1-0.2,0.1-0.3,0.2c0.4,0,0.7,0,0.6-0.2h2c0,0.1-0.5,0.1-0.9,0.1s-0.3,0.2-0.6,0.2
	c-2.2-0.1-4.9,0.1-6.3,0C458,44.5,457.1,44.4,456.6,44.4L456.6,44.4z M419.7,44.5c0.1-0.2,1.3,0,1.4-0.2c1,0.1,0.7,0,1.7,0.1
	c0.6-0.4,1.8,0.1,0,0C422.3,44.7,420.6,44.5,419.7,44.5L419.7,44.5z M407.7,44.4c0,0.1-0.5,0.1-0.9,0.1h-7.2c0.1-0.3,1.4,0,2-0.1
	H407.7L407.7,44.4z M353.3,44.3c0.1,0.3-0.4,0.2-0.9,0.2H351c-0.5,0-1-0.1-0.6-0.1h1.4C352.5,44.5,352.4,44.2,353.3,44.3L353.3,44.3
	z M207.3,44.4c0,0.1-0.5,0.1-0.9,0.1C206.4,44.4,206.9,44.4,207.3,44.4L207.3,44.4z M205.8,44.4c0.1,0.1-0.2,0.2-0.3,0.1
	S205.7,44.4,205.8,44.4L205.8,44.4z M481.2,44.1c0.1,0.5-1.8,0-2,0.4c-0.2,0-0.3,0-0.3-0.1c-0.5,0-0.5,0.1-0.9,0.1h-1.4
	c0-0.1,0.5-0.1,0.9-0.1C478.6,44.1,480.1,44.2,481.2,44.1z M361,44.3c0.1,0.1-0.2,0.2-0.3,0.1S360.9,44.3,361,44.3L361,44.3z
	 M359.2,44.3c0,0.1-0.4,0.1-0.6,0.1h-4.9c0.1-0.2,0.7-0.1,1.1-0.1H359.2z M94.4,44.3c0.2,0.1-0.2,0.2-0.3,0.1S94.3,44.3,94.4,44.3
	L94.4,44.3z M471.2,44.2c0,0.1-0.4,0.1-0.6,0.1C470.7,44.2,471,44.2,471.2,44.2L471.2,44.2z M469.5,44.2c0,0.1-0.5,0.1-0.9,0.1h-3.4
	c0.1-0.3,1.4,0,2-0.1H469.5z M366.1,44.2c0,0.1-0.4,0.1-0.6,0.1h-0.9c0-0.1,0.4-0.1,0.6-0.1H366.1z M363.5,44.2
	c0.1,0.1-0.2,0.2-0.3,0.1S363.5,44.1,363.5,44.2L363.5,44.2z M362.7,44.2c0,0.1-0.5,0.1-0.9,0.1C361.9,44.2,362.4,44.2,362.7,44.2
	L362.7,44.2z M158.2,44.2c0,0.1-0.5,0.1-0.9,0.1h-1.1c0-0.1,0.5-0.1,0.9-0.1H158.2z M97.5,44.2c0-0.3,1-0.1,1.4-0.1
	c0.7-0.1,1.3,0.2,0.3,0.1c-0.5,0-0.6,0.2-1.2,0.1C98.1,44.2,97.8,44.2,97.5,44.2L97.5,44.2z M97,44.2c0,0.1-0.5,0.1-0.9,0.1
	C96.2,44.2,96.6,44.2,97,44.2L97,44.2z M483.5,44.1c0,0.1-0.4,0.1-0.6,0.1C483,44.1,483.3,44.1,483.5,44.1z M482.7,44.1
	c0.1,0.1-0.2,0.2-0.3,0.1S482.6,44,482.7,44.1L482.7,44.1z M473.8,44.1c0,0.1-0.4,0.1-0.6,0.1C473.2,44.1,473.6,44.1,473.8,44.1z
	 M381.3,44.2h-0.6C380.7,43.9,382.9,44.2,381.3,44.2L381.3,44.2z M380.4,44.1c0,0.1-0.4,0.1-0.6,0.1h-0.9c0-0.1,0.4-0.1,0.6-0.1
	H380.4z M378.7,44.1c-0.2,0.3-1.6,0-2.3,0.1c-0.2-0.3,1.4,0.1,1.1-0.2C377.9,44.1,378.3,44.1,378.7,44.1L378.7,44.1z M374.1,44.2
	h-0.6C373.5,43.9,375.7,44.2,374.1,44.2L374.1,44.2z M372.7,44.1c0,0.1-0.4,0.1-0.6,0.1h-0.9c0-0.1,0.4-0.1,0.6-0.1H372.7z
	 M56.3,44.2c-0.7,0.1-1.3,0-2-0.1C54.4,43.9,56.7,43.8,56.3,44.2L56.3,44.2z M466.6,44c0.1,0.1-0.2,0.2-0.3,0.1S466.5,43.9,466.6,44
	L466.6,44z M433.4,44c0,0.1-0.4,0.1-0.6,0.1C432.9,43.9,433.2,44,433.4,44L433.4,44z M375.9,44c0.1,0.1-0.2,0.2-0.3,0.1
	S375.8,43.9,375.9,44L375.9,44z M493.9,43.9c0,0.1-0.5,0.1-0.9,0.1C493,43.8,493.5,43.8,493.9,43.9L493.9,43.9z M492.4,43.9
	c0.1,0.1-0.2,0.2-0.3,0.1S492.3,43.8,492.4,43.9L492.4,43.9z M482.4,43.9c0,0.1-0.4,0.1-0.6,0.1C481.8,43.8,482.2,43.9,482.4,43.9
	L482.4,43.9z M461.8,43.9c0,0.1-0.4,0.1-0.6,0.1h-0.9c0-0.1,0.4-0.1,0.6-0.1H461.8z M434.3,43.9c0,0.1-0.4,0.1-0.6,0.1
	C433.7,43.8,434,43.9,434.3,43.9L434.3,43.9z M235.3,43.9c-0.5,0.2-1,0.2-1.4,0.1C234.3,43.8,234.8,43.7,235.3,43.9L235.3,43.9z
	 M233.3,43.9c0.2,0.1-1.3,0.2-1.7,0.1s0.9-0.1,0.9-0.1C232.7,43.7,232.7,43.8,233.3,43.9L233.3,43.9z M489,43.9
	c0.4-0.2,0.9-0.3,1.4-0.2C490.4,43.9,489.7,43.8,489,43.9L489,43.9z M471,43.7c0,0.1-0.5,0.1-0.9,0.1c0-0.2,0.4-0.1,0.7-0.1H471z
	 M468.4,43.7c0,0.1-0.4,0.1-0.6,0.1C467.8,43.7,468.1,43.7,468.4,43.7L468.4,43.7z M466.4,43.7c0.1,0.1-0.2,0.2-0.3,0.1
	S466.3,43.7,466.4,43.7L466.4,43.7z M53.8,43.7c0,0.1-0.5,0.1-0.9,0.1C52.9,43.7,53.4,43.7,53.8,43.7L53.8,43.7z M230.8,43.6
	C229.6,43.7,230.8,43.3,230.8,43.6c1.1-0.2-0.1,0.3-0.1,0H230.8z M230,43.6c0.1,0.1-0.2,0.2-0.3,0.1s0.1-0.2,0.2-0.1H230z
	 M229.4,43.6c0,0.1-0.4,0.1-0.6,0.1c-0.1-0.1,0.2-0.1,0.4-0.1H229.4z M55.6,43.6h-0.7c-0.1-0.4,2.1,0,0.5,0H55.6z M53.3,43.5
	c0,0.1-0.3,0.1-0.6,0.1c-0.1-0.2,0.2-0.1,0.4-0.2L53.3,43.5z M56.7,43.4c0.2,0.1-0.2,0.2-0.3,0.1s0.1-0.2,0.1-0.2L56.7,43.4z
	 M505.1,43.3c0.1,0.1-0.2,0.2-0.3,0.1s0-0.2,0.1-0.2L505.1,43.3z M51.1,43.1c0.2,0.1-0.2,0.2-0.3,0.1S51.1,43.1,51.1,43.1z
	 M513,42.9c0.1,0.1-0.2,0.2-0.3,0.1S512.9,42.8,513,42.9L513,42.9z M34.6,42.5h-2c0.1-0.2,0.7-0.1,1.1-0.1
	C34.1,42.4,35.9,42.5,34.6,42.5z M37.1,42.3c0,0.1-0.3,0.1-0.6,0.1C36.6,42.3,36.9,42.3,37.1,42.3L37.1,42.3z M36,42.3
	c0.2,0.1-0.2,0.2-0.3,0.1S35.9,42.2,36,42.3z M537.1,42c0.3-0.2,0.7-0.3,1.1-0.2C538.1,42,537.7,42.1,537.1,42z M18.2,41.1
	c0.1,0.1-0.2,0.2-0.3,0.1C17.8,41.1,18.1,41,18.2,41.1z M19.7,41c0,0.1-0.4,0.1-0.6,0.1C19.1,40.9,19.4,41,19.7,41L19.7,41z
	 M28.5,40c0.4-0.2,0.9-0.3,1.4-0.2C29.5,40,29,40,28.5,40L28.5,40z M32.3,39.7c0,0.1-0.5,0.1-0.9,0.1C31.4,39.7,31.9,39.8,32.3,39.7
	L32.3,39.7z M30.8,39.7c0.1,0.1-0.2,0.2-0.3,0.1S30.7,39.7,30.8,39.7L30.8,39.7z M28.8,39.6h-0.6C28.2,39.3,30.4,39.7,28.8,39.6
	L28.8,39.6z M32.3,39.4c0,0.1-0.4,0.1-0.6,0.1C31.7,39.4,32,39.4,32.3,39.4L32.3,39.4z M31.1,39.4c0,0.1-0.4,0.1-0.6,0.1h-0.9
	c0-0.1,0.4-0.1,0.6-0.1H31.1z M582.6,38.8c0,0.2-1.9,0.2-1.4-0.1C582,38.6,581.9,38.8,582.6,38.8L582.6,38.8z M22.2,38.9h-0.6
	C21.6,38.6,23.8,38.9,22.2,38.9L22.2,38.9z M19.7,38.9c-0.6,0-1.2,0-1.8-0.1C17.9,38.6,20.1,38.5,19.7,38.9L19.7,38.9z M21.1,38.7
	c0,0.1-0.5,0.1-0.9,0.1C20.3,38.6,20.8,38.7,21.1,38.7L21.1,38.7z M34.8,37.8c0,0.1-0.5,0.1-0.9,0.1C34,37.8,34.5,37.9,34.8,37.8
	L34.8,37.8z M590.6,36.6c0,0.1-0.5,0.1-0.9,0.1C589.8,36.6,590.3,36.7,590.6,36.6L590.6,36.6z M589.8,36.3c0,0.1-0.3,0.1-0.6,0.1
	h-0.9c0-0.1,0.3-0.1,0.6-0.1H589.8z M24.5,35.9c0,0.1-0.4,0.1-0.6,0.1C24,35.9,24.3,35.9,24.5,35.9z M22.2,35.9
	c0,0.1-0.4,0.1-0.6,0.1C21.7,35.9,22,35.9,22.2,35.9z M21.1,35.8c0.1,0.1-0.2,0.2-0.3,0.1S21,35.8,21.1,35.8z M588.6,35
	c0,0.1-0.3,0.1-0.6,0.1C588.1,35,588.4,35,588.6,35L588.6,35z M589.2,34.8c0.2,0.1-0.2,0.2-0.3,0.1S589.1,34.8,589.2,34.8
	L589.2,34.8z M592.6,34c0.1,0.1-0.2,0.2-0.3,0.1S592.5,34,592.6,34L592.6,34z M592.9,33.8c0.1,0.1-0.2,0.2-0.3,0.1
	S592.8,33.7,592.9,33.8L592.9,33.8z M599.8,33.3c0,0.1-0.3,0.1-0.6,0.1C599.2,33.3,599.6,33.3,599.8,33.3L599.8,33.3z M604.1,33.2
	c0,0.1-0.3,0.1-0.6,0.1C603.5,33.2,603.9,33.2,604.1,33.2L604.1,33.2z M598.6,32.9H598C598,32.6,600.2,33,598.6,32.9L598.6,32.9z
	 M604.6,32.7c0.2,0.1-0.2,0.1-0.3,0.1S604.6,32.6,604.6,32.7L604.6,32.7z M602.3,32.7c0,0.1-0.3,0.1-0.6,0.1H600
	c0.1-0.2,0.7-0.1,1.2-0.1H602.3z M593.5,32.3c0.2,0.1-0.2,0.1-0.3,0.1S593.4,32.3,593.5,32.3L593.5,32.3z M598,31.7
	C597.7,31.7,597.9,31.6,598,31.7h0.6c0-0.3,1-0.1,1.4-0.1c0,0.3-1,0-1.4,0.1C598.6,31.8,598.1,31.9,598,31.7L598,31.7z M597.2,31.7
	c0,0.1-0.3,0.1-0.6,0.1C596.6,31.7,597,31.7,597.2,31.7L597.2,31.7z M601.8,31.5c0,0.1-0.3,0.1-0.6,0.1h-0.9c0-0.1,0.3-0.1,0.6-0.1
	H601.8z M607.2,31.4c0.2,0.1-0.2,0.1-0.3,0.1S607.1,31.3,607.2,31.4L607.2,31.4z M605.8,31.4c0,0.3-1,0-1.4,0.1h-1.5
	c0-0.3,1,0,1.4-0.1H605.8z M592.3,31.4c0.2,0.1-0.2,0.1-0.3,0.1S592.3,31.3,592.3,31.4L592.3,31.4z M594.9,31.2
	c0,0.1-0.5,0.1-0.9,0.1C594.1,31.2,594.6,31.3,594.9,31.2L594.9,31.2z M599.8,31.1c0,0.1-0.3,0.1-0.6,0.1h-2.3c0-0.3,1,0,1.4-0.1
	H599.8z M596,31.1c0.2,0.1-0.2,0.1-0.3,0.1S596,31.1,596,31.1L596,31.1z M592.3,31.1C591.4,31.6,591.3,30.7,592.3,31.1z M600.3,30.8
	c0,0.1-0.4,0.1-0.6,0.1h-0.8c0-0.1,0.3-0.1,0.6-0.1H600.3z M596.9,30.9c-0.1-0.4,1.2-0.4,1.7-0.2C598.1,30.9,597.5,31,596.9,30.9
	L596.9,30.9z M596,30.6c1.5,0.3-2.3,0.3-1.1,0.1h1.1V30.6z M594.3,30.8c0,0.1-0.3,0.1-0.6,0.1C593.8,30.8,594.1,30.8,594.3,30.8
	L594.3,30.8z M11.9,30.8c0.1,0.1-0.2,0.1-0.3,0.1S11.8,30.7,11.9,30.8z M600.3,30.5c0,0.1-0.4,0.1-0.6,0.1h-0.8
	c0-0.1,0.3-0.1,0.6-0.1H600.3z M602.3,30.4c0,0.1-0.3,0.1-0.6,0.1C601.8,30.4,602.1,30.4,602.3,30.4L602.3,30.4z M606.1,29.8
	c0.1,0.2-1.3,0.2-0.9-0.1h-2.9c0-0.1,0.3-0.1,0.6-0.1h2C605.8,29.4,605.6,29.8,606.1,29.8L606.1,29.8z M608.1,29.8
	c0-0.3,0.7-0.3,1.4-0.2C609.1,29.8,608.6,29.9,608.1,29.8L608.1,29.8z M610.1,29.6c0.2,0.1-0.2,0.1-0.3,0.1S610,29.5,610.1,29.6
	L610.1,29.6z M607.2,29.4c0-0.3,1,0,1.4-0.1h1.7c1,0,0.4,0.2-0.3,0.1h-1.7C607.6,29.4,607.8,29.6,607.2,29.4L607.2,29.4z
	 M606.9,29.3c0.1,0.1-0.2,0.1-0.3,0.1S606.9,29.3,606.9,29.3L606.9,29.3z M606.3,29.3c0,0.1-0.5,0.1-0.9,0.1
	C605.6,29.3,606,29.3,606.3,29.3L606.3,29.3z M605.2,29.3c0,0.1-0.3,0.1-0.6,0.1H604C604.2,29.3,604.8,29.3,605.2,29.3L605.2,29.3z
	 M527.3,29.1c0.2,0.1-0.2,0.2-0.3,0.1S527.3,29.1,527.3,29.1z M496.4,28.1c-0.2,0-0.3-0.1-0.6-0.1C495.8,27.7,497.2,27.9,496.4,28.1
	L496.4,28.1z M604.7,27.1c2.5,0.2,6.5-0.6,8.9,0c-0.2,0.4-0.9-0.2-1.4,0.1h-2.9c-0.3,0-0.5,0-0.6,0.1h-1.4c-0.3-0.1-0.5-0.1-0.6,0
	C606,27.2,604.4,27.5,604.7,27.1z M594.9,23c0,0.1-0.5,0.1-0.9,0.1C594.1,23,594.6,23,594.9,23z M593.5,21.8
	c0.2,0.1-0.2,0.1-0.3,0.1S593.4,21.7,593.5,21.8L593.5,21.8z M607.8,20.3c0.2,0.1-0.2,0.1-0.3,0.1S607.7,20.3,607.8,20.3L607.8,20.3
	z M34,19.6c0,0.1-0.5,0.1-0.9,0.1C33.2,19.6,33.6,19.6,34,19.6z M587.2,18.9c0.9,0,1.7,0,2.6-0.1c0.1,0.3-1.1,0.1-1.2,0.4
	C588.1,19.1,586.9,19.3,587.2,18.9z M28.8,17.9c-0.6,0.3-2.4,0-3.4,0.1c-0.3-0.4,1.1-0.2,1.7-0.2C27.7,17.7,28.3,17.8,28.8,17.9
	L28.8,17.9z M32.3,16.7c0.1,0.1-0.2,0.1-0.3,0.1C31.9,16.8,32.2,16.7,32.3,16.7L32.3,16.7z M587.5,16.2c0.6-0.3,2.3-0.1,3.2-0.4h1.4
	c0.7-0.2,2.2,0,2.9-0.2c0.8,0.1,1.5,0.1,2.3,0c-0.7,0.4-2.7,0.2-3.7,0.5C591.2,16.1,589.6,16.3,587.5,16.2L587.5,16.2z M598.4,15.5
	c0,0.1-0.5,0.1-0.9,0.1C597.5,15.5,598,15.6,598.4,15.5L598.4,15.5z M589.5,13.2c0,0.1-0.3,0.1-0.6,0.1
	C588.9,13.3,589.2,13.3,589.5,13.2L589.5,13.2z M606.9,12c0.1,0.1-0.2,0.1-0.3,0.1S606.9,11.9,606.9,12z M568.2,11.6h-1.1
	c0-0.1,0.5-0.1,0.9-0.1C569,11.4,569.6,11.7,568.2,11.6L568.2,11.6z M44.3,11.1c0.1-0.4,1.4-0.2,2.3-0.2c0.4,0,0.8,0,0.9-0.1
	c0.5,0,0.6,0.1,1.2,0.1c0.9,0.1,0.5-0.3,1.4-0.2c0,0.2,0.8,0.1,0.6,0.5C47.9,11.1,46.6,11.2,44.3,11.1z M229.5,9.7
	c0,0.1-0.4,0.1-0.6,0.1h-1.7c0.1-0.2,0.7-0.1,1.1-0.1H229.5z M225.8,9.7c0,0.1-0.5,0.1-0.9,0.1h-1.1c0-0.1,0.5-0.1,0.9-0.1H225.8z
	 M221.5,9.8c-0.3-0.4,0.6-0.2,1.1-0.2C222.3,9.8,221.9,9.8,221.5,9.8L221.5,9.8z M233,9.6c0,0.1-0.4,0.1-0.6,0.1
	C232.4,9.6,232.8,9.6,233,9.6z M230.4,9.7h-0.6C229.8,9.3,232,9.7,230.4,9.7L230.4,9.7z M220.1,9.6c0,0.3-1,0.1-1.4,0.1h-1.8
	c0-0.1,0.4-0.1,0.6-0.1H220.1L220.1,9.6z M399.1,9.2c0,0.3-1,0.1-1.4,0.1h-1.8c-2.7,0-7,0-9.5,0c-1.4,0-3.8,0-2.3-0.1s3.5,0.1,5.7,0
	h3.1c1.4,0,1.5-0.1,3.4-0.1C397.6,9,397.9,9.3,399.1,9.2L399.1,9.2z M166,9.1h-0.6C165.3,8.7,167.5,9.1,166,9.1z M162.8,9
	c0.1,0.1-0.2,0.1-0.3,0.1S162.8,8.9,162.8,9L162.8,9z M160.3,9c0,0.1-0.5,0.1-0.9,0.1C159.4,8.9,159.9,9,160.3,9L160.3,9z
	 M437.7,8.9c0,0.1-0.4,0.1-0.6,0.1h-2c0.1-0.2,0.7-0.1,1.1-0.1H437.7z M156.5,8.9c0,0.1-0.4,0.1-0.6,0.1
	C156,8.8,156.3,8.9,156.5,8.9L156.5,8.9z M153.7,8.9c0.1,0.1-0.2,0.2-0.3,0.1C153.3,8.9,153.6,8.8,153.7,8.9L153.7,8.9z M149.7,9
	c0-0.3,0.7-0.3,1.4-0.2C151,9,150.4,9,149.7,9L149.7,9z M149.1,8.9c-0.1,0.1-0.3,0.1-0.3,0S149.1,8.8,149.1,8.9L149.1,8.9z
	 M144.8,8.9c0-0.3,1-0.1,1.4-0.1C146.2,9,145.1,9,144.8,8.9L144.8,8.9z M140.8,8.9c0,0.1-0.4,0.1-0.6,0.1
	C140.2,8.8,140.5,8.9,140.8,8.9L140.8,8.9z M138.5,9c0-0.3,0.7-0.3,1.4-0.2C140.2,9.1,139,8.9,138.5,9L138.5,9z M131.3,8.9h-1.4
	c-0.5,0-0.6-0.1-0.3-0.1c2.9,0,5,0.2,6.3,0c0.5,0,0.6,0.1,0.3,0.1C134.6,9,132.9,9,131.3,8.9L131.3,8.9z M535.3,8.7
	c-0.1,0.2-0.6,0.1-0.6,0C534.7,8.6,535,8.7,535.3,8.7L535.3,8.7z M155.1,8.7c0.1,0.1-0.2,0.2-0.3,0.1S155,8.7,155.1,8.7L155.1,8.7z
	 M151.6,8.7c0.1,0.1-0.2,0.2-0.3,0.1S151.6,8.7,151.6,8.7L151.6,8.7z M147.6,8.7c0,0.1-0.5,0.1-0.9,0.1
	C146.8,8.7,147.3,8.7,147.6,8.7L147.6,8.7z M141.6,8.7c0.1,0.1-0.2,0.2-0.3,0.1S141.6,8.7,141.6,8.7L141.6,8.7z M538.2,8.6
	c0,0.1-0.3,0.1-0.6,0.1H537C537.2,8.6,537.8,8.6,538.2,8.6z M169.1,8.5c0.1,0.1-0.2,0.2-0.3,0.1S169,8.4,169.1,8.5z M165.1,8.4
	c0.1,0.1-0.2,0.2-0.3,0.1C164.7,8.4,165,8.3,165.1,8.4L165.1,8.4z M156.5,8.4c0.1,0.1-0.2,0.2-0.3,0.1
	C156.1,8.4,156.5,8.3,156.5,8.4L156.5,8.4z M133.9,8.4c0.1,0.1-0.2,0.2-0.3,0.1C133.5,8.4,133.8,8.3,133.9,8.4z M470.6,8.4H470
	C470,8,472.2,8.4,470.6,8.4L470.6,8.4z M468.6,8.2c0.1,0.1-0.2,0.2-0.3,0.1S468.6,8.2,468.6,8.2L468.6,8.2z M467.8,8.2
	c0.1,0.1-0.2,0.2-0.3,0.1S467.7,8.2,467.8,8.2L467.8,8.2z M509.9,8.1c0,0.1-0.4,0.1-0.6,0.1h-0.9c0-0.1,0.4-0.1,0.6-0.1H509.9z
	 M480.1,8.1c0,0.1-0.4,0.1-0.6,0.1C479.5,8.1,479.9,8.1,480.1,8.1z M478.9,8.1c0,0.1-0.5,0.1-0.9,0.1C478.1,8.1,478.6,8.1,478.9,8.1
	z M44.9,8.1c0.2,0.1-0.2,0.2-0.3,0.1C44.5,8.1,44.8,8.1,44.9,8.1z M68.1,8.1c-0.3-0.4,0.6-0.2,1.1-0.2C68.9,8.1,68.5,8.1,68.1,8.1
	L68.1,8.1z M522.8,7.9c0,0.1-0.3,0.1-0.6,0.1h-0.6C521.7,7.8,522.3,7.9,522.8,7.9L522.8,7.9z M478.7,7.6c-0.1-0.2,1.6-0.2,1.1,0.1
	h0.9c-0.3,0.4-0.5,0.1-1.4,0.1C479.3,7.7,479,7.7,478.7,7.6L478.7,7.6z M472.4,7.7c0.3-0.3,1.8,0,2.6-0.1c0.9-0.1,1.9-0.2,2.9-0.1
	c-0.5,0.6-3.2,0.4-4.3,0.2v0.1h0.3C473.3,8.3,473,7.7,472.4,7.7L472.4,7.7z M472.7,7.9c0,0.1-0.5,0.1-0.9,0.1
	C471.8,7.9,472.3,7.9,472.7,7.9L472.7,7.9z M69.5,8c-0.1-0.2,0.4-0.2,0.9-0.2s1.1-0.1,1.1,0.1c0.6-0.1,1.1-0.2,1.7-0.1
	c0.7,0.1,0.6-0.2,1.4-0.1C73.4,8.1,70.9,7.8,69.5,8z M521,7.9c-0.3-0.1-0.3-0.3-0.9-0.2c0-0.3,1.2-0.1,1.7-0.1
	C522,7.8,521.1,7.7,521,7.9z M481.5,7.8c0,0.1-0.4,0.1-0.6,0.1C481,7.8,481.3,7.8,481.5,7.8L481.5,7.8z M471.5,7.8
	c0,0.1-0.4,0.1-0.6,0.1C470.9,7.8,471.3,7.8,471.5,7.8L471.5,7.8z M470.7,7.8c0,0.1-0.5,0.1-0.9,0.1C469.8,7.7,470.3,7.8,470.7,7.8
	L470.7,7.8z M468.7,7.8c0,0.1-0.3,0.1-0.3,0S468.6,7.7,468.7,7.8L468.7,7.8z M467.8,7.8c-0.1,0.2-0.6,0.1-0.6,0S467.5,7.8,467.8,7.8
	L467.8,7.8z M466.7,7.9c-0.5,0-0.5-0.1-0.9-0.1C465.7,7.5,467.1,7.6,466.7,7.9L466.7,7.9z M524.2,7.6c0.2,0.1-0.2,0.2-0.3,0.1
	S524.1,7.6,524.2,7.6L524.2,7.6z M491.6,7.6c0,0.1-0.5,0.1-0.9,0.1h-0.8c0-0.1,0.5-0.1,0.9-0.1H491.6z M465.2,7.6
	c0.1,0.1-0.2,0.2-0.3,0.1S465.1,7.6,465.2,7.6L465.2,7.6z M463.5,7.6c0,0.1-0.4,0.1-0.6,0.1C462.9,7.6,463.3,7.7,463.5,7.6
	L463.5,7.6z M252.8,7.6c-0.1,0.2-0.3,0-0.3-0.1C253,7.5,253,7.6,252.8,7.6L252.8,7.6z M517.9,7.5c0,0.1-0.3,0.1-0.6,0.1
	C517.3,7.5,517.7,7.5,517.9,7.5z M508.7,7.6c-0.2,0-0.3-0.1-0.6-0.1C508.1,7.3,509.5,7.4,508.7,7.6L508.7,7.6z M472.1,7.5
	c0.1,0.1-0.2,0.2-0.3,0.1S472,7.5,472.1,7.5L472.1,7.5z M469.8,7.5c0,0.1-0.5,0.1-0.9,0.1C469,7.5,469.4,7.5,469.8,7.5L469.8,7.5z
	 M254.5,7.5c0,0.1-0.4,0.1-0.6,0.1C253.9,7.5,254.2,7.5,254.5,7.5L254.5,7.5z M527.3,7.4c0.2,0.1-0.2,0.2-0.3,0.1
	S527.3,7.4,527.3,7.4z M516.2,7.4c0,0.1-0.3,0.1-0.6,0.1h-0.9c0-0.1,0.3-0.1,0.6-0.1H516.2z M470.1,7.2c0,0.1-0.5,0.1-0.9,0.1
	C469.3,7.1,469.7,7.2,470.1,7.2z M467.8,7.2c0.1,0.1-0.2,0.2-0.3,0.1S467.7,7.1,467.8,7.2z M456.3,7.2
	C456.4,6.8,457.5,7.3,456.3,7.2C456.4,7.3,455.9,7.2,456.3,7.2z M462.3,7.2c0.1-0.4,1.4-0.2,2.3-0.2c0.5,0,2.6-0.1,1.7,0.1
	C465,7.2,464.2,7.1,462.3,7.2L462.3,7.2z M108.4,7c0,0.1-0.3,0.1-0.6,0.1C107.9,7,108.2,7.1,108.4,7z M222.7,6.8
	c0.1,0.1-0.2,0.2-0.3,0.1S222.6,6.8,222.7,6.8z M91.8,6.7c0.2,0.1-0.2,0.2-0.3,0.1S91.7,6.7,91.8,6.7z M66.9,6.6
	c0.2,0.1-0.2,0.2-0.3,0.1S66.8,6.5,66.9,6.6z M224.7,6.3c0.1,0.1-0.2,0.2-0.3,0.1S224.6,6.3,224.7,6.3z M217,6.3
	c-0.1,0.2-0.6,0.1-0.6,0S216.6,6.3,217,6.3L217,6.3z M76.7,6.3c0,0.1-0.3,0.1-0.6,0.1C76.1,6.3,76.4,6.3,76.7,6.3L76.7,6.3z
	 M71.2,6.3c0.2,0.1-0.2,0.2-0.3,0.1S71.1,6.3,71.2,6.3L71.2,6.3z M234.1,6.2c0.1,0.1-0.2,0.2-0.3,0.1S234,6.2,234.1,6.2z M231.8,6.2
	c0.1,0.1-0.2,0.2-0.3,0.1S231.8,6.2,231.8,6.2L231.8,6.2z M230.4,6.2C229.5,6.2,230.7,5.7,230.4,6.2C230.8,6.2,230.6,6.4,230.4,6.2
	L230.4,6.2z M74.9,6.3h-0.6c-0.1-0.2,0.4-0.2,0.9-0.2C75.1,6.2,74.9,6.2,74.9,6.3z M525.6,6.1c0,0.1-0.3,0.1-0.6,0.1
	C525.1,6.1,525.4,6.1,525.6,6.1z M238.7,6.1C239.6,5.7,239.7,6.5,238.7,6.1z M233,6.1c0,0.1-0.5,0.1-0.9,0.1
	C232.2,6.1,232.6,6.1,233,6.1z M241,6C241,5.8,241.4,5.9,241,6C240.9,6.3,239.8,5.9,241,6L241,6z M229.8,6c-0.1,0.1-0.3,0.1-0.3,0
	S229.8,5.9,229.8,6L229.8,6z M227.2,6c-0.1,0.2-0.6,0.1-0.6,0S226.9,6,227.2,6L227.2,6z M219.5,6c0.1,0.1-0.2,0.2-0.3,0.1
	S219.4,5.9,219.5,6L219.5,6z M102.4,5.4c0.2,0.4,0.2,0.2,0,0.6c-1-0.1-1.5,0.2-2,0c0-0.2,0-0.4,0.6-0.4
	C100.1,5.3,101.7,5.4,102.4,5.4L102.4,5.4z M90.4,6c0.2,0-0.2,0.1-0.3,0.1S90.3,5.9,90.4,6L90.4,6z M81.8,6c0.2,0-0.2,0.1-0.3,0.1
	S81.7,5.9,81.8,6L81.8,6z M234.4,6h-0.5C233.8,5.6,236,6,234.4,6L234.4,6z M232.7,6c-0.6-0.1-2,0.2-1.7-0.2c0.4,0.1,0.8,0.1,1.1,0.1
	c0.3-0.1,0.3-0.3,0.9-0.2C232.8,5.7,232.7,5.8,232.7,6L232.7,6z M218.7,5.9c0.1,0.1-0.2,0.2-0.3,0.1S218.6,5.8,218.7,5.9L218.7,5.9z
	 M217.3,5.9c0.1,0.1-0.2,0.2-0.3,0.1S217.1,5.8,217.3,5.9L217.3,5.9z M106.2,5.9c-0.6,0.3-1.8-0.1-0.6-0.1V5.4c0.7,0,0.7,0.3,0,0.4
	C105.6,5.8,105.8,5.9,106.2,5.9L106.2,5.9z M96.2,5.6c0-0.3,0.7-0.3,1.4-0.2c-0.1,0.1-0.7,0.5,0,0.5c-0.3,0.4-0.8-0.1-1.1-0.1
	c0,0.1-0.4,0.1,0,0C96.4,5.7,96.3,5.6,96.2,5.6L96.2,5.6z M93.6,5.9C93.7,6,93.4,6.1,93.3,6S93.5,5.8,93.6,5.9L93.6,5.9z M74.7,6
	c-0.6,0.1-0.6-0.2-0.6-0.4c0.2,0,0.3,0.1,0.6,0.1V6z M111.4,5.9h-0.9V5.5h0.9V5.9z M107.9,5.9c-0.8-0.1,0-0.6,0.9-0.5v0.4
	c-0.5,0-0.5-0.1-0.9-0.1V5.9z M103.6,5.9V5.5c-0.2,0-0.3,0-0.3,0.1c-1-0.4,1.8-0.5,1.4,0.1C104.2,5.7,104.1,5.9,103.6,5.9L103.6,5.9
	z M99.1,5.9h-1.2c0.5-0.2,0-0.2,0-0.5c0.7,0,0.6,0.2,1.4,0.1C99.1,5.6,99,5.7,99.1,5.9L99.1,5.9z M95.1,5.7
	C95.9,5.3,96.1,6.1,95.1,5.7z M91.9,5.7c0.2,0.1-0.2,0.2-0.3,0.1S91.7,5.7,91.9,5.7L91.9,5.7z M89.6,5.7c0.1,0.1-0.2,0.2-0.3,0.1
	S89.4,5.7,89.6,5.7L89.6,5.7z M87.3,5.7c0.2,0.1-0.2,0.2-0.3,0.1S87.1,5.7,87.3,5.7L87.3,5.7z M111.9,5.7c-0.9,0,0.5-0.6,0.6-0.2
	c0.2,0,0.3,0,0.3-0.1c0.2,0,0.3,0.1,0.6,0.1s0.3,0,0.3-0.1C114.8,5.8,111.9,5.4,111.9,5.7L111.9,5.7z M92.7,5.6
	c0-0.2,0.4-0.2,0.3-0.4C93.5,5.2,93.4,5.8,92.7,5.6C92.7,5.8,92.3,5.7,92.7,5.6z M348.7,5.5c0.1,0.1-0.2,0.2-0.3,0.1
	S348.6,5.4,348.7,5.5L348.7,5.5z M239.9,5.6h-0.6V5.4h0.6V5.6z M235.6,5.5c0,0.1-0.4,0.1-0.6,0.1C235,5.5,235.3,5.5,235.6,5.5
	L235.6,5.5z M219.8,5.6h-0.6V5.4h0.6V5.6z M109.9,5.5c0,0.1-0.5,0.1-0.9,0.1C109,5.5,109.5,5.5,109.9,5.5z M99.9,5.5
	c0.2,0.1-0.2,0.2-0.3,0.1S99.7,5.4,99.9,5.5L99.9,5.5z M91,5.6c-0.6-0.1-0.4-0.7,0.6-0.5C91.5,5.4,90.7,5.3,91,5.6L91,5.6z
	 M79.2,5.5c0.1,0.1-0.2,0.2-0.3,0.1S79.1,5.4,79.2,5.5z M217.8,5.4c0.1,0.1-0.2,0.2-0.3,0.1S217.7,5.3,217.8,5.4z M216.4,5.4
	c0.1,0.1-0.2,0.2-0.3,0.1S216.3,5.3,216.4,5.4L216.4,5.4z M94.1,5.5c0.4-0.2,0.8-0.3,1.2-0.2C95.2,5.5,94.8,5.5,94.1,5.5z M92.4,5.5
	h-0.6V5.2h0.6V5.5z M241.3,5.2c0,0.1-0.4,0.1-0.6,0.1C240.7,5.3,241.1,5.3,241.3,5.2L241.3,5.2z M221.8,5.2c0,0.1-0.4,0.1-0.6,0.1
	C221.3,5.3,221.6,5.3,221.8,5.2L221.8,5.2z M498.7,5c0.1,0.1-0.2,0.2-0.3,0.1S498.6,5,498.7,5z M140.5,5.1c-1-0.2,0.4-0.3,0.6-0.2
	C141.3,5,140.3,5,140.5,5.1z M478.1,4.9c0,0.1-0.4,0.1-0.6,0.1h-6c0-0.3,1,0,1.4-0.1H478.1L478.1,4.9z M470.9,5
	c-0.3-0.3-2.5,0.2-2.3-0.4c0.8,0,2,0.3,2.3-0.1c0.3,0,0.2,0.2,0.3,0.4C471,4.9,470.9,4.9,470.9,5z M195.5,4.9
	c0.1,0.1-0.2,0.2-0.3,0.1C195.1,4.9,195.4,4.9,195.5,4.9z M189.5,4.9C190.3,4.4,190.5,5.2,189.5,4.9z M162,4.9
	c0,0.1-0.4,0.1-0.6,0.1C161.4,4.9,161.7,4.9,162,4.9L162,4.9z M151.1,4.9c-0.1,0.1-0.3,0.1-0.3,0S151.1,4.8,151.1,4.9L151.1,4.9z
	 M139.1,5h-0.9c-0.2-0.4,0.9-0.4,1.7-0.4C140,4.9,138.6,4.6,139.1,5L139.1,5z M134.8,5h-0.6C134.1,4.7,136.3,5,134.8,5L134.8,5z
	 M133.1,4.9C131.6,5,132.7,4.5,133.1,4.9C134.2,4.8,133.1,5.2,133.1,4.9L133.1,4.9z M128.8,4.9c0.2,0.1-0.2,0.2-0.3,0.1
	S128.7,4.9,128.8,4.9L128.8,4.9z M167.4,4.8c0.1,0.1-0.2,0.2-0.3,0.1C167,4.8,167.3,4.7,167.4,4.8L167.4,4.8z M166,4.8
	c0,0.3-1,0-1.4,0.1C164.8,4.5,165.1,4.8,166,4.8L166,4.8z M164.3,4.8c0.1,0.1-0.2,0.2-0.3,0.1S164.2,4.7,164.3,4.8L164.3,4.8z
	 M143.7,4.9c-1-0.2,0.4-0.3,0.6-0.2S143.5,4.8,143.7,4.9L143.7,4.9z M141.7,4.6C141.7,4.3,142.9,4.8,141.7,4.6
	C142.6,5,140.6,4.9,141.7,4.6L141.7,4.6z M137.9,4.8c0.1,0.1-0.2,0.2-0.3,0.1C137.5,4.8,137.8,4.7,137.9,4.8z M130.7,4.8
	c0,0.1-0.5,0.1-0.9,0.1C129.9,4.7,130.4,4.8,130.7,4.8L130.7,4.8z M127.6,4.8c0,0.1-0.3,0.1-0.6,0.1C127,4.8,127.4,4.8,127.6,4.8
	L127.6,4.8z M126.2,4.8c-0.1,0.2-0.7,0.1-1.2,0.1c0-0.1-0.1-0.2-0.3-0.2C125.3,4.2,125.5,4.9,126.2,4.8L126.2,4.8z M472.1,4.6
	c0.1,0.1-0.2,0.2-0.3,0.1S472,4.6,472.1,4.6L472.1,4.6z M149.4,4.6c0.1,0.1-0.2,0.2-0.3,0.1S149.3,4.6,149.4,4.6L149.4,4.6z
	 M136.8,4.6c0,0.1-0.4,0.1-0.6,0.1C136.2,4.6,136.5,4.7,136.8,4.6L136.8,4.6z M135.3,4.6c-0.1,0.1-0.3,0.1-0.3,0
	S135.3,4.6,135.3,4.6L135.3,4.6z M122.4,4.8c-0.5,0-1,0-1.4-0.1C121.1,4.3,122.6,4.4,122.4,4.8L122.4,4.8z M120.1,4.6
	c-1,0.6-1.5-0.6-0.3-0.1C120,4.6,119.9,4.7,120.1,4.6L120.1,4.6z M115.3,4.6C116,4.2,117.1,4.9,115.3,4.6z M470.3,4.5
	c0.1,0.1-0.2,0.2-0.3,0.1S470.3,4.5,470.3,4.5L470.3,4.5z M185.7,4.5c0.1,0.1-0.2,0.2-0.3,0.1S185.7,4.5,185.7,4.5L185.7,4.5z
	 M140.2,4.5C141.1,4.1,141.2,4.9,140.2,4.5z M136.5,4.5c0-0.3,1-0.1,1.4-0.1C137.7,4.8,137.1,4.6,136.5,4.5L136.5,4.5z M123.9,4.5
	c0.2,0.1-0.2,0.2-0.3,0.1S123.8,4.5,123.9,4.5L123.9,4.5z M117.9,4.5c0.1,0.1-0.2,0.2-0.3,0.1S117.8,4.5,117.9,4.5L117.9,4.5z
	 M168.3,4.4c0.1,0.1-0.2,0.2-0.3,0.1S168.2,4.4,168.3,4.4L168.3,4.4z M155.9,4.4c0.1,0.1-0.2,0.2-0.3,0.1
	C155.5,4.4,155.9,4.4,155.9,4.4L155.9,4.4z M133,4.5h-0.6V4.3h0.6V4.5z M165.4,4.3c0.1,0.1-0.2,0.2-0.3,0.1
	C165,4.3,165.3,4.3,165.4,4.3L165.4,4.3z M124.4,4.3c0.2,0.1-0.2,0.2-0.3,0.1C124,4.3,124.4,4.3,124.4,4.3L124.4,4.3z M348.7,4.2
	c0.1,0.1-0.2,0.2-0.3,0.1S348.6,4.1,348.7,4.2L348.7,4.2z M421.1,3.9c0.1,0.1-0.2,0.2-0.3,0.1S421,3.9,421.1,3.9L421.1,3.9z"/>
<path class="st0" d="M93.1,46.9c0,0.3-1,0-1.4,0.1C91.6,46.8,92.7,47,93.1,46.9z"/>
<path class="st0" d="M245.4,46.7c0,0.1-0.5,0.1-0.9,0.1C244.6,46.7,245.1,46.7,245.4,46.7z"/>
<path class="st0" d="M237.1,46.8c-1.2,0-0.1-0.2,0.6-0.1h1.7c1.4-0.1,3.3,0.2,3.7,0s0.3,0.1,0,0.1C241.7,47,238.9,46.6,237.1,46.8z"
	/>
<path class="st0" d="M235.1,46.7c0,0.1-0.5,0.1-0.9,0.1C234.3,46.7,234.8,46.7,235.1,46.7z"/>
<path class="st0" d="M264.6,46.6c-0.1,0.3-1.4,0-2,0.1C262.7,46.4,264,46.6,264.6,46.6z"/>
<path class="st0" d="M262,46.6c0,0.1-0.5,0.1-0.9,0.1H260c0-0.1,0.5-0.1,0.9-0.1H262z"/>
<path class="st0" d="M259.7,46.6c0,0.1-0.5,0.1-0.9,0.1C258.9,46.5,259.4,46.6,259.7,46.6z"/>
<path class="st0" d="M258,46.6c0,0.1-0.4,0.1-0.6,0.1h-4.9c0.1-0.2,0.7-0.1,1.1-0.1H258z"/>
<path class="st0" d="M251.7,46.6c0,0.1-0.4,0.1-0.6,0.1h-4.3c0.1-0.2,0.7-0.1,1.1-0.1H251.7z"/>
<path class="st0" d="M246.5,46.6c0,0.1-0.5,0.1-0.9,0.1C245.7,46.5,246.2,46.6,246.5,46.6z"/>
<path class="st0" d="M272,46.4c0.3-0.3,1.8,0,2.6-0.1c1.1,0.2-1.4,0-1.1,0.2C272.9,46.6,272.5,46.6,272,46.4z"/>
<path class="st0" d="M264.6,46.6c0.2-0.3,1.6,0,2.3-0.1c1.5-0.1,3.1-0.2,4.6-0.1c-0.2,0.2-0.5,0.2-0.9,0.1c0,0.3-1.2,0-1.7,0.1
	H264.6z"/>
<path class="st0" d="M146.9,46.4c0.1,0.1-0.2,0.2-0.3,0.1S146.8,46.4,146.9,46.4z"/>
<path class="st0" d="M368,46.1c1.2-0.2,2.5-0.2,3.7,0c0.5,0,1.1,0.1,1.1-0.1c0.2,0.1,0.8,0.2,0.9,0c1.2,0.2,2.5,0.2,3.7,0.1
	c1.3,0.1,2.7,0.2,4,0.1c-0.3,0.2-1.5,0.1-2,0.2h-2.3C373.8,46.2,370.9,46.2,368,46.1z"/>
<path class="st0" d="M280,46.3C279.9,46.7,278.8,46.2,280,46.3z"/>
<path class="st0" d="M277.2,46.4h-1.7c0.1-0.2,0.7-0.1,1.1-0.1C277.2,46.2,278.4,46.4,277.2,46.4z"/>
<path class="st0" d="M280,46.3c0.7-0.4,1.2-0.1,2.3-0.2c1.4,0.1,2.2-0.1,3.4-0.1c2.7,0.1,4.7-0.1,7.2-0.1c4.6-0.1,9.8,0,14.3-0.2
	c2.9,0.1,3.8,0,6.9,0c1.2,0.1,2.5,0,3.7-0.1c-0.1,0.5,0.6,0.1,1.1,0.1c0.6,0.1,1.1,0.2,1.7,0.1c1.5,0.1,6.3-0.5,7.2,0
	c0.1,0.1,0.3-0.1,0.3-0.1c0.4,0,0.8,0,1.1,0s1.9-0.2,1.7,0.2c-0.5,0-1,0-1.4,0c-0.3,0-0.2-0.1-0.3-0.1c-0.2,0-0.4,0-0.6,0.1
	c-0.5,0-1,0-1.4,0c-0.6-0.1-1.1-0.1-1.7,0c-0.8,0-1.5,0-2.3,0c-5.2,0-10.5,0.1-15.2-0.1c-1.6-0.1-1.7,0.4-2.9,0.1
	c-0.9,0.1-2-0.1-3.4,0c-2.3,0.2-5.1,0.1-6.9,0.2C290.8,46.2,285.2,46.3,280,46.3z"/>
<path class="st0" d="M387.1,46.1c0,0.1-0.5,0.1-0.9,0.1C386.3,46.1,386.8,46.1,387.1,46.1z"/>
<path class="st0" d="M267.4,46.1c0.1,0.1-0.2,0.2-0.3,0.1S267.4,46,267.4,46.1z"/>
<path class="st0" d="M266.3,46.1c0.1,0.1-0.2,0.2-0.3,0.1S266.2,46,266.3,46.1z"/>
<path class="st0" d="M264.3,46.1c0,0.1-0.5,0.1-0.9,0.1h-0.9c0-0.1,0.5-0.1,0.9-0.1H264.3z"/>
<path class="st0" d="M365.1,46.1c-1.1-0.5,1.5,0,1.4-0.2C367.6,46.3,365,45.8,365.1,46.1z"/>
<path class="st0" d="M353.6,46c0,0.1-0.4,0.1-0.6,0.1C353.1,46,353.4,46,353.6,46z"/>
<path class="st0" d="M347.6,46c0.1,0.1-0.2,0.2-0.3,0.1S347.5,45.9,347.6,46z"/>
<path class="st0" d="M259.4,46c0,0.1-0.4,0.1-0.6,0.1C258.9,46,259.2,46,259.4,46z"/>
<path class="st0" d="M382.5,45.8c0,0.1-0.4,0.1-0.6,0.1C382,45.8,382.3,45.9,382.5,45.8z"/>
<path class="st0" d="M364.2,45.8c-0.1,0.2-0.9,0.2-0.9,0c-0.8,0-0.6,0.2-1.1,0C362.6,45.5,363.7,45.8,364.2,45.8z"/>
<path class="st0" d="M340.2,45.8c0.1,0.1-0.2,0.2-0.3,0.1S340.1,45.8,340.2,45.8z"/>
<path class="st0" d="M386,45.7c0,0.1-0.4,0.1-0.6,0.1C385.4,45.7,385.8,45.8,386,45.7z"/>
<path class="st0" d="M361.9,45.7c0.1,0.1-0.2,0.2-0.3,0.1S361.9,45.7,361.9,45.7z"/>
<path class="st0" d="M361.1,45.7c-0.1,0.3-1.4,0-2,0.1c-0.4,0-0.8,0-0.9-0.1c-0.2,0.1-0.5,0.1-0.6,0c-1.5,0.1-2.9-0.2-3.7,0
	c-1.2-0.2-2.1,0-3.7-0.1c-4,0.1-7.1-0.2-11.2-0.1c-2.9-0.2-4.7-0.1-7.4-0.2c0.2-0.4,0.7,0,1.7-0.1h2.6c0.2,0.3,1.6,0,2.3,0.1
	c1-0.1,1.1,0.2,2,0.1c7.5,0,12.3,0.1,20,0.2C360.3,45.7,360.7,45.7,361.1,45.7z"/>
<path class="st0" d="M335.3,45.7c-0.1,0.3-1.4,0-2,0.1s-1.9,0.2-2-0.1C333,45.8,334.3,45.5,335.3,45.7z"/>
<path class="st0" d="M299.2,45.5c2.2-0.2,4.4-0.2,6.6-0.1c-0.1,0.3-1.4,0-2,0.1h-2.6C300.5,45.6,299.9,45.6,299.2,45.5L299.2,45.5z"
	/>
<path class="st0" d="M508,45.4c0,0.1-0.4,0.1-0.6,0.1C507.4,45.4,507.8,45.4,508,45.4z"/>
<path class="st0" d="M494.8,45.5h-0.6C494.2,45.1,496.4,45.5,494.8,45.5z"/>
<path class="st0" d="M488.5,45.4c0.1,0.1-0.2,0.2-0.3,0.1S488.4,45.3,488.5,45.4z"/>
<path class="st0" d="M483.6,45.4c0.1,0.1-0.2,0.2-0.3,0.1S483.6,45.3,483.6,45.4z"/>
<path class="st0" d="M479.3,45.4c0,0.1-0.4,0.1-0.6,0.1C478.8,45.4,479.1,45.4,479.3,45.4z"/>
<path class="st0" d="M477,45.4c0.1,0.1-0.2,0.2-0.3,0.1S477,45.3,477,45.4z"/>
<path class="st0" d="M475.3,45.5h-0.6C474.7,45.1,476.9,45.5,475.3,45.5z"/>
<path class="st0" d="M473.6,45.4c0,0.1-0.4,0.1-0.6,0.1h-0.9c0-0.1,0.4-0.1,0.6-0.1H473.6z"/>
<path class="st0" d="M306.4,45.4c0.1,0.1-0.2,0.2-0.3,0.1S306.3,45.3,306.4,45.4z"/>
<path class="st0" d="M507.1,45.2c0.1,0.1-0.2,0.2-0.3,0.1S507,45.2,507.1,45.2z"/>
<path class="st0" d="M428.7,45.2c0,0.1-0.5,0.1-0.9,0.1h-2.9c0-0.1,0.5-0.1,0.9-0.1H428.7z"/>
<path class="st0" d="M424.4,45.2c0,0.1-0.5,0.1-0.9,0.1C423.5,45.2,424,45.3,424.4,45.2z"/>
<path class="st0" d="M422.6,45.2c0,0.1-0.4,0.1-0.6,0.1C422.1,45.2,422.4,45.3,422.6,45.2z"/>
<path class="st0" d="M326.4,45.2c0,0.1-0.4,0.1-0.6,0.1h-2c0.1-0.2,0.7-0.1,1.1-0.1H326.4z"/>
<path class="st0" d="M323.3,45.2c0.1,0.1-0.2,0.2-0.3,0.1S323.2,45.2,323.3,45.2z"/>
<path class="st0" d="M321.9,45.2c0.1,0.1-0.2,0.2-0.3,0.1S321.8,45.2,321.9,45.2z"/>
<path class="st0" d="M309.2,45.2c0.1,0.1-0.2,0.2-0.3,0.1S309.2,45.2,309.2,45.2z"/>
<path class="st0" d="M107.4,45.2c0,0.1-0.3,0.1-0.6,0.1C106.8,45.2,107.2,45.3,107.4,45.2z"/>
<path class="st0" d="M433.2,45.1c0.1,0.1-0.2,0.2-0.3,0.1S433.2,45.1,433.2,45.1z"/>
<path class="st0" d="M327.6,45.1c0,0.1-0.5,0.1-0.9,0.1C326.8,45.1,327.2,45.1,327.6,45.1z"/>
<path class="st0" d="M407.8,45c0,0.1-0.5,0.1-0.9,0.1H406c0-0.1,0.5-0.1,0.9-0.1H407.8z"/>
<path class="st0" d="M405.5,45c0,0.1-0.5,0.1-0.9,0.1C404.6,45,405.1,45,405.5,45z"/>
<path class="st0" d="M331,45c0.1,0.1-0.2,0.2-0.3,0.1S330.9,45,331,45z"/>
<path class="st0" d="M367.1,44.9c0,0.1-0.5,0.1-0.9,0.1h-0.9c0-0.1,0.5-0.1,0.9-0.1H367.1z"/>
<path class="st0" d="M415.5,44.8c0.1,0.1-0.2,0.2-0.3,0.1S415.4,44.7,415.5,44.8z"/>
<path class="st0" d="M527.2,44.6c0,0.1-0.5,0.1-0.9,0.1C526.3,44.6,526.8,44.7,527.2,44.6z"/>
<path class="st0" d="M523.2,44.6c0,0.1-0.5,0.1-0.9,0.1C522.3,44.6,522.8,44.7,523.2,44.6z"/>
<path class="st0" d="M522,44.6c0,0.1-0.5,0.1-0.9,0.1h-0.9c0-0.1,0.5-0.1,0.9-0.1H522z"/>
<path class="st0" d="M519.7,44.6c0,0.1-0.5,0.1-0.9,0.1C518.9,44.6,519.4,44.7,519.7,44.6z"/>
<path class="st0" d="M418.6,44.6c0,0.1-0.5,0.1-0.9,0.1h-0.9c0-0.1,0.5-0.1,0.9-0.1H418.6z"/>
<path class="st0" d="M323.6,44.6c0,0.1-0.5,0.1-0.9,0.1C322.8,44.6,323.2,44.7,323.6,44.6z"/>
<path class="st0" d="M423.8,44.5c0,0.1-0.4,0.1-0.6,0.1C423.2,44.5,423.6,44.5,423.8,44.5z"/>
<path class="st0" d="M422.6,44.5c0,0.1-0.4,0.1-0.6,0.1h-2c0.1-0.2,0.7-0.1,1.1-0.1H422.6z"/>
<path class="st0" d="M333,44.6c0.3-0.5,2.5-0.2,3.7-0.2c1.1-0.1,2.3-0.1,3.4-0.1c0.4,0.5-1.7,0-1.7,0.4
	C336.6,44.5,334.8,44.5,333,44.6z"/>
<path class="st0" d="M332.7,44.5c0.1,0.1-0.2,0.2-0.3,0.1S332.6,44.5,332.7,44.5z"/>
<path class="st0" d="M332.2,44.5c0,0.1-0.3,0.1-0.3,0S332.2,44.5,332.2,44.5z"/>
<path class="st0" d="M539.2,44.4c0,0.1-0.5,0.1-0.9,0.1h-1.2c0-0.1,0.5-0.1,0.9-0.1H539.2z"/>
<path class="st0" d="M433,44.4c0,0.1-0.1,0.1-0.3,0.1h-5.4c-0.3,0-0.5,0-0.6-0.1h0.9c2.4-0.1,3.7-0.1,6.6-0.1
	c0.8,0.1,0.7-0.2,1.4-0.1h2.6c0.7,0,0.5,0.2,0,0.1H437C435.7,44.4,434.3,44.4,433,44.4z"/>
<path class="st0" d="M425.5,44.4c0,0.1-0.5,0.1-0.9,0.1C424.7,44.4,425.2,44.4,425.5,44.4z"/>
<path class="st0" d="M367.7,44.4c0.1,0.1-0.2,0.2-0.3,0.1S367.6,44.4,367.7,44.4z"/>
<path class="st0" d="M544.3,44.3c0,0.1-0.3,0.1-0.6,0.1C543.8,44.3,544.1,44.3,544.3,44.3z"/>
<path class="st0" d="M542.3,44.3c0,0.1-0.3,0.1-0.6,0.1C541.8,44.3,542.1,44.3,542.3,44.3z"/>
<path class="st0" d="M43.5,44.3c0,0.1-0.3,0.1-0.6,0.1h-0.6C42.5,44.2,43.1,44.3,43.5,44.3z"/>
<path class="st0" d="M546.9,44.2c0.2,0.1-0.2,0.2-0.3,0.1S546.8,44.1,546.9,44.2z"/>
<path class="st0" d="M456.4,44.2c0.1,0.1-0.2,0.2-0.3,0.1S456.4,44.1,456.4,44.2z"/>
<path class="st0" d="M455.6,44.2c0,0.1-0.5,0.1-0.9,0.1C454.8,44.1,455.2,44.2,455.6,44.2z"/>
<path class="st0" d="M45.8,44.2c0,0.1-0.5,0.1-0.9,0.1H44c0-0.1,0.5-0.1,0.9-0.1H45.8z"/>
<path class="st0" d="M452.4,44c0.1,0.1-0.2,0.2-0.3,0.1S452.3,44,452.4,44z"/>
<path class="st0" d="M451.9,44c0,0.1-0.5,0.1-0.9,0.1C451,44,451.5,44.1,451.9,44z"/>
<path class="st0" d="M447.5,44c0.1,0.1-0.2,0.2-0.3,0.1S447.5,44,447.5,44z"/>
<path class="st0" d="M447,44c0,0.1-0.5,0.1-0.9,0.1C446.2,44,446.6,44.1,447,44z"/>
<path class="st0" d="M93.9,43.9c0.2,0.1-0.2,0.2-0.3,0.1S93.8,43.9,93.9,43.9z"/>
<path class="st0" d="M364.2,43.8c0.1,0.1-0.2,0.2-0.3,0.1S364.1,43.8,364.2,43.8z"/>
<path class="st0" d="M362.5,43.8c0.1,0.1-0.2,0.2-0.3,0.1S362.4,43.8,362.5,43.8z"/>
<path class="st0" d="M96.8,43.8c0.2,0.1-0.2,0.2-0.3,0.1S96.7,43.8,96.8,43.8z"/>
<path class="st0" d="M498.2,43.6C499.9,43.4,498.4,44.1,498.2,43.6z"/>
<path class="st0" d="M371.4,43.7c-0.8,0.2-1.6,0.1-2.3-0.1c0.7,0.1,1.3,0.1,2,0C371.3,43.6,371.4,43.6,371.4,43.7z"/>
<path class="st0" d="M172.4,43.7C172.7,43.7,172.6,43.8,172.4,43.7z"/>
<path class="st0" d="M98.5,43.7c0,0.1-0.5,0.1-0.9,0.1C97.7,43.7,98.2,43.7,98.5,43.7z"/>
<path class="st0" d="M372.2,43.6c0.1,0.1-0.2,0.2-0.3,0.1S372.2,43.5,372.2,43.6z"/>
<path class="st0" d="M367.4,43.6c0,0.1-0.5,0.1-0.9,0.1h-0.9c0-0.1,0.5-0.1,0.9-0.1H367.4z"/>
<path class="st0" d="M172.4,43.7c-0.4,0-1.1,0-1.1-0.1c0.4-0.1,0.8-0.1,1.1-0.1V43.7z"/>
<path class="st0" d="M170.1,43.6c-0.1,0.2-0.6,0.1-0.6,0S169.8,43.6,170.1,43.6z"/>
<path class="st0" d="M498.2,43.6C497,43.7,498.2,43.2,498.2,43.6z"/>
<path class="st0" d="M183.3,43.4c-0.1,0.2-0.6,0.1-0.6,0C182.9,43.4,183.2,43.3,183.3,43.4z"/>
<path class="st0" d="M171.2,43.6C170.9,43.6,171.1,43.4,171.2,43.6z"/>
<path class="st0" d="M167.2,43.4c0.1,0.1-0.2,0.2-0.3,0.1S167.1,43.4,167.2,43.4z"/>
<path class="st0" d="M166.6,43.4c0.1,0.1-0.2,0.2-0.3,0.1S166.6,43.4,166.6,43.4z"/>
<path class="st0" d="M162.6,43.4c0,0.1-0.5,0.1-0.9,0.1C161.8,43.4,162.3,43.5,162.6,43.4z"/>
<path class="st0" d="M45,43.6h-0.6C44.3,43.2,46.5,43.6,45,43.6z"/>
<path class="st0" d="M494.2,43.3c0,0.1-0.4,0.1-0.6,0.1C493.7,43.3,494,43.3,494.2,43.3z"/>
<path class="st0" d="M489.9,43.3c0.1,0.1-0.2,0.2-0.3,0.1S489.9,43.3,489.9,43.3z"/>
<path class="st0" d="M195.3,43.3c0.1,0.1-0.2,0.2-0.3,0.1S195.2,43.3,195.3,43.3z"/>
<path class="st0" d="M193.3,43.3c0.1,0.1-0.2,0.2-0.3,0.1S193.2,43.3,193.3,43.3z"/>
<path class="st0" d="M192.4,43.3c0,0.3-1,0-1.4,0.1h-1.4c0-0.3,1,0,1.4-0.1H192.4z"/>
<path class="st0" d="M189,43.3c0,0.1-0.4,0.1-0.6,0.1h-1.7c0.1-0.2,0.7-0.1,1.1-0.1H189z"/>
<path class="st0" d="M185.6,43.3c0,0.1-0.4,0.1-0.6,0.1C185,43.3,185.3,43.3,185.6,43.3z"/>
<path class="st0" d="M184.7,43.3c0.1,0.1-0.2,0.2-0.3,0.1S184.6,43.3,184.7,43.3z"/>
<path class="st0" d="M161.2,43.3c0.1,0.1-0.2,0.2-0.3,0.1S161.1,43.3,161.2,43.3z"/>
<path class="st0" d="M49,43.3c0,0.1-0.3,0.1-0.6,0.1C48.4,43.3,48.7,43.3,49,43.3z"/>
<path class="st0" d="M493.7,43.2c0.7-0.3,2.6,0,3.7-0.1c0.2,0.5-1.4,0.2-2,0.2C494.8,43.2,494.2,43.2,493.7,43.2z"/>
<path class="st0" d="M492.5,43.2c0,0.1-0.5,0.1-0.9,0.1C491.7,43.2,492.2,43.2,492.5,43.2z"/>
<path class="st0" d="M428.9,43.2c0.1,0.1-0.2,0.2-0.3,0.1S428.9,43.2,428.9,43.2z"/>
<path class="st0" d="M500,43.1C499.9,43.5,498.8,43,500,43.1z"/>
<path class="st0" d="M498.8,43.1c0.1,0.1-0.2,0.2-0.3,0.1S498.7,43,498.8,43.1z"/>
<path class="st0" d="M493.4,43.1c0,0.1-0.4,0.1-0.6,0.1C492.8,43.1,493.1,43.1,493.4,43.1z"/>
<path class="st0" d="M489.6,43.1c0,0.1-0.5,0.1-0.9,0.1C488.8,43.1,489.3,43.1,489.6,43.1z"/>
<path class="st0" d="M447.5,43.1c-0.1,0.2-0.7,0.1-1.1,0.1v-0.4C447.2,42.8,447,43.1,447.5,43.1z"/>
<path class="st0" d="M446.1,43.1c-0.1,0.3-1.4,0-2,0.1c0.5-0.3,1.1-0.4,1.7-0.4C445.5,43,445.6,43.1,446.1,43.1z"/>
<path class="st0" d="M511.4,43C511.4,43.2,511,43.1,511.4,43z"/>
<path class="st0" d="M508.5,43.1H508C507.9,42.8,510.1,43.1,508.5,43.1z"/>
<path class="st0" d="M502.2,43c2-0.1,4.2-0.2,6.3-0.2c0.1,0.2-2.5,0.1-0.9,0.2c-0.3,0.3-1.8,0-2.6,0.1C504.2,43,502.6,43.2,502.2,43
	z"/>
<path class="st0" d="M500,43.1C500.3,42.7,501.5,43.2,500,43.1z"/>
<path class="st0" d="M201.3,43c0.1,0.1-0.2,0.2-0.3,0.1S201.2,42.9,201.3,43z"/>
<path class="st0" d="M200.4,43c0,0.1-0.4,0.1-0.6,0.1C199.9,43,200.2,43,200.4,43z"/>
<path class="st0" d="M518.6,42.5c1-0.2,1,0.1,2,0.1h5.4c0.8,0.1,1.5,0.1,2.3,0c0.7,0.1,2.5-0.2,2.3,0.2c-1.4-0.1-2.9,0-4.3,0.1
	c-0.6,0-0.6-0.2-0.9-0.2c-1.5,0.1-3.5-0.1-5.7,0C519.3,42.8,518.9,42.7,518.6,42.5z"/>
<path class="st0" d="M514.8,42.8c0,0.1-0.5,0.1-0.9,0.1C514,42.8,514.5,42.9,514.8,42.8z"/>
<path class="st0" d="M511.4,43C512,42.6,513.2,43.1,511.4,43z"/>
<path class="st0" d="M502.2,43C501.9,43,502.1,42.8,502.2,43z"/>
<path class="st0" d="M210.5,42.8c0,0.1-0.4,0.1-0.6,0.1H205c0.1-0.2,0.7-0.1,1.1-0.1H210.5L210.5,42.8z"/>
<path class="st0" d="M203.3,42.8c0,0.1-0.4,0.1-0.6,0.1C202.7,42.8,203.1,42.9,203.3,42.8z"/>
<path class="st0" d="M535.5,42.7c0.1,0.1-0.2,0.2-0.3,0.1S535.4,42.7,535.5,42.7z"/>
<path class="st0" d="M534.3,42.7C534.7,42.7,534.5,42.9,534.3,42.7z"/>
<path class="st0" d="M533.2,42.7c0,0.1-0.3,0.1-0.6,0.1C532.6,42.7,533,42.8,533.2,42.7z"/>
<path class="st0" d="M509.1,42.7c0.1,0.1-0.2,0.2-0.3,0.1S509,42.7,509.1,42.7z"/>
<path class="st0" d="M212.8,42.7c0.1,0.1-0.2,0.2-0.3,0.1S212.7,42.7,212.8,42.7z"/>
<path class="st0" d="M44.1,42.7c0,0.1-0.5,0.1-0.9,0.1C43.3,42.7,43.8,42.7,44.1,42.7z"/>
<path class="st0" d="M534.3,42.7h-0.9c0.2-0.4,1.1-0.4,2.3-0.4s2.4-0.2,2.9,0c0.6,0,1.2-0.1,1.7-0.2c0.3,0,0.6,0,0.9,0.1
	c0.6-0.1,1.1-0.1,1.7-0.1h1.1c0,0.1-0.5,0.1-0.9,0.1c-0.9,0.1-2.3,0-3.2,0.2h-2.3c-0.4,0-0.8,0-1.1,0.1
	C535.9,42.7,534.5,42.5,534.3,42.7z"/>
<path class="st0" d="M546.6,42.1c0,0.1-0.5,0.1-0.9,0.1C545.8,42.1,546.3,42.2,546.6,42.1z"/>
<path class="st0" d="M523.2,42.1c0.2,0.1-0.2,0.2-0.3,0.1S523.1,42.1,523.2,42.1z"/>
<path class="st0" d="M527.7,42c-0.4,0-2.1,0-1.1-0.1h5.2c0.5,0,0.6,0.1,0.3,0.1c-0.6,0.1-1.1,0.2-1.7,0.1c-0.3,0-0.2-0.1-0.3-0.1
	c-0.4,0.1-0.8,0.1-1.1,0.1C528.4,42.1,528.3,42,527.7,42z"/>
<path class="st0" d="M525.2,42c0.2,0.1-0.2,0.2-0.3,0.1S525.1,42,525.2,42z"/>
<path class="st0" d="M536,41.9c0,0.1-0.3,0.1-0.6,0.1h-0.9c0-0.1,0.3-0.1,0.6-0.1H536z"/>
<path class="st0" d="M524.6,41.9c0,0.3-1,0-1.4,0.1C523.2,41.7,524.2,41.7,524.6,41.9z"/>
<path class="st0" d="M522.9,41.9c0.2,0.1-0.2,0.2-0.3,0.1S522.8,41.9,522.9,41.9z"/>
<path class="st0" d="M521.7,41.9c0,0.1-0.3,0.1-0.6,0.1C521.2,41.9,521.5,41.9,521.7,41.9z"/>
<path class="st0" d="M519.1,41.9c0,0.1-0.3,0.1-0.6,0.1C518.6,41.9,518.9,41.9,519.1,41.9z"/>
<path class="st0" d="M515.1,41.9C515.1,42,514.7,42,515.1,41.9z"/>
<path class="st0" d="M553.8,41.8c0,0.1-0.3,0.1-0.6,0.1C553.2,41.8,553.6,41.8,553.8,41.8z"/>
<path class="st0" d="M522.3,41.8c0.2,0.1-0.2,0.2-0.3,0.1S522.2,41.7,522.3,41.8z"/>
<path class="st0" d="M515.1,41.9c0-0.3,1,0,1.4-0.1C516.6,42,515.5,41.8,515.1,41.9z"/>
<path class="st0" d="M541.5,41.7c0,0.1-0.3,0.1-0.6,0.1C540.9,41.7,541.2,41.7,541.5,41.7z"/>
<path class="st0" d="M535.8,41.7c0,0.1-0.3,0.1-0.6,0.1C535.2,41.7,535.5,41.7,535.8,41.7z"/>
<path class="st0" d="M531.7,41.5c0.2,0.1-0.2,0.2-0.3,0.1S531.7,41.5,531.7,41.5z"/>
<path class="st0" d="M549.5,41.4c0,0.1-0.3,0.1-0.6,0.1C548.9,41.4,549.3,41.4,549.5,41.4z"/>
<path class="st0" d="M544,41.5h-0.6C543.4,41.2,545.6,41.6,544,41.5z"/>
<path class="st0" d="M541.5,41.4c0.2,0.1-0.2,0.2-0.3,0.1S541.4,41.4,541.5,41.4z"/>
<path class="st0" d="M539.2,41.4c0.2,0.1-0.2,0.2-0.3,0.1S539.1,41.4,539.2,41.4z"/>
<path class="st0" d="M567.5,41c0.2,0.1-0.2,0.2-0.3,0.1S567.5,41,567.5,41z"/>
<path class="st0" d="M566.4,41c0.2,0.1-0.2,0.2-0.3,0.1S566.3,41,566.4,41z"/>
<path class="st0" d="M576.4,40.8c-0.7,0.3-1.4,0.1-2.6,0.1c-0.9-0.1,0.5-0.2,0.9-0.1H576.4z"/>
<path class="st0" d="M540.3,40.9c0,0.1-0.5,0.1-0.9,0.1C539.5,40.9,540,41,540.3,40.9z"/>
<path class="st0" d="M579.6,40.8H579C578.9,40.5,581.1,40.8,579.6,40.8z"/>
<path class="st0" d="M582.7,40.6c0.2,0.1-0.2,0.2-0.3,0.1S582.6,40.5,582.7,40.6z"/>
<path class="st0" d="M581.8,40.6c0,0.1-0.3,0.1-0.6,0.1C581.3,40.6,581.6,40.6,581.8,40.6z"/>
<path class="st0" d="M549.2,40.5c0.3-0.2,0.7-0.3,1.1-0.2C550.3,40.4,549.9,40.5,549.2,40.5z"/>
<path class="st0" d="M598.5,40.2c-0.1,0.2-0.6,0.1-0.6,0C598.1,40.1,598.4,40.1,598.5,40.2z"/>
<path class="st0" d="M548.3,40.3h-0.6C547.7,40,549.9,40.4,548.3,40.3z"/>
<path class="st0" d="M547.5,40.2c0,0.1-0.3,0.1-0.6,0.1C546.9,40.2,547.3,40.2,547.5,40.2z"/>
<path class="st0" d="M546.3,40.2c0.2,0.1-0.2,0.2-0.3,0.1S546.3,40.2,546.3,40.2z"/>
<path class="st0" d="M553.2,40c0.3,0.4-1.1,0.2-1.7,0.2c-1.3,0.1-0.7-0.2,0.3-0.1C552.5,40.1,552.4,39.9,553.2,40z"/>
<path class="st0" d="M565.2,40c0.3-0.3,0.9,0.2,1.7,0c0.3,0,0.7,0.1,0.3,0.1C566.6,40.2,565.9,40.1,565.2,40z"/>
<path class="st0" d="M565.2,40C564.6,40.4,563.4,39.9,565.2,40z"/>
<path class="st0" d="M567.2,39.7c-0.2-0.4,0.5-0.4,1.1-0.5C568.6,39.7,567.9,39.7,567.2,39.7z"/>
<path class="st0" d="M579.8,38.8c0,0.1-0.3,0.1-0.6,0.1C579.3,38.8,579.6,38.8,579.8,38.8z"/>
<path class="st0" d="M576.4,38.4c0,0.3-1,0.1-1.4,0.1h-1.7c0-0.3,1,0,1.4-0.1H576.4z"/>
<path class="st0" d="M576.4,38.4C577,38,578.2,38.5,576.4,38.4z"/>
<path class="st0" d="M584.1,37.8c0,0.1-0.3,0.1-0.6,0.1C583.6,37.8,583.9,37.8,584.1,37.8z"/>
<path class="st0" d="M9.4,36.5c0.1,0.1-0.2,0.2-0.3,0.1S9.4,36.5,9.4,36.5z"/>
<path class="st0" d="M600.2,35.4c-0.1,0.3-1.4,0-2,0.1c-0.9-0.1-0.3,0.4-1.4,0.2C596.5,35.1,599.1,35.6,600.2,35.4z"/>
<path class="st0" d="M591.3,35.7c0,0.1-0.3,0.1-0.6,0.1h-0.9c0-0.1,0.3-0.1,0.6-0.1H591.3z"/>
<path class="st0" d="M595,35.5c0,0.1-0.3,0.1-0.6,0.1C594.5,35.5,594.8,35.6,595,35.5z"/>
<path class="st0" d="M600.2,35.4c0.5-0.3,2.2,0,3.2-0.1c1.1-0.1,2.3,0,3.4,0.1c-0.2,0.3-0.9-0.1-1.4,0H600.2z"/>
<path class="st0" d="M595.9,35.5h-0.6C595.2,35.2,597.4,35.6,595.9,35.5z"/>
<path class="st0" d="M591,35.4c0,0.1-0.5,0.1-0.9,0.1C590.2,35.4,590.7,35.4,591,35.4z"/>
<path class="st0" d="M598.2,35.1c0,0.1-0.3,0.1-0.6,0.1C597.6,35.1,598,35.1,598.2,35.1z"/>
<path class="st0" d="M606.8,33.9c0.2,0.1-0.2,0.2-0.3,0.1S606.7,33.8,606.8,33.9z"/>
<path class="st0" d="M601.6,33.9c0.2,0.1-0.2,0.2-0.3,0.1S601.5,33.8,601.6,33.9z"/>
<path class="st0" d="M592.2,33.9c0.2,0.1-0.2,0.2-0.3,0.1S592.1,33.8,592.2,33.9z"/>
<path class="st0" d="M615.6,33.6c0,0.1-0.3,0.1-0.6,0.1C615.1,33.6,615.4,33.6,615.6,33.6z"/>
<path class="st0" d="M598.5,33.1c0.4,0.1,1.5-0.1,1.4,0.1C599.5,33.2,598.4,33.4,598.5,33.1z"/>
<path class="st0" d="M603,32.7c0,0.1-0.3,0.1-0.6,0.1C602.5,32.7,602.8,32.7,603,32.7z"/>
<path class="st0" d="M596.7,32.8C597.1,32.4,598.3,32.9,596.7,32.8z"/>
<path class="st0" d="M605,32.5c0,0.1-0.3,0.1-0.6,0.1C604.5,32.5,604.8,32.6,605,32.5z"/>
<path class="st0" d="M613.3,31.6c-0.8,0.1-0.6-0.2-1.1-0.2h-2.6c-0.5,0-0.6-0.1-0.3-0.1h1.2c0.9-0.1,1.7-0.2,2.6-0.1
	c0.7,0-0.2-0.5,0.9-0.4C614.3,30.9,613.9,31.4,613.3,31.6z"/>
<path class="st0" d="M606.2,31.2c0.2,0.1-0.2,0.1-0.3,0.1S606.1,31.2,606.2,31.2z"/>
<path class="st0" d="M610.2,31c0.2,0.1-0.2,0.1-0.3,0.1S610.1,31,610.2,31z"/>
<path class="st0" d="M609.3,31c0,0.1-0.5,0.1-0.9,0.1C608.5,31,609,31,609.3,31z"/>
<path class="st0" d="M612.5,30.7c0.1,0.1-0.2,0.1-0.3,0.1S612.4,30.7,612.5,30.7z"/>
<path class="st0" d="M609.9,30.7c0,0.1-0.3,0.1-0.6,0.1C609.3,30.8,609.7,30.8,609.9,30.7z"/>
<path class="st0" d="M615.1,30.1c-0.1,0.1-0.3,0.1-0.3,0S615.1,30.1,615.1,30.1z"/>
<path class="st0" d="M611,29.9c0-0.3,1,0,1.4-0.1C612.5,30,611.5,29.8,611,29.9z"/>
<path class="st0" d="M614.5,29.5c0.9,0.1-0.3,0.3-0.9,0.2s-0.6-0.1-0.3-0.1h1.1v-0.1H614.5z"/>
<path class="st0" d="M608.8,29.7c0,0.1-0.3,0.1-0.6,0.1h-0.9c0-0.1,0.3-0.1,0.6-0.1H608.8z"/>
<path class="st0" d="M615.9,29.5c0,0.1-0.5,0.1-0.8,0.1C615.1,29.5,615.6,29.6,615.9,29.5z"/>
<path class="st0" d="M612.5,29.7h-0.6v-0.2h0.6V29.7z"/>
<path class="st0" d="M613.3,29.3c0,0.1-0.3,0.1-0.3,0S613.3,29.2,613.3,29.3z"/>
<path class="st0" d="M4.6,28.8C4.7,28.9,4.4,29,4.3,29S4.5,28.8,4.6,28.8z"/>
<path class="st0" d="M4,28.7c0.1,0.1-0.2,0.1-0.3,0.1S3.9,28.7,4,28.7z"/>
<path class="st0" d="M609.9,27.4h-0.6C609.3,27,611.5,27.4,609.9,27.4z"/>
<path class="st0" d="M618.5,27.1c-0.1,0.2-0.2,0-0.6,0C618,27,618.5,27,618.5,27.1z"/>
<path class="st0" d="M612.2,27.3c0.8-0.1,1.5-0.2,2.3-0.2C614.4,27.4,613.1,27.2,612.2,27.3z"/>
<path class="st0" d="M611.9,27.1c0,0.1-0.3,0.1-0.6,0.1C611.3,27.1,611.7,27.2,611.9,27.1z"/>
<path class="st0" d="M617.1,26c0.2,0.1-0.2,0.2-0.3,0.1S617,25.9,617.1,26z"/>
<path class="st0" d="M10.6,25.4c0,0.1-0.5,0.1-0.9,0.1C9.8,25.3,10.3,25.4,10.6,25.4z"/>
<path class="st0" d="M618.2,25c-0.8,0-1-0.2-0.6-0.4h-2.9c0.3-0.4-0.9-0.2-1.4-0.2c-0.1-0.4,0.9-0.2,1.4-0.4
	c-0.2,0.4,0.9,0.2,0.8,0.5c1-0.1,1.9-0.1,2.9,0C618.5,24.7,618.2,24.8,618.2,25z"/>
<path class="st0" d="M617.1,24.8c0.2,0.1-0.2,0.1-0.3,0.1S617,24.7,617.1,24.8z"/>
<path class="st0" d="M13.2,24.6c0.1,0.1-0.2,0.2-0.3,0.1S13.1,24.6,13.2,24.6z"/>
<path class="st0" d="M16.3,24.5c-0.1,0.1-0.6,0.1-0.6,0C16,24.4,16.3,24.4,16.3,24.5z"/>
<path class="st0" d="M14.9,24.5C14.9,24.4,15.3,24.4,14.9,24.5z"/>
<path class="st0" d="M603.3,23.6c0,0.1-0.5,0.1-0.9,0.1C602.5,23.5,603,23.6,603.3,23.6z"/>
<path class="st0" d="M602.8,21.9c0,0.1-0.5,0.1-0.9,0.1h-1.1c0-0.1,0.5-0.1,0.9-0.1H602.8z"/>
<path class="st0" d="M597,21.9c0,0.1-0.5,0.1-0.9,0.1C596.2,21.9,596.7,21.9,597,21.9z"/>
<path class="st0" d="M597.6,21.8c0.2,0.1-0.2,0.2-0.3,0.1S597.5,21.7,597.6,21.8z"/>
<path class="st0" d="M602.5,20.7C602.5,20.5,602.9,20.6,602.5,20.7z"/>
<path class="st0" d="M605.9,18.5c0,0.1-0.3,0.1-0.6,0.1C605.3,18.5,605.7,18.5,605.9,18.5z"/>
<path class="st0" d="M591.6,18.2c0.2,0.1-0.2,0.1-0.3,0.1S591.5,18.1,591.6,18.2z"/>
<path class="st0" d="M6.6,17.1c0.7,0.1,2.1-0.1,2.3,0.1H7.7C7.3,17.2,6.7,17.2,6.6,17.1z"/>
<path class="st0" d="M6.6,17.1C5.1,17.2,6.2,16.7,6.6,17.1z"/>
<path class="st0" d="M595,16.8c-0.4-0.1,0-0.1,0.3-0.1h1.2c0.9-0.1,1.7-0.2,2.6-0.1c0,0.3-1.8-0.1-1.7,0.2H595z"/>
<path class="st0" d="M600.2,16.6c0,0.1-0.5,0.1-0.9,0.1C599.4,16.6,599.8,16.6,600.2,16.6z"/>
<path class="st0" d="M601.6,16.6c0.8-0.1,1.5-0.2,2.3-0.2C604.1,16.8,602.3,16.5,601.6,16.6z"/>
<path class="st0" d="M605.9,16.4c0,0.1-0.5,0.1-0.9,0.1h-0.9c0-0.1,0.5-0.1,0.9-0.1H605.9z"/>
<path class="st0" d="M18.3,14C18,14.4,16.8,13.9,18.3,14z"/>
<path class="st0" d="M33.2,12.2c0.2,0.1-0.2,0.1-0.3,0.1S33.1,12.1,33.2,12.2z"/>
<path class="st0" d="M26.9,11.7c0-0.3,1.2-0.2,2-0.2C28.3,11.6,27.6,11.7,26.9,11.7z"/>
<path class="st0" d="M609.9,10.6c0,0.1-0.5,0.1-0.9,0.1C609.1,10.6,609.6,10.6,609.9,10.6z"/>
<path class="st0" d="M573.2,9.7c0.2,0.1-0.2,0.1-0.3,0.1S573.2,9.6,573.2,9.7z"/>
<path class="st0" d="M580.1,9.5c0,0.1-0.5,0.1-0.9,0.1h-0.9c0-0.1,0.5-0.1,0.9-0.1H580.1z"/>
<path class="st0" d="M581,9.4c0,0.1-0.3,0.1-0.6,0.1C580.4,9.4,580.8,9.4,581,9.4z"/>
<path class="st0" d="M573.2,9.3c0.2,0.1-0.2,0.2-0.3,0.1S573.2,9.3,573.2,9.3z"/>
<path class="st0" d="M571,8.3C571.3,8.3,571.2,8.5,571,8.3z"/>
<path class="st0" d="M572.7,8.2c0.1,0.2-1.6,0.2-1.2-0.1C571.9,8.1,572.3,8.1,572.7,8.2z"/>
<path class="st0" d="M571,7.7c0.2,0.1-0.2,0.2-0.3,0.1S570.9,7.7,571,7.7z"/>
<path class="st0" d="M574.4,7.6c-0.3,0.1-0.6,0.2-0.9,0.1C573.3,7.7,574.7,7.4,574.4,7.6z"/>
<path class="st0" d="M573.2,7.6c0,0.1-0.3,0.1-0.6,0.1C572.7,7.6,573,7.6,573.2,7.6z"/>
<path class="st0" d="M577.3,7.6c-1.2,0.1-0.3-0.6,0.3-0.2C577.5,7.5,577.3,7.5,577.3,7.6z"/>
<path class="st0" d="M523.7,6.9c0.1,0.1-0.2,0.2-0.3,0.1S523.6,6.9,523.7,6.9z"/>
<path class="st0" d="M40.7,6.9c0,0.2-1.9,0.2-1.4-0.1C39.9,6.7,39.8,7,40.7,6.9z"/>
<path class="st0" d="M38.1,6.9C38.1,7,37.7,7,37.5,7h-0.6C37,6.9,37.7,6.9,38.1,6.9z"/>
<path class="st0" d="M558.7,6.8c0.2,0.1-0.2,0.2-0.3,0.1S558.6,6.8,558.7,6.8z"/>
<path class="st0" d="M485.6,6.7c0.5,0,1,0,0.9,0.2C486.2,6.9,485.9,6.8,485.6,6.7z"/>
<path class="st0" d="M484.5,6.8c0.1,0.1-0.2,0.2-0.3,0.1S484.4,6.8,484.5,6.8z"/>
<path class="st0" d="M503.7,6.7C504.5,6.2,504.7,7,503.7,6.7z"/>
<path class="st0" d="M501.7,6.7c0.7,0.1,0.6-0.2,1.4-0.1C503.4,7,502.2,6.8,501.7,6.7L501.7,6.7z"/>
<path class="st0" d="M501.4,6.7C500.8,7,499.6,6.5,501.4,6.7z"/>
<path class="st0" d="M495.4,6.7C496.6,6.5,495.4,7,495.4,6.7z"/>
<path class="st0" d="M575.3,6.4C576.1,6.4,575,6.9,575.3,6.4z"/>
<path class="st0" d="M575,6.5c0,0.1-0.3,0.1-0.6,0.1C574.4,6.5,574.8,6.6,575,6.5z"/>
<path class="st0" d="M573.2,6.5c0,0.1-0.3,0.1-0.6,0.1C572.7,6.5,573,6.6,573.2,6.5z"/>
<path class="st0" d="M509.1,6.5C510,6.1,510.1,6.9,509.1,6.5z"/>
<path class="st0" d="M501.7,6.7h-0.3C501.4,6.6,501.6,6.5,501.7,6.7z"/>
<path class="st0" d="M575.3,6.4C573.4,6.6,574.6,6.1,575.3,6.4z"/>
<path class="st0" d="M524.3,5.6c0.1,0.1-0.2,0.2-0.3,0.1S524.2,5.6,524.3,5.6z"/>
<path class="st0" d="M530,5.3c0.2,0.1-0.2,0.2-0.3,0.1S529.9,5.3,530,5.3z"/>
<path class="st0" d="M538,5.2c0.1,0.1-0.2,0.2-0.3,0.1S538,5.2,538,5.2z"/>
<path class="st0" d="M536.9,5.2c0,0.1-0.5,0.1-0.9,0.1C536.1,5.2,536.5,5.2,536.9,5.2z"/>
<path class="st0" d="M534.3,5.2c0.2,0.1-0.2,0.2-0.3,0.1S534.2,5.2,534.3,5.2z"/>
<path class="st0" d="M531.7,5.2c0,0.1-0.3,0.1-0.6,0.1C531.2,5.2,531.5,5.2,531.7,5.2z"/>
<path class="st0" d="M55.5,5.2c0.2,0.1-0.2,0.2-0.3,0.1S55.5,5.2,55.5,5.2z"/>
<path class="st0" d="M51.5,5.2c0.2,0.1-0.2,0.2-0.3,0.1S51.5,5.2,51.5,5.2z"/>
<path class="st0" d="M541.8,5.1c0,0.1-0.5,0.1-0.9,0.1C540.9,5.1,541.4,5.1,541.8,5.1z"/>
<path class="st0" d="M539.8,5.2h-0.6C539.1,4.9,541.3,5.3,539.8,5.2z"/>
<path class="st0" d="M538.9,5.1c0.2,0.1-0.2,0.2-0.3,0.1S538.8,5.1,538.9,5.1z"/>
<path class="st0" d="M527.7,5.2L527.7,5.2C527.9,5.1,528,5.2,527.7,5.2z"/>
<path class="st0" d="M544.3,5c0,0.1-0.5,0.1-0.9,0.1C543.5,5,544,5,544.3,5z"/>
<path class="st0" d="M544,3.9c-0.5,0-0.6,0.2-1.1,0.1c0-0.1-0.4-0.1-0.6-0.1c-0.5,0.1-1.7-0.2-1.7,0.1c0.4,0.1,0,0.1-0.3,0.1
	c-0.1,0.2,0.5,0.3,0,0.4c-0.8,0.1-0.6-0.2-1.1-0.2c0,0.3-0.2,0.2-0.6,0.1c0.2,0.3-0.5,0.2-0.6,0.4c0.9-0.1,1.9-0.1,2.9,0
	c0.3-0.1-0.1-0.4,0.9-0.5c-0.2,0.5,1.5,0.4,1.7,0.1c-0.4-0.1-1.5,0.1-1.4-0.1c0.5,0-0.2-0.2,0.3-0.2c1.6,0.1,3.2,0.2,4.9,0.1
	c-0.1,0.3,0.8,0.1,0.9,0.4c-0.3,0-0.5,0-0.6,0.1c1.2,0.1,2.5,0,3.7-0.2c0,0.1,0.1,0.2,0.3,0.2c0.2-0.2,1.3-0.1,1.4-0.4
	C550.6,3.9,545.9,4.1,544,3.9z M550.6,4.3c0.2,0.1-0.2,0.2-0.3,0.1S550.6,4.2,550.6,4.3L550.6,4.3z"/>
<path class="st0" d="M520.3,4.7C520.3,4.6,520.7,4.7,520.3,4.7z"/>
<path class="st0" d="M536.9,4.5c0.2,0.1-0.2,0.2-0.3,0.1S536.8,4.5,536.9,4.5z"/>
<path class="st0" d="M530.9,4.6C529.7,4.7,530.8,4.3,530.9,4.6z"/>
<path class="st0" d="M99.1,4.5c0.2,0,0.6,0,0.6,0.1C99.4,4.6,99.1,4.6,99.1,4.5z"/>
<path class="st0" d="M69.6,4.6h-0.3C69.2,4.4,69.6,4.3,69.6,4.6z"/>
<path class="st0" d="M521.1,4.4c0,0.1-0.5,0.1-0.9,0.1h-1.1c0-0.1,0.5-0.1,0.9-0.1H521.1z"/>
<path class="st0" d="M516.8,4.5c-0.4-0.1-1.5,0.1-1.4-0.1C515.8,4.4,516.9,4.2,516.8,4.5z"/>
<path class="st0" d="M68.2,4.4c0,0.1-0.3,0.1-0.6,0.1C67.6,4.4,67.9,4.4,68.2,4.4z"/>
<path class="st0" d="M48.1,4.4c0.2,0.1-0.2,0.2-0.3,0.1S48,4.3,48.1,4.4z"/>
<path class="st0" d="M525.4,4.3c0,0.1-0.5,0.1-0.9,0.1C524.6,4.2,525.1,4.3,525.4,4.3z"/>
<path class="st0" d="M67,4.3c0.2,0.1-0.2,0.2-0.3,0.1S66.9,4.2,67,4.3z"/>
<path class="st0" d="M552.9,4.3C553.3,3.9,554.5,4.4,552.9,4.3z"/>
<path class="st0" d="M536.6,4.1c0,0.1-0.3,0.1-0.6,0.1C536,4.2,536.4,4.2,536.6,4.1z"/>
<path class="st0" d="M535.2,4.1c0,0.1-0.3,0.1-0.6,0.1C534.6,4.2,535,4.2,535.2,4.1z"/>
<path class="st0" d="M556.4,4c0,0.1-0.3,0.1-0.6,0.1h-0.9c0-0.1,0.3-0.1,0.6-0.1H556.4z"/>
<path class="st0" d="M501.7,4c0,0.1-0.4,0.1-0.6,0.1C501.1,4,501.5,4.1,501.7,4z"/>
<path class="st0" d="M75.3,4c0.2,0.1-0.2,0.2-0.3,0.1S75.2,4,75.3,4z"/>
<path class="st0" d="M538.6,3.8c0,0.1-0.5,0.1-0.9,0.1C537.8,3.8,538.3,3.8,538.6,3.8z"/>
<path class="st0" d="M535.8,3.8c0,0.1-0.3,0.1-0.6,0.1C535.2,3.8,535.5,3.8,535.8,3.8z"/>
<path class="st0" d="M529.5,3.8c0.2,0.1-0.2,0.2-0.3,0.1S529.4,3.8,529.5,3.8z"/>
<path class="st0" d="M528.6,3.8c0.2,0.1-0.2,0.2-0.3,0.1S528.5,3.8,528.6,3.8z"/>
<path class="st0" d="M526.6,3.8c0,0.2-0.5,0-0.3-0.1S527,3.8,526.6,3.8z"/>
<path class="st0" d="M219.1,3.7c0.1,0.1-0.2,0.2-0.3,0.1S219,3.6,219.1,3.7z"/>
<path class="st0" d="M247.7,3.7C247.7,3.5,248.1,3.6,247.7,3.7z"/>
<path class="st0" d="M220.5,3.5c0.1,0.1-0.2,0.2-0.3,0.1S220.4,3.5,220.5,3.5z"/>
<path class="st0" d="M270.9,3.5C269.4,3.7,270.5,3.2,270.9,3.5z"/>
<path class="st0" d="M66.2,3.5C66,3,68,3.4,68.2,3.1c1.1,0,2.3,0,3.4-0.1c0,0.3,1.2,0,1.7,0.1c1.1-0.2,2.3-0.2,3.4,0
	c0.9,0.1,0.9-0.2,1.4,0c-0.1,0.3-1.5,0-1.7,0.2C73.2,3.2,69.8,3.5,66.2,3.5z"/>
<path class="st0" d="M109.4,3.4c-0.3-0.4,1.1-0.2,1.7-0.2C111.1,3.5,110.1,3.4,109.4,3.4z"/>
<path class="st0" d="M107.4,3.2c-0.2,0.2-0.5,0-0.9,0C106.7,3,107,3.2,107.4,3.2z"/>
<path class="st0" d="M327,3.1c0.1,0.1-0.2,0.2-0.3,0.1S326.9,3,327,3.1z"/>
<path class="st0" d="M105.4,3.1c-0.2,0.2-0.3,0-0.3-0.1C105.6,2.9,105.7,3.1,105.4,3.1z"/>
<path class="st0" d="M104.2,3.1c0.2,0.1-0.2,0.2-0.3,0.1S104.2,3,104.2,3.1z"/>
<path class="st0" d="M106.2,3c0.2,0.1-0.2,0.2-0.3,0.1S106.2,2.9,106.2,3z"/>
<path class="st0" d="M94.5,3c0.2,0.1-0.2,0.2-0.3,0.1S94.4,2.9,94.5,3z"/>
<path class="st0" d="M435.2,2.8c-0.6,0-0.9,0-0.9-0.2h0.9V2.8z"/>
<path class="st0" d="M430.9,2.7c0.1,0.2-1.5,0.2-0.9-0.1C430,2.6,431,2.7,430.9,2.7z"/>
<path class="st0" d="M439.5,2.6c0.1,0.1-0.2,0.2-0.3,0.1S439.5,2.5,439.5,2.6z"/>
<path class="st0" d="M428.1,2.7C428.1,2.3,429.3,2.8,428.1,2.7z"/>
<path class="st0" d="M445.8,2.5c0.1,0.1-0.2,0.2-0.3,0.1S445.8,2.4,445.8,2.5z"/>
<path class="st0" d="M440.4,2.5c0.1,0.1-0.2,0.2-0.3,0.1S440.3,2.4,440.4,2.5z"/>
<path class="st0" d="M516.6,2.3c0.2,0.1-0.2,0.2-0.3,0.1S516.5,2.3,516.6,2.3z"/>
<path class="st0" d="M457.9,2.3c0,0.1-0.4,0.1-0.6,0.1C457.3,2.3,457.6,2.4,457.9,2.3z"/>
<path class="st0" d="M447,2.5h-0.6C446.4,2.1,448.5,2.5,447,2.5z"/>
<path class="st0" d="M445.3,2.3c0.1,0.1-0.2,0.2-0.3,0.1S445.2,2.3,445.3,2.3z"/>
<path class="st0" d="M522.6,2.2c0,0.1-0.3,0.1-0.6,0.1C522,2.2,522.3,2.2,522.6,2.2z"/>
<path class="st0" d="M518.6,2c0.9,0,1.7,0,2.6,0.1c0,0.1-0.3,0.1-0.6,0.1c0,0.1-0.3,0.1-0.3,0C519.7,2.2,518.3,2.4,518.6,2z"/>
<path class="st0" d="M505.4,2.2c0,0.1-0.4,0.1-0.6,0.1H504c0-0.1,0.4-0.1,0.6-0.1H505.4z"/>
<path class="st0" d="M502,2.2c0,0.1-0.4,0.1-0.6,0.1C501.4,2.2,501.7,2.2,502,2.2z"/>
<path class="st0" d="M500,2.2c0.1,0.1-0.2,0.2-0.3,0.1S499.9,2.2,500,2.2z"/>
<path class="st0" d="M484.2,2.1c-0.1-0.1,1-0.2,1.1-0.1s0.1,0,0.6,0c0.2,0,0.3,0.1,0.6,0.1c0.5,0,0.6-0.1,1.1-0.1s0.8,0.1,1.4,0.1
	c0.2-0.1,0.4-0.1,0.6-0.1c0.2,0.1,0.4,0.1,0.6,0.1h3.4c0.3,0,0.5,0,0.6,0.1h-4.3c-0.5,0-0.7,0.2-0.9,0
	C487.5,2.3,485.8,2.2,484.2,2.1z"/>
<path class="st0" d="M462.4,2.2c-0.1-0.2,1.6-0.2,1.4,0c1-0.2,2.8,0,3.7-0.2c1.6,0.1,4.2,0,7.4,0h8.3c0.2,0,0.3,0,0.3,0.1h-1.1
	c-3.5,0.2-5.1,0-8.6,0.1c-0.2-0.4-1.5,0.3-1.7-0.1c-1.1,0.3-3.7,0-4.9,0.2C465.7,2.4,464.1,2.4,462.4,2.2z"/>
<path class="st0" d="M460.1,2.3h-1.7c0.1-0.2,0.7-0.1,1.1-0.1C460.2,2.1,461.4,2.3,460.1,2.3z"/>
<path class="st0" d="M454.1,2.2c0,0.1-0.4,0.1-0.6,0.1C453.6,2.2,453.9,2.2,454.1,2.2z"/>
<path class="st0" d="M451,2.2c0,0.1-0.5,0.1-0.9,0.1h-0.9c0-0.1,0.5-0.1,0.9-0.1H451z"/>
<path class="st0" d="M448.4,2.2c0,0.1-0.4,0.1-0.6,0.1C447.9,2.2,448.2,2.2,448.4,2.2z"/>
<path class="st0" d="M497.4,2.1c0,0.1-0.4,0.1-0.6,0.1C496.8,2.1,497.1,2.1,497.4,2.1z"/>
<path class="st0" d="M496.5,2.1c0,0.1-0.3,0.1-0.6,0.1H495c0-0.1,0.4-0.1,0.6-0.1H496.5z"/>
<path class="st0" d="M405.8,1.8c0.5,0.2,1.1-0.2,1.7,0.1c1.6-0.1,2.3-0.1,4.3-0.1c-0.1,0.4-1.9,0.2-2.9,0.2c-0.5,0-0.5,0.1-0.9,0.1
	C407.9,1.7,405.5,2.3,405.8,1.8z"/>
<path class="st0" d="M403.7,1.9c-0.2,0.4-0.9,0-2,0.1C400.9,1.8,403.2,1.9,403.7,1.9z"/>
<path class="st0" d="M399.7,2c0.1,0.1-0.2,0.2-0.3,0.1S399.7,2,399.7,2z"/>
<path class="st0" d="M333,2c0,0.1-0.3,0.1-0.3,0S333,1.9,333,2z"/>
<path class="st0" d="M421.2,1.9c0,0.3-1,0-1.1,0C420.1,1.6,421,1.8,421.2,1.9z"/>
<path class="st0" d="M400.6,1.9c0.1,0.1-0.2,0.1-0.3,0.1S400.5,1.8,400.6,1.9z"/>
<path class="st0" d="M398.3,1.9c0,0.1-0.4,0.1-0.6,0.1C397.7,1.9,398.1,1.9,398.3,1.9z"/>
<path class="st0" d="M357.6,1.9c0.1,0.1-0.2,0.1-0.3,0.1S357.6,1.8,357.6,1.9z"/>
<path class="st0" d="M329.9,1.9c0,0.1-0.4,0.1-0.6,0.1C329.3,1.9,329.6,1.9,329.9,1.9z"/>
<path class="st0" d="M424.9,1.8c0-0.3,1,0,1.1,0C425.9,2.1,425.5,1.6,424.9,1.8z"/>
<path class="st0" d="M424.9,1.8c-0.1,0.3-1.4,0-2,0.1C423.3,1.5,424.2,1.6,424.9,1.8z"/>
<path class="st0" d="M421.2,1.9C421.8,1.5,423,2,421.2,1.9z"/>
<path class="st0" d="M419.2,1.8c0,0.1-0.5,0.1-0.9,0.1C418.4,1.7,418.9,1.8,419.2,1.8z"/>
<path class="st0" d="M415.8,1.8c0,0.1-0.4,0.1-0.6,0.1h-2.3c0-0.3,1-0.1,1.4-0.1H415.8z"/>
<path class="st0" d="M403.7,1.9C403.8,1.5,404.9,2,403.7,1.9z"/>
<path class="st0" d="M543.5,1.6c0,0.1-0.5,0.1-0.9,0.1h-0.9c0-0.1,0.5-0.1,0.9-0.1H543.5z"/>
<path class="st0" d="M540.3,1.6c0,0.1-0.3,0.1-0.6,0.1h-0.9c0-0.1,0.3-0.1,0.6-0.1H540.3z"/>
<path class="st0" d="M431.5,1.6c0,0.3-1,0.1-1.4,0.1h-1.4c0-0.3,1,0,1.4-0.1H431.5z"/>
<path class="st0" d="M498,0.6c1,0.1,2.1,0.2,3.1,0.1c0.7,0.1,1.3,0.1,2,0.1c0.3,0,0.6,0,0.9,0.1c0.4,0,0.3-0.2,0.6-0.2
	c0.2,0.2,0.4,0.3,0.6,0.4c0.1-0.2,0.4,0,0.9,0c1.7-0.2,3.4-0.2,5.2,0c1.9,0,4-0.1,5.4,0.1c1.2-0.1,1.8,0.1,3.4,0
	c0.9-0.1,0.2,0.4,1.2,0.2c0.6-0.2,1.1-0.2,1.7-0.2c-0.1,0.1-0.5,0.2,0.3,0.2c1,0.1,1.9,0.1,2.9,0c0.7,0,0.6,0.2,1.4,0.1
	c0.8,0.1,1.5,0,2.3-0.1c0,0.2,0.7,0.1,1.1,0.1h1.4c0.7,0,0.6,0.2,1.4,0.1h3.4c0.4,0,1.1,0,0.6-0.1h-2c-0.5-0.1-1.3-0.1-2-0.2H532
	c-0.2-0.2-1.4,0-1.4-0.2c-0.6,0.1-1.9-0.1-2,0.1c0.5,0.1,1.7-0.1,1.7,0.1c-1.9,0.1-3-0.2-4.9-0.1c-0.2,0-0.3-0.1,0-0.1
	C525.3,1,525.2,1,524.8,1c-2,0.2-3.7-0.1-6.6,0c-1.3-0.2-3.5,0-4.9-0.2c-4.3,0-6.9-0.1-10.9-0.2c-2.1,0-4.6,0.1-6.3-0.1
	c-0.8,0.1-1.5,0.1-2.3,0c-0.5,0-0.2,0.3-0.9,0.2c-0.3,0-0.6-0.2-0.9,0C494.1,0.7,496,0.7,498,0.6z M506.8,0.7
	c0.1,0.1-0.2,0.2-0.3,0.1S506.7,0.6,506.8,0.7L506.8,0.7z M505.4,0.7c0.1,0.1-0.2,0.2-0.3,0.1S505.3,0.6,505.4,0.7z"/>
<path class="st0" d="M442.1,1.5c0.2-0.2,1-0.1,1.4-0.1c1.2,0,3.4,0,4.9,0c0.9,0.1-0.8,0.1-1.1,0.1c-0.3,0.2-0.8,0-1.1,0
	c-0.2,0-0.4,0-0.6,0c-0.3,0.2-0.2-0.1-0.9,0c-0.5,0.1-1,0.1-1.4,0C442.8,1.5,442.4,1.7,442.1,1.5z"/>
<path class="st0" d="M381.1,1.5c-0.1-0.2,1.1-0.4,1.1-0.1c0.6-0.1,1.1-0.1,1.7,0C383.2,1.8,382.6,1.4,381.1,1.5z"/>
<path class="st0" d="M450.7,1.4c0,0.1-0.4,0.1-0.6,0.1C450.1,1.4,450.5,1.4,450.7,1.4z"/>
<path class="st0" d="M388.9,1.4c0,0.1-0.4,0.1-0.6,0.1h-0.6C387.8,1.3,388.4,1.4,388.9,1.4z"/>
<path class="st0" d="M385.1,1.4c0,0.1-0.5,0.1-0.9,0.1C384.3,1.4,384.8,1.4,385.1,1.4z"/>
<path class="st0" d="M376.2,1.4c0,0.1-0.5,0.1-0.9,0.1h-0.9c0-0.1,0.5-0.1,0.9-0.1H376.2z"/>
<path class="st0" d="M370.8,1.4c0.1,0.1-0.2,0.1-0.3,0.1S370.7,1.4,370.8,1.4z"/>
<path class="st0" d="M459.3,1.4c-0.6,0-0.9,0-0.9-0.2h0.9V1.4z"/>
<path class="st0" d="M457.9,1.3c0,0.1-0.5,0.1-0.9,0.1C457,1.2,457.5,1.3,457.9,1.3z"/>
<path class="st0" d="M456.4,1.3c0,0.1-0.5,0.1-0.9,0.1C455.6,1.2,456.1,1.3,456.4,1.3z"/>
<path class="st0" d="M454.7,1.3c0,0.1-0.4,0.1-0.6,0.1h-0.6C453.7,1.2,454.3,1.3,454.7,1.3z"/>
<path class="st0" d="M452.4,1.3c0,0.1-0.4,0.1-0.6,0.1C451.9,1.3,452.2,1.3,452.4,1.3z"/>
<path class="st0" d="M464.5,1.1c0,0.1-0.5,0.1-0.9,0.1C463.6,1.1,464.1,1.2,464.5,1.1z"/>
<path class="st0" d="M463.3,1.1c0,0.1-0.4,0.1-0.6,0.1h-2c0.1-0.2,0.7-0.1,1.1-0.1H463.3z"/>
<path class="st0" d="M527.7,0.9c0,0.1-0.5,0.1-0.8,0.1H526c0-0.1,0.5-0.1,0.9-0.1H527.7z"/>
<path class="st0" d="M479.3,0.7c0,0.1-0.4,0.1-0.6,0.1C478.8,0.7,479.1,0.7,479.3,0.7z"/>
<path class="st0" d="M491.1,0.6c0.1,0.1-0.2,0.2-0.3,0.1S491,0.5,491.1,0.6z"/>
<path class="st0" d="M490.2,0.6c0,0.1-0.4,0.1-0.6,0.1C489.6,0.6,490,0.6,490.2,0.6z"/>
<path class="st0" d="M488.5,0.6c0,0.1-0.4,0.1-0.6,0.1C487.9,0.6,488.3,0.6,488.5,0.6z"/>
<path class="st0" d="M489.9,0.1c0,0.1-0.5,0.1-0.9,0.1C489.1,0,489.6,0.1,489.9,0.1z"/>
</svg>
