<svg id="Layer_1" data-name="Layer 1" xmlns="http://www.w3.org/2000/svg" viewBox="0 0 619.07 48.67"><defs><style>.cls-1{fill:#fffeff;}</style></defs><title>brush_stroke_2</title><path class="cls-1" d="M268,.14c.3.51-1.54-.19-1.57.36a1.5,1.5,0,0,1-.62-.36,16.86,16.86,0,0,1-4.39.12c.11-.14.55-.3.63-.12A4.67,4.67,0,0,0,263.31,0h2.51C266.47.09,267.88-.13,268,.14Z"/><path class="cls-1" d="M259.23.26c.32.36-.7.21-1.25.24a1.94,1.94,0,0,1-1.25,0C256.8.12,258.29.3,259.23.26Z"/><path class="cls-1" d="M251.09.62c0-.12.39-.09.63-.12C251.7.61,251.33.59,251.09.62Z"/><path class="cls-1" d="M276.16.62c-.06-.1.12-.11.31-.12H279c1.9.09,3,0,5.33,0,.31.33.84-.17,1.25.12,0,.26-1.33,0-1.88.12H281.8c-.88-.1-.81.17-1.57.12-1.31.1-2.61-.16-3.13,0C276.41.92,276.66.63,276.16.62Z"/><path class="cls-1" d="M274,.74c.1-.16.79-.1,1.26-.12V1C274.21,1.12,275,.59,274,.74Z"/><path class="cls-1" d="M286.19.74c0-.12.38-.09.63-.12C286.81.73,286.43.71,286.19.74Z"/><path class="cls-1" d="M287.45.62c5.76-.13,10.16.27,15,.48-.29.4-.59.06-1.57.12a8.46,8.46,0,0,1-2.19-.12c-.29.33-1-.17-1.88,0C296.3,1,295,1.24,295,1c-2,0-2.7,0-4.07-.12-.56.22-.79-.1-1.88,0C288.42.8,287.12,1,287.45.62Z"/><path class="cls-1" d="M237.3.86c1-.44,1.05.36,0,0Z"/><path class="cls-1" d="M236.36.86a21.93,21.93,0,0,1-2.51.36c-1.45-.12-2.71.22-3.45,0,.27-.29,2.18,0,2.5-.24C234.4,1.07,234.92.79,236.36.86Z"/><path class="cls-1" d="M264.88,1.21c-.33.27-2,0-2.82.12h-2.82a17.45,17.45,0,0,0-2.82-.12c-.44-.53,1.88,0,1.88-.36,1.21-.06,1.29.31,2.2.36A7,7,0,0,0,262.37,1,19.32,19.32,0,0,1,264.88,1.21Z"/><path class="cls-1" d="M269.58,1c-.16-.06.23-.15.31-.12S269.67,1,269.58,1Z"/><path class="cls-1" d="M255.47,1.1a2.47,2.47,0,0,1-1.25.24C254.07,1,255,.91,255.47,1.1Z"/><path class="cls-1" d="M266.76,1.34c.11-.14.55-.3.63-.12a36.07,36.07,0,0,0,4.71.12h2.5c.45,0,.89,0,.95.12h-1.26c-1.71.18-4.11.11-6.27.12C268,1.35,266.95,1.5,266.76,1.34Z"/><path class="cls-1" d="M303.43,1.34A3.12,3.12,0,0,1,305,1.21,2.8,2.8,0,0,1,303.43,1.34Z"/><path class="cls-1" d="M306.57,1.21h.63c.15.26-.45.23-.94.24C306.31,1.36,306.57,1.34,306.57,1.21Z"/><path class="cls-1" d="M308.76,1.21h.63v.24h-.63Z"/><path class="cls-1" d="M225.7,1.34c.3.43-1.23.17-1.88.24A10,10,0,0,1,225.7,1.34Z"/><path class="cls-1" d="M253,1.46c-.16-.06.22-.15.31-.12S253.05,1.49,253,1.46Z"/><path class="cls-1" d="M310.33,1.46c0-.12.38-.09.63-.12h.94c0,.12-.38.09-.62.12Z"/><path class="cls-1" d="M226.64,1.46h.63C227.33,1.79,224.92,1.42,226.64,1.46Z"/><path class="cls-1" d="M228.2,1.58c-.16-.06.23-.15.31-.12S228.29,1.61,228.2,1.58Z"/><path class="cls-1" d="M279.3,1.58c0-.12.38-.1.62-.12C279.92,1.57,279.54,1.55,279.3,1.58Z"/><path class="cls-1" d="M322.87,1.58c0-.12.38-.1.63-.12C323.49,1.57,323.11,1.55,322.87,1.58Z"/><path class="cls-1" d="M326.94,1.69h-1.57c-.46-.06-1.62.14-1.57-.12h1.57C325.83,1.64,327,1.44,326.94,1.69Z"/><path class="cls-1" d="M282.74,1.82c0-.12.39-.09.63-.12C283.36,1.81,283,1.79,282.74,1.82Z"/><path class="cls-1" d="M283.69,1.82c.29-.33,1,.17,1.88,0C285.43,2.08,283.9,1.91,283.69,1.82Z"/><path class="cls-1" d="M326.94,1.69c.38,0,.19.17,0,0Z"/><path class="cls-1" d="M328.82,1.82c-.16-.06.23-.15.31-.12S328.91,1.85,328.82,1.82Z"/><path class="cls-1" d="M332.27,1.69c-.07.21-.54.27-1.25.24C331.09,1.73,331.55,1.66,332.27,1.69Z"/><path class="cls-1" d="M285.88,1.94c0-.12.38-.09.63-.12h.94c0,.12-.38.09-.63.12Z"/><path class="cls-1" d="M295.59,2.06c-.43.31-1.92,0-2.51,0h-5c-.05-.34,1.93.1,1.88-.24a4.75,4.75,0,0,1,1.26.12h3.44C294.7,2.08,295.23,2,295.59,2.06Z"/><path class="cls-1" d="M335.72,1.94c0-.12.38-.09.63-.12C336.33,1.93,336,1.91,335.72,1.94Z"/><path class="cls-1" d="M339.16,1.94c-1.13-.06-2,.59-2.2-.12C337.62,1.89,339,1.67,339.16,1.94Z"/><path class="cls-1" d="M339.16,1.94c1.66-.13.37.36,0,0Z"/><path class="cls-1" d="M245.13,2.06c-.08.21-.54.27-1.26.24C243.56,1.93,244.58,2.08,245.13,2.06Z"/><path class="cls-1" d="M341.36,2.17c0-.12.38-.09.62-.12C342,2.17,341.6,2.15,341.36,2.17Z"/><path class="cls-1" d="M240.43,2.29c-.12-.23,1.43-.17.94.12h-.63C240.8,2.31,240.62,2.3,240.43,2.29Z"/><path class="cls-1" d="M350.45,2.17a2.5,2.5,0,0,1-1.25.24C349.27,2.2,349.73,2.14,350.45,2.17Z"/><path class="cls-1" d="M347.31,2.41c0-.12.38-.09.63-.12C347.93,2.41,347.56,2.39,347.31,2.41Z"/><path class="cls-1" d="M354.83,2.41c-.38,0-.19-.17,0,0Z"/><path class="cls-1" d="M354.83,2.41c1.31-.11.06.36,0,0Z"/><path class="cls-1" d="M358,2.65c-.16-.06.23-.15.32-.12S358.06,2.69,358,2.65Z"/><path class="cls-1" d="M361.42,2.65c0-.12.38-.09.63-.12s1.36-.1,1.56,0c.41.19.52,0,1.57,0,2,0,4.85.21,7.84.12,2.58.13,5.13.28,8.15.24a11.43,11.43,0,0,1-4.07.12c-1-.15-.24.39-1.25.24C371.18,3.2,366.93,3,362,3,361.78,2.92,361.86,2.69,361.42,2.65Z"/><path class="cls-1" d="M509.05,2.53h.63C509.74,2.87,507.34,2.5,509.05,2.53Z"/><path class="cls-1" d="M199.68,2.77c-.16-.06.23-.15.32-.12S199.77,2.81,199.68,2.77Z"/><path class="cls-1" d="M336.66,3c0-.12.38-.09.62-.12C337.28,3,336.9,3,336.66,3Z"/><path class="cls-1" d="M218.17,3.13c0-.12.38-.09.63-.12C218.79,3.13,218.42,3.11,218.17,3.13Z"/><path class="cls-1" d="M439.47,3.85c0,.16-.55.11-.63.24A3.25,3.25,0,0,1,437.9,4c-.42,0-.29.21-.63.24-1.37.09.25-.24-.63-.24-2.79.08-4.12,0-6.27.24a8,8,0,0,0-1.57-.36c-.89-.1-.81.17-1.57.12s-.63-.24-1.25-.24c-1.12.34-2.66-.22-3.45.24a5.21,5.21,0,0,0-2.2-.24,4.87,4.87,0,0,0-1.57.12c-.59.05-1.89-.16-1.57.24a4.27,4.27,0,0,0-2.51,0c-.4,0-.44-.15-.94-.12a4.42,4.42,0,0,1-1.88-.24c-1,0-1.33.21-2.51.12-1,.14-.76-.19-1.25-.24-2.53.1-4.77-.17-6.58,0,0-.16-.55-.11-.63-.24-.46.22-2.05,0-2.5.24a44.31,44.31,0,0,0-7.52-.12c-1.83-.17-4,.06-5.64-.36-1.37-.09-2.9.15-3.45,0,.54-.27,2.39,0,3.45-.12,1.31.12,1.55-.06,2.82.12h5c.89-.1.81.17,1.57.12,6.24-.12,10.85.3,15.67.12.89-.1.81.17,1.57.12,4.95-.05,8.71.12,12.54,0,1.87.2,4.78,0,6.58.24,1.7-.15,2.56,0,4.7,0C437,3.94,438,3.61,439.47,3.85Z"/><path class="cls-1" d="M544.79,3.25c0-.12.38-.09.63-.12h.94c0,.12-.38.09-.63.12Z"/><path class="cls-1" d="M548.54,3.25c0-.12.39-.09.63-.12h2.19c-.1.16-.79.1-1.25.12Z"/><path class="cls-1" d="M348.57,3.37c-.16-.06.22-.15.31-.12S348.65,3.41,348.57,3.37Z"/><path class="cls-1" d="M349.82,3.25h.63C350.51,3.59,348.11,3.22,349.82,3.25Z"/><path class="cls-1" d="M553.87,3.37c0-.12.38-.09.63-.12C554.49,3.37,554.12,3.35,553.87,3.37Z"/><path class="cls-1" d="M205.95,3.49c-.16-.06.23-.15.31-.12S206,3.53,205.95,3.49Z"/><path class="cls-1" d="M287.45,3.73c0-.14.57-.1.94-.12C288.33,3.75,287.81,3.71,287.45,3.73Z"/><path class="cls-1" d="M401.54,3.61c-.06.36-1.3-.12,0,0Z"/><path class="cls-1" d="M248.58,3.85c0,.63-1.58.09-2.51.48-1.52-.26-4.24-.06-6.27-.12-.23-.33,1.48.08,1.26-.24h1.88c.75,0,.68-.22,1.57-.12.5,0,1.19.06,1.25-.12A13.48,13.48,0,0,0,248.58,3.85Z"/><path class="cls-1" d="M439.47,3.85c0-.14.46-.07,0,0Z"/><path class="cls-1" d="M513.44,4.93h-.63c-1.17.13-.89-.3-1.88-.24-1.58.08-2.18-.2-3.76-.12-.56-.34-2.47-.18-3.45-.36H498.4a22.21,22.21,0,0,1-4.7,0h-6.58c-.57,0-.67-.15-1.26-.12a10,10,0,0,1-1.88,0,8.19,8.19,0,0,1-.94.12c.11,0-.22-.11-.31-.12a15,15,0,0,0-1.56.12c-.26,0-.31-.12-.63-.12s-.31.13-.63.12a4.86,4.86,0,0,0-1.26-.12c-.88-.1-.81.17-1.57.12,0-.26-1.33-.05-1.88-.12h-6.27c-.56,0-.66-.15-1.26-.12-.14.17-.27,0-.63,0,0,.14-.57.1-.94.12-.14-.18-.28,0-.63,0-1.62,0-3.11-.1-4.7-.12-.46,0-1.12.12-1.57.12-.22,0-.55-.11-.94-.12a45.77,45.77,0,0,0-4.7.12c-2.49-.37-6.59-.12-9.4-.36-1.27.31-3.28-.32-4.07.24.53.09,1.44.64,2.2.24.78-.23,1.23.1,2.19-.12.61.14,1.59-.11,2.2.24.23-.27,1.76,0,2.51-.12s.81.17,1.57.12c1.72-.21,3.66.1,6.59,0,1.49.27,4.46,0,6,.24.81-.35,1.45,0,2.2-.36.27.43.77,0,1.88.12.62,0,.4.33,1.26.24,1.89,0,3.86,0,5.33.12,1.39-.19,3.67,0,5-.24.62,0,.4.33,1.26.24.55,0,1-.11,1.57-.12s.66.14,1.25.12c-.1,0,.21-.11.31-.12a14.37,14.37,0,0,1,1.88.12c-.06,0,.1-.14.31-.12,0,0,.06.11.31.12a29.91,29.91,0,0,1,3.45,0s0,.12,0,.12a11.33,11.33,0,0,1,2.2,0,34.54,34.54,0,0,1,4.39-.12c1.24.24,2.63-.15,3.45.36-.95,0-2.44-.13-2.51.24a11.49,11.49,0,0,0,3.45,0c.09.16.78.1,1.25.12,1.54-.08,1.48,0,3.13,0,.57,0,.66.15,1.26.12,4,0,6.74.38,10.66.36-.23-.47-1.43-.57-2.82-.6.08-.13.62-.08.63-.24h-.94c.3.43-1.76.26-1.57,0h1.57ZM500,4.57c.41,0,.49.21.94.24s.81-.09.94-.24c.41,0,.49.21.94.24a4.72,4.72,0,0,1,1.25.12c.74-.1,1.44.17.31.12h-1.57c-.45,0-.89,0-.94-.12a6.43,6.43,0,0,1-2.19.12C499.52,4.8,499.86,4.73,500,4.57Zm6.89.6c0-.12.39-.09.63-.12C507.48,5.17,507.1,5.14,506.86,5.17Z"/><path class="cls-1" d="M249.21,3.85c.65.07,2.06-.15,2.19.12C251.59,4.41,248.7,4.29,249.21,3.85Z"/><path class="cls-1" d="M269.27,4.33c.22.32-.65.23-.94.36-.25-.08-.86-.19-.94,0-.85.09-.63-.24-1.25-.24-.88-.1-.81.17-1.57.12-3.23-.14-6.11,0-9.4.12-.17-.27.6-.17.63-.36-.33-.27-2,0-2.82-.12s1.11-.12,1.57-.12.56,0,.63-.12c.27,0,.3,0,.31.12,2.5-.23,4.75.2,6.9,0A62.68,62.68,0,0,0,269.27,4.33Z"/><path class="cls-1" d="M304.68,4.33c0-.12.38-.09.63-.12C305.3,4.33,304.93,4.31,304.68,4.33Z"/><path class="cls-1" d="M235.41,4.45c-.33.27-2,0-2.82.12-1.15-.26,1.75,0,1.57-.24C234.72,4.32,234.82,4.48,235.41,4.45Z"/><path class="cls-1" d="M239.8,4.45c0-.12.39-.09.63-.12C240.42,4.45,240,4.42,239.8,4.45Z"/><path class="cls-1" d="M307.51,4.33h1.88c-.1.16-.79.1-1.26.12C307.46,4.54,306.14,4.33,307.51,4.33Z"/><path class="cls-1" d="M413.14,4.45c0-.12.38-.09.63-.12C413.75,4.45,413.38,4.42,413.14,4.45Z"/><path class="cls-1" d="M415.33,4.33c-.07.21-.54.27-1.25.24C413.76,4.21,414.78,4.36,415.33,4.33Z"/><path class="cls-1" d="M417.84,4.45c.05-.14.57-.1.95-.12C418.73,4.47,418.21,4.43,417.84,4.45Z"/><path class="cls-1" d="M419.09,4.45c.05-.14.57-.1.94-.12C420,4.47,419.46,4.43,419.09,4.45Z"/><path class="cls-1" d="M229.46,4.69c-1-.14.3-.34.94-.24s.64.11.31.12h-.94C229.5,4.55,229.48,4.62,229.46,4.69Z"/><path class="cls-1" d="M284.31,5.05a4.85,4.85,0,0,0-1.57.12c-.71-.09-1.6-.11-2.19-.24-1.82.17-4-.1-6.58,0-1,.06-1.1-.22-2.19-.12-.93,0-1.91,0-1.88-.36,2.9.24,5.74-.14,8.15.36,2.24,0,4.44,0,6.27.12Z"/><path class="cls-1" d="M227.58,4.69c.05-.14.57-.1.94-.12C228.47,4.71,227.95,4.67,227.58,4.69Z"/><path class="cls-1" d="M442,4.69c.14-.17.28,0,.63,0C442.52,4.84,442,4.81,442,4.69Z"/><path class="cls-1" d="M558.58,5.17c-1.21.52-3.66-.07-6,.12-.89.1-.81-.17-1.57-.12-3.59.09-6.25-.17-9.72-.12-.32-.4,1-.19,1.57-.24a6.45,6.45,0,0,1,1.88-.12c1.09-.1,1.2.18,2.19.12a13.49,13.49,0,0,0,2.82-.12C552.51,5.14,555.13,4.95,558.58,5.17Z"/><path class="cls-1" d="M251.09,4.81c.3.47-.91.37-1.57.48C249.58,5,250.07,4.78,251.09,4.81Z"/><path class="cls-1" d="M453.89,4.93c.28-.33,1.2,0,1.57,0s.52-.17.94,0A5.69,5.69,0,0,1,453.89,4.93Z"/><path class="cls-1" d="M160.19,5.29c-5.72.08-10.94,0-17.87,0-.05-.14.07-.21.31-.24a3.92,3.92,0,0,1,.63-.12c2,.06,4.18,0,6.58,0s4.81,0,7.21,0a12.85,12.85,0,0,1,2.19.12c.14-.18.27,0,.63,0S160.12,5.2,160.19,5.29Z"/><path class="cls-1" d="M248,5.05a.17.17,0,0,1,.31.12C247.71,5.2,247.62,5.06,248,5.05Z"/><path class="cls-1" d="M459.84,5.05c0-.12.39-.09.63-.12C460.46,5,460.08,5,459.84,5.05Z"/><path class="cls-1" d="M284.31,5.05c.55.07,1.84-.14,1.88.12C285.64,5.1,284.35,5.32,284.31,5.05Z"/><path class="cls-1" d="M287.13,5.17c.49-.3,2.19,0,2.82,0C289.46,5.47,287.76,5.22,287.13,5.17Z"/><path class="cls-1" d="M294.34,5.17c-.3.41-3.3.27-4.08.12C290.7,4.81,293.32,5.48,294.34,5.17Z"/><path class="cls-1" d="M414.08,5.17c-.16-.06.23-.15.31-.12S414.16,5.2,414.08,5.17Z"/><path class="cls-1" d="M425,5.17c-.16-.06.23-.15.32-.12S425.14,5.2,425,5.17Z"/><path class="cls-1" d="M473.32,5.17c-.16-.06.22-.15.31-.12S473.4,5.2,473.32,5.17Z"/><path class="cls-1" d="M474.88,5.17c-.16-.06.23-.15.32-.12S475,5.2,474.88,5.17Z"/><path class="cls-1" d="M480.22,5.17c.08-.15.62-.12.63,0C480.56,5.24,480.28,5.32,480.22,5.17Z"/><path class="cls-1" d="M487.74,5.17c0-.12.38-.09.63-.12h4.39c1.16.07,1.13.11,2.82.12-.38.47-2.21-.06-3.76.12A27.46,27.46,0,0,1,487.74,5.17Z"/><path class="cls-1" d="M515.95,5.17c-.16-.06.23-.15.31-.12S516,5.2,515.95,5.17Z"/><path class="cls-1" d="M240.43,5.41c0-.14.46-.07,0,0Z"/><path class="cls-1" d="M241.37,5.41c.05-.14.57-.1.94-.12C242.26,5.43,241.74,5.39,241.37,5.41Z"/><path class="cls-1" d="M248,5.41c0-.12.38-.09.63-.12C248.57,5.41,248.2,5.38,248,5.41Z"/><path class="cls-1" d="M294.65,5.41c.69-.33,2.24,0,3.13,0A8.66,8.66,0,0,1,294.65,5.41Z"/><path class="cls-1" d="M355.15,5.41c-.16-.06.23-.15.31-.12S355.24,5.44,355.15,5.41Z"/><path class="cls-1" d="M240.43,5.41c0,.15-.45.07,0,0Z"/><path class="cls-1" d="M554.5,36.56c.23-.21.57,0,.94,0,.2-.3.08-.47,1.25-.6-.1.24.07.38.63.36,1.25,0,1.74-.21,3.14-.12a12,12,0,0,0,1.56-.12c.49,0,1.21.08,1.26-.12a30.56,30.56,0,0,0-3.45.12c-.21-.36-.67.11-1.26,0s-1.18.31-1.25,0c.2-.25,1.58,0,1.25-.48h-2.2c1.12-.42-1.14-.07-1.25-.36a10,10,0,0,1,3.13-.24c.66-.19,2.08-.08,2.82-.24,1.49.14,2.56-.28,3.45,0,.3-.36,1.82-.26,2.5-.48h1.88a6.25,6.25,0,0,1,2.51-.24,15.31,15.31,0,0,1,1.57-.36c.5,0,1.2.06,1.25-.12.5,0,1.2.06,1.26-.12,1,0,2.14,0,2.19-.36a21.77,21.77,0,0,0-3.76.24c-4.24,0-7.3.48-11.6.48a6.46,6.46,0,0,1-1.88.12c-.46-.07-1.62.14-1.57-.12a9.92,9.92,0,0,1,3.13-.24c2.11-.19,4-.46,6.58-.48-.05-.26,1.11-.05,1.57-.12,0-.22,1.06-.08,1.25-.24l2.82-.36a56.73,56.73,0,0,1,6-.72c.19-.17,1.21,0,1.25-.24.46-.07,1.62.14,1.57-.12.46-.07,1.62.14,1.57-.12.45-.07,1.62.14,1.57-.12-.83-.16-2.14-.14-3.13-.24a16.53,16.53,0,0,0-3.14.12c-.2-.36-.67.12-1.25,0s-1.19-.06-1.25.12a25,25,0,0,0-2.82,0c-1.17-.16-2.16.36-2.82,0a3.21,3.21,0,0,1,.94-.12c.34,0,.21-.24.63-.24.09-.25.84-.24,1.25-.36,2.67-.06,4.6-.4,7.21-.48-.18-.43,1.87,0,1.57-.48-1.13,0-1.51.22-2.5.24s-2.49.15-2.82-.12c.11-.35.54-.59,1.25-.72-.05-.21,1.78-.47.32-.48a31.11,31.11,0,0,1-3.45.12c-.69.07-2.34.3-2.51-.12,3.16-.27,6.87-.33,9.4-.84,1.09.1,1.2-.18,2.2-.12.83,0,1.84.07,1.88-.24-2.81,0-5.39,0-7.84.12-.64,0-.63-.32-.94-.48-.81.07-1.13,0-.94-.36s1.84-.1,2.2-.36a17.77,17.77,0,0,1,2.5,0,32.09,32.09,0,0,1,3.76-.24,6.11,6.11,0,0,1,1.88-.6c1.85-.09,3.83-.13,5.33-.36,2.11.09,3.26-.19,5.33-.12.2-.24,1.47-.08,1.57-.36a21.39,21.39,0,0,0-4.07,0h-3.13c-.75-.07-2.27.15-2.51-.12,1.56-.08,3.07-.19,4.39-.36a29.8,29.8,0,0,0,5-.36A15.13,15.13,0,0,0,604,23a31,31,0,0,0-3.45.12c-.75,0-.68-.22-1.57-.12h-1.88c-.5,0-1.2.06-1.25-.12a36.73,36.73,0,0,1,4.07-.24c.48-.06,0-.13-.31-.12-1.61.1-2.06-.25-3.45-.24a28.49,28.49,0,0,0-3.14.12c-1.53-.14-4.62.33-4.7-.36.22-.43,2.28-.16,3.45-.24,3-.32,7.06-.25,10-.6h1.57c.78-.14,1.84-.17,2.82-.24.26-.34,2.27,0,2.2-.48-.33-.27-2,0-2.82-.12-.2.29-1.93,0-2.19.24-1-.28-3.71.06-4.39-.36.48-.53,2.94-.31,3.76-.72-.25-.1-.86-.07-.94-.24s-.62-.12-.63,0c-.66-.26-.9.06-1.88,0-.44-.25-1.08.12-1.88-.12h-2.51c-2.43-.25-4.2-.06-6.27-.36a55.82,55.82,0,0,0-5.64.12,28.49,28.49,0,0,0-7.21-.36c-1,0-1.07-.39-2.2-.36a13.08,13.08,0,0,1-2.2-.12h-1.88c-.45-.06-1.62.14-1.57-.12,1.84-.18,3.74-.33,6-.36.61,0,.25-.46,1.25-.36,3.82-.06,6.69-.48,10.34-.6,1.83-.78,5.23-1,8.78-1.08.37,0,.27-.22.32-.36.5,0,.54-.12.93-.12a12.12,12.12,0,0,1,2.2,0c4.86-.46,10.82-.5,14.73-1.32,2.06,0,2.75-.47,5-.36q-.08-.39.94-.36c-.23-.33.62-.24.63-.48a27.88,27.88,0,0,1-2.82.12c-.75-.07-2.27.15-2.51-.12s1.67-.47.63-.72c-.43.24-1.92.06-2.51.24-1,0-1.33.21-2.51.12-.54,0-.81-.09-.94-.24-.5,0-1.2.06-1.26-.12a19.94,19.94,0,0,0,2.83-.36c-.38-.47,1-.9,0-1.2-.24.27-1.76,0-2.51.12h-2.82c-1,.2-3,0-4.07.24-2.22-.31-6.21.06-8.46-.24h-3.76c-.73-.08-.84-.4-1.56-.48-.06.14-.32.07-.32,0-3.12,0-6.88.15-9.09-.24h-3.45a11.89,11.89,0,0,0-1.88-.12c-.45-.07-1.62.14-1.57-.12h4.39c.6-.23.57.07,1.57,0h1.88c.85-.07.78-.5,1.88-.48.51,0,.54-.11.94-.12.65-.07,2.06.15,2.19-.12-1.27-.13-1.48,0-3.13,0-.32-.08-.32-.27-.94-.24a12.11,12.11,0,0,1-1.88-.12c-1-.09-.92.21-1.88.12-.76,0-.68-.22-1.57-.12h-1.88c-.45-.07-1.62.14-1.57-.12h5.64c.62-.16,1.79-.11,2.5-.24,3.38.07,6.9.08,10,.24,1.8-.23,2.4.09,5,0,.95-.24,2.81-.13,3.45-.48-3.62-.33-9.22.09-12.85-.24h-3.45c-.82-.29-3.58.17-3.45-.48,4.82-.28,9.67.13,15,0,.22-.24,1.74,0,1.88-.24-6,0-11.94-.07-17.55-.24-7.16,0-11.15,0-17.24-.24-3,.09-6.06,0-9.71-.12h-2.51c-.9,0-1.71,0-1.57-.36,1.91.15,4.78.12,7.84.12a6.43,6.43,0,0,0,2.19,0c.05.14.57.1.94.12h2.51c.56,0,.65-.11.31-.12H557c-.75,0-.68-.22-1.57-.12-4.59,0-6.57-.26-11.28-.12-.34,0-.21.24-.63.24-.14-.27-1.54,0-2.19-.12s-1.84-.14-1.88.12c.59.05,1.89-.16,1.56.24-10.83-.27-25,.22-37-.36-1-.09-.92.21-1.88.12-6.16-.18-13.89-.1-21.31-.12-1,.09-.92-.21-1.88-.12a4.76,4.76,0,0,1-1.57.12,21.78,21.78,0,0,1-2.82-.12c.1,0-.17.12-.32.12-.78,0-1.08-.13-1.88-.12-.24,0-.54.1-.94.12s-.64,0-.94,0c-.7,0-1.49-.12-2.19-.12-.31,0-.67.1-1.57.12-1.94,0-3.9,0-5.64-.12-2.36.1-6.42-.1-8.78,0-.74,0-.58-.42-1.57-.36h-6.27c-.45.06-1.62-.14-1.57.12.53,0,.59.09.63.24-13.68,0-27.86-.11-41.06.12-.75,0-.68.22-1.57.12-3.62.05-7.84-.12-11,.12-3.18-.06-7,.13-9.71-.12-.89-.1-.81.17-1.57.12-.1-.16-.78-.1-1.25-.12-.25-.08-.86-.19-.94,0-.25-.08-.86-.19-.94,0-.53,0-.59-.09-.63-.24-.73,0-1.77.51-2.51.12.62,0,1,0,.94-.24-.89-.1-.81.17-1.57.12.06.26-.26.38-.94.36-.2-.26.89-.38-.31-.36-.85.08-2.49-.15-2.82.12.53,0,.59.09.63.24-.44,0-.89,0-.94-.12-.28-.07-.56-.14-.63,0a11.92,11.92,0,0,1-1.88-.12,17.23,17.23,0,0,1-3.13,0c-2.74.23-6,.27-9.4.24-.76,0-.69.22-1.57.12a44.48,44.48,0,0,0-5,.12c-.64-.21-.62.09-1.26-.12-.45-.07-1.62.14-1.57-.12a17.3,17.3,0,0,1-2.82.12c-.23-.27-2.17.11-1.88-.36-3.42.29-8,.12-11.6.36a4.77,4.77,0,0,0-1.57-.12c-.72.12-1.89.07-2.51.24A10.78,10.78,0,0,0,320,6.25c-.89-.08-1.07.23-2.19.12-.15,0-.36-.12-.31-.12-.52,0-.53.12-.94.12-2.17,0-4.94,0-7.52,0-.56,0-.66-.11-1.25-.12-.27,0-.7.13-1.25.12,0,0-.12-.12-.32-.12-.93,0-2,.13-3.13.12-1.33,0-3.53-.21-5.64-.12-.4,0-1,.12-1.56.12-.24,0-.34-.15-.63-.12-.1,0,0,.14-.31.12s-.68-.11-1.26-.12c-2.25,0-4.53,0-6.89,0-1.73.22-6.54.08-9.72.12-.76,0-.68.22-1.57.12h-9.41c-.75,0-.68.22-1.57.12-9.09-.16-15.61,0-26-.24-4.21.27-9.69,0-14.42.12a58.22,58.22,0,0,1-8.15,0c-1.48.24-4,.05-5.64.24-2.82-.32-6.15.08-8.78-.12-1.63.07-3.26.11-5,.12s-3.87-.07-5.65,0c-.55,0-.67.12-1.25.12s-.53-.11-.94-.12a1.93,1.93,0,0,0-.63.12c-.38,0-.61-.11-1.56-.12-.51,0-1.07,0-1.57,0a6.67,6.67,0,0,1-1.57,0c-1.26-.12-3.78.09-5,.12-.52,0-.53-.12-.94-.12-.24,0-.52.11-.94.12-2,0-4.51,0-6.89,0a12.09,12.09,0,0,0-2.2-.24c-5.12.19-12.93.14-19.12.12,0,0-.05-.14-.31-.12a.51.51,0,0,1-.31.12c-.84,0-1.56-.11-2.51-.12-.56,0-.66.13-1.26.12-.33,0-.66-.1-1.56-.12-2.6-.06-5.46,0-8.15,0-.25-.1-.86-.07-.94-.24a5.56,5.56,0,0,1-1.88,0H121c-.76,0-.68-.22-1.57-.12-4,0-7.77-.06-11.29-.24a5.37,5.37,0,0,1-1.57.24c-1.05-.22-2.89.13-4.7,0C98.58,6,94.63,6,91.23,5.77c-.63,0-1,.12-1.57.12s-1.16-.13-1.88-.12-1.48.12-2.82.12c-.77,0-1.47-.11-2.19-.12a29,29,0,0,1-3.77,0c-.54.27-2.22.11-2.51.48.87.39,4.46-.27,4.39.48a14.14,14.14,0,0,0-3.76.12H72.74c-1.72.22-4.51,0-5.64.48,0,.22-.39.25-.32.48-.45.05,0,.11,0,.24.36,0,.56,0,.63.12-.26.25-1.29.47-.63.72.23.27,1.19.26,1.25.6a11.5,11.5,0,0,1,2.51.24c.47.23,1.32-.21,1.57.24-1.48-.06-.58.15-.31.36H63.65c-.28.29-1.75.13-1.57.6a1.93,1.93,0,0,0-1.56.48,10.09,10.09,0,0,1,2.5.24c3,0,5,.33,8.78.24.18.29,2-.06,1.88.36-1.12.11-3.12.12-5.33.12-.76.05-.68-.22-1.57-.12-2.09,0-4.67.11-6.27-.12-.54.27-1.16,0-1.88,0,.1,0-.21.11-.31.12s-1.5-.11-1.56.12a6.68,6.68,0,0,0,2.51,0c.93.23,1.55-.16,1.88.24-.88.06-1.33.29-2.19.36-1.86-.07-2.8.21-4.7.12-1,0,.8.35-.32.36.13.29-1.43-.07-.94.36h3.13a9.53,9.53,0,0,1,2.19.24,7.36,7.36,0,0,1-2.51.24,11.45,11.45,0,0,1-2.51.24c-.59,0-.22.4-.94.36H50.48c.11.42.82.31,1.57.24a14.66,14.66,0,0,1,1.57.36c.72-.18-.61-.38.63-.36,0,.2.23.31.63.36s.19-.33.63-.36c-.21.4.65.19.94.12s.21.24.62.24c.06-.14.31-.07.31,0,.46.06,1.62-.14,1.57.12a7.48,7.48,0,0,0-2.82.24c0-.26-1.33,0-1.88-.12-.34,0-.21.24-.63.24.12-.2-.24-.23-.63-.24,0,.3-.38.2-.31,0-.67-.06-.6.17-.63.36a3.33,3.33,0,0,0-.94-.12c-.19.25-.48.45-1.57.36,0-.17,1.32-.38,0-.36A2.71,2.71,0,0,0,48,16c-.51.47,1.35,0,1.25.36-2.44.2-3.56.22-6.58.24-.26.3-2.45-.14-2.19.36a26.73,26.73,0,0,1,3.76-.12c.14-.17.28,0,.63,0h2.82a39.49,39.49,0,0,1,4.7-.12c.8.3,1.72-.18,2.19.24-1.53,0,.48.12.31.36-1.84.1-3.72.17-5.33.36A4.9,4.9,0,0,0,48,17.51c-.54,0-.81.2-.94,0a4.8,4.8,0,0,0-1.25.12c-.38-.13-.64-.1-.62.12-.23.33,1.48-.09,1.25.24.62.2.4,0,1.25,0,.31.16.85.24.94.48h1.56c-.5.47,1.36,0,1.26.36a2.63,2.63,0,0,1-1.57-.12c.05-.2-1.93-.2-1.88,0,.25.1.86.07.94.24a24.78,24.78,0,0,1-3.14,0c-.46.06-.79.18-1.26.24a4.39,4.39,0,0,0-1.88,0c-1.08-.09-1.38.11-1.56.36A7.24,7.24,0,0,0,43,19.31c.29.07.47.33.63.12s.78-.1,1.25-.12v.6c1,0,2.14,0,2.19.36,1,.15.24-.39,1.26-.24a3.53,3.53,0,0,1,.94-.24c-.14.33,1.71-.09,1.57.24-.21.12-.72.12-.63.36-.56,0-.66-.15-1.25-.12,0,.19.15.46-.31.48a20,20,0,0,1-3.14-.12c-.38,0-.15.2-.31.24-1,.27-3.44-.19-4.39.24q1.22-.11.94.36c-1.95,0-2.63.21-5,.24a7.29,7.29,0,0,1-1.88.36,3.66,3.66,0,0,0-2.19.12h3.14a15,15,0,0,1,2.5-.12,9.69,9.69,0,0,1,2.2.24,12.14,12.14,0,0,0-2.2.6,14.81,14.81,0,0,0-2.5.36h2.82c.22-.1,1.75-.27,1.88,0-.25.1-.86.07-.95.24.5,0,1.2-.06,1.26.12a35.72,35.72,0,0,1-5.33.48,3.75,3.75,0,0,1-1.88.24c-.59,0-.22.4-.94.36a4.74,4.74,0,0,0-1.26.12H29.8c-1.07.35-3.74.09-4.39.6a12.63,12.63,0,0,1,2.19,0c.23-.21.57,0,.94,0s.89,0,.94.12a7.28,7.28,0,0,0-2.51.24c1.84.34,3.22-.25,4.39.24a36.67,36.67,0,0,1-4.07.36c-.23.06-.42.18-.63.24a1.17,1.17,0,0,1-.63.12c-3.27,0-5.58.34-8.46.48-1.25.16-2.91.17-4.07.36a10,10,0,0,0-3.45.48c.53,0,.59.09.63.24-1.09-.1-1.2.18-2.2.12-.17.26.6.17.63.36a11.37,11.37,0,0,0-2.51.6c3.15-.15,6.16-.36,9.09-.6.36,0,.17.12,0,.12,0,.12.38.09.63.12a33.9,33.9,0,0,1,5.33.12A4.89,4.89,0,0,1,23.21,29H32.3c.75.07,2.28-.15,2.51.12-1.16.07-3.23-.19-3.45.24a7.4,7.4,0,0,0,1.88.36c-.15.41,1.7.07,1.88.36-.09.16-1.66-.15-1.88.24h2.51A27.56,27.56,0,0,1,39.82,30c-.14.33,1.71-.09,1.57.24-.48.3-2.7-.07-3.14.24.56,0,.65.11.31.12-3.77.36-7.2.29-10.34.72-3.37,0-6.87.3-11,.36-.31.43,1.41.1,1.25.48-1.62.14-3,.38-4.7.48a3.62,3.62,0,0,1-.94.24c-.11.19-.55-.11-.63.12-.93,0-1.06.31-1.88.36a22.48,22.48,0,0,0-6,.72c2.7-.05,5.15-.17,8.78-.12.76,0,.68-.22,1.57-.12h2.82c.37.18,1.3.14,1.26.48-1.66.16-3.78.15-4.7.6h3.44a.85.85,0,0,0,.63-.12c.22,0,.36.11.63.12.49,0,1.2-.07,1.26.12-.27.26-2,0-2.2.24.77,0,.07.4-.32.36a14.23,14.23,0,0,0-2.5.6c.59.3,1.63-.25,1.88.24a7.33,7.33,0,0,1-1.88.36c-.9,0-.55.51-1.57.48-.06.1-.31.12-.31.24,1.21.06,1.53-.22,2.82-.12.1-.16.78-.1,1.26-.12s1.19-.06,1.25.12a8.34,8.34,0,0,1-3.45.6c0,.31-1.17.19-1.57.36-.64,0-.61.33-1.25.36a18.79,18.79,0,0,0-3.45.48,20.85,20.85,0,0,0-3.45.24,13.1,13.1,0,0,0-2.19.12c-.19.21-1.49,0-1.57.24a1.53,1.53,0,0,1,.63.36c.25.1.86.07.94.24.45,0,.11.36.63.36.07.17.94,0,.94.24-.24.31-2,0-1.88.48.56,0,.66-.15,1.25-.12,1-.09.6.33,1.57.24a10.54,10.54,0,0,1,2.82,0c.66-.19,2.08-.08,2.82-.24.85.07,2.49-.15,2.82.12.1.27-.91.13-.94.36,1.15.08,1.2-.26,2.2-.24.62-.2.4,0,1.25,0a4.8,4.8,0,0,1,1.56-.12h1.89c.25-.08.86-.19.94,0a6.5,6.5,0,0,1-2.5.48c-1.11.06-1.81.27-3.14.24-.6.05-.57.34-1.57.24-.19.21-1.49,0-1.57.24a17.6,17.6,0,0,0-3.13.48,3.7,3.7,0,0,0-1.88.24c1.37.16,2.59-.36,3.45,0-.6,0-.25.46-1.25.36a1.71,1.71,0,0,1-.95.36c-.21.24-1.87-.07-1.56.36a16.36,16.36,0,0,1,3.13.12c-.16.18-.46.3-.62.48H10a20,20,0,0,0,4.08-.24,17.37,17.37,0,0,0,2.82.12c3.78-.11,6.65-.57,10.66-.6,1.55-.28,3.92-.26,5.33-.6,0,.34,2.15-.1,2.19.24-.81.45-3,.38-4.39.6H28.85c-.86.11-1.34.37-2.19.48-1.45-.07-1.81.27-3.14.24,0,.22-1.06.07-1.25.24s-.4.25-.94.24-.89,0-.94.12a10.76,10.76,0,0,0,2.51-.12c.66.26.93-.15,1.88-.12,1.65,0,1.86-.13,3.13,0a15,15,0,0,1,2.51-.12c.91,0,1,.27,1.88.24a84.42,84.42,0,0,0,9.09-.24,23,23,0,0,0,3.44.12c.76,0,.68-.22,1.57-.12,1.65.14,2.13,0,4.08,0-.17.1-.32.19-.31.36,1,.15.24-.39,1.26-.24a2.32,2.32,0,0,0,1.88,0c-.17.54,1.78.28,2.51.48,3.38-.19,6.52-.46,10-.6.88,0-.75.33.63.24,1.34-.3,2.69.29,4.7.12.83,0,.25-.47,1.26-.36a36.92,36.92,0,0,0,4.07-.12c1-.09.92.21,1.88.12,2.43-.14,5.85-.11,9.4-.12.76,0,.68.22,1.57.12h3.13c.75,0,.68.22,1.57.12h3.13c.56,0,.66.15,1.26.12h2.19c1,.21,3,.07,4.07.24a18.21,18.21,0,0,0,2.51,0c1.51.22,3.75.16,5.33.36.81,0,1.68,0,2.51,0s1.48.1,2.19.12c3.83.08,8.17-.14,11.6.12a12,12,0,0,1,1.89-.12c1-.09.92.21,1.88.12h3.76c.08-.31.54.17,1.26,0h1.56c.75,0,.68.22,1.57.12h7.84a30.3,30.3,0,0,0,5.64,0h5.33c4.63-.27,10-.24,14.42-.6,4-.06,8.7.13,12.22-.12a47.19,47.19,0,0,0,5.64.12,10.91,10.91,0,0,1,1.88,0c.39,0,.86,0,1.26,0,.61,0,1.25-.12,1.88-.12a13.84,13.84,0,0,0,1.56.12c.56,0,.67-.11,1.26-.12a11.75,11.75,0,0,0,2.51,0c4,.33,10-.09,14.1.24,6.55,0,10.74.24,17.24.24,3.74.33,9.41-.08,13.16.24.88.1.81-.17,1.56-.12.26.23,1.13.11,1.57.12,1.49,0,3.45,0,5.33,0,2.49,0,5,.09,6.9-.12a52,52,0,0,0,5.64.12c.75,0,.68.22,1.56.12H273c.76,0,.68.22,1.56.12h5c.75-.05.68.22,1.57.12,1.83.19,4.19-.24,6.27,0,.09,0,.43.12.31.12a11.92,11.92,0,0,1,2.82-.12c.33.16.14,0,.63,0,.33,0,.68.11,1.25.12a1.42,1.42,0,0,1,.62-.12c.12,0,0,.11.31.12,2.12.08,5.12-.11,7.84,0,.4,0,1.06.11,1.57.12,5.27.09,10.89-.07,16.92,0,.76,0,.68-.22,1.57-.12,6.24-.05,12-.3,17.87-.48,2,0,4.09,0,5.64-.12.76,0,.69.22,1.57.12a3.39,3.39,0,0,1,.94-.12c.36,0,.19.11.31.12.35,0,.22-.12.31-.12,1.4,0,3.24,0,5,0,.63,0,1.58-.11,1.88.12a13.63,13.63,0,0,1,2.82-.12c6.73.29,12.91.08,19.75.36a4.89,4.89,0,0,1,1.57-.12h20.38c.76,0,.68-.22,1.57-.12h5.64c.76,0,.68-.22,1.57-.12h5.33c.75,0,.68-.22,1.57-.12,3.15-.07,7.08.15,9.72-.12a6.44,6.44,0,0,0,1.88.12,21.32,21.32,0,0,1,3.45-.12c.42,0,1.06.12,1.56.12s1.3-.1,1.88-.12c10.51-.28,22.91.21,33.85,0,.75,0,.68.22,1.57.12,1.32-.12,2.71.06,4.7,0,.88-.1.81.17,1.57.12s.68-.22,1.57-.12c2.09.28,5.73,0,7.84.24a14.79,14.79,0,0,0,2.51-.12,3,3,0,0,0,1.56.24c3-.12,5.8-.13,9.72-.12,1.55.24,3.76.24,5.64.36,2.18-.14,3.24,0,5.33-.12,4.42.12,11.43.19,15.67.36.56,0,.66-.15,1.26-.12,1.11.19,2.32-.1,4.08,0,.59-.13,1.48-.15,2.19-.24,1.93.06,3-.21,5-.12,6.37-.48,13.41-.7,19.12-1.44h1.88a20.17,20.17,0,0,1,3.13-.36c.71-.21,2.35-.06,2.82-.36,1.52.1,1.61-.34,3.13-.24.57-.26,2.44,0,2.82-.36a48.06,48.06,0,0,1-6.27,0,11.93,11.93,0,0,1-3.13,0c-1.59.24-3.79.23-5.33.48-1.26-.15-2.29.32-2.51-.12,1.56-.2,3.33-.33,4.7-.6h1.88a20.12,20.12,0,0,1,3.13-.36c.76,0,.68-.22,1.57-.12-.23-.33,1.48.09,1.25-.24,1.61.09,2.06-.25,3.45-.24.63-.24,2.54,0,2.82-.36-3,.11-5.52.37-8.46.48-.49-.21-1.68-.16-2.19-.36.19-.41,2.11-.15,2.82-.36a17.26,17.26,0,0,1,2.82-.24c2-.16,3.72-.42,6-.48a7.85,7.85,0,0,1,1.57-.36c1.22,0,2.29-.09,2.51-.48a33.67,33.67,0,0,0-3.45.36c-2.06,0-3.67.12-5.33.24-.56-.31-2.93.08-3.45-.24-.24-.45,1.2-.26,1.25-.6-.76,0-.68.22-1.57.12-.56-.11-.92-.38-1.57-.12,0-.27-1.33-.05-1.88-.12.1-.24-.07-.37-.63-.36a18.08,18.08,0,0,1-2.82,0c-.19-.21-1.49,0-1.57-.24a47.79,47.79,0,0,1-7.21.12c-.92,0-1,.27-1.88.24.05-.34-1.93.1-1.88-.24a23.42,23.42,0,0,1-3.45.12c.05-.26-1.11-.06-1.57-.12-.08-.36,1.24-.59,0-.72.13.29-1.43-.07-.94.36-.54,0-.81.09-.94.24-1.26-.08-.77.51-1.88.48a4.88,4.88,0,0,0-1.57.12,16.75,16.75,0,0,0-3.45-.36c.09-.07.78-.46,0-.48.15.27-1.7.37-1.88.12a6.47,6.47,0,0,1,1.88-.12c-.24-.22-.93-.08-.31-.36a37.45,37.45,0,0,1,5,0,2.5,2.5,0,0,1,1.26-.24c.32-.08.32-.28.94-.24,1-.15.24.39,1.25.24,1.66-.12,3.28-.27,5.33-.24.25-.46-1.48-.15-2.2-.24-1.17-.13-.9.3-1.88.24v-.36a12,12,0,0,1-3.13,0c-1.17-.07-3.31.23-3.13-.36,4.39-.24,8.88-.44,13.17-.72,1.65,0,1.86-.13,3.13,0a31.29,31.29,0,0,0,4.08-.48c-1,.09-.92-.21-1.88-.12-.24.27-1.76,0-2.51.12-.07-.14-.35-.07-.62,0a3.57,3.57,0,0,1-.94-.24,37.32,37.32,0,0,1,4.08.12C552.88,36.42,554,36.63,554.5,36.56ZM368.63,5.89c.63,0,1,0,.94.24h-.94ZM56.75,14.52c.06-.13.31-.07.31,0S56.75,14.58,56.75,14.52Zm-7.84,3.72c0-.14.57-.1.94-.12C49.8,18.25,49.28,18.21,48.92,18.23Zm1.25,0c.14-.27,1.54,0,2.19-.12.45,0,.89,0,.94.12H52A4.41,4.41,0,0,1,50.17,18.23Zm-5,1.2c0-.12.38-.09.62-.12C45.77,19.43,45.4,19.4,45.16,19.43Zm9.09.36h.94c.09.19-.29.21-.31.36h-.63Zm-2.51.36c-.16-.06.23-.15.32-.12S51.82,20.18,51.73,20.15Zm3.76.12c.56,0,.66.15,1.26.12-.08.21-.54.27-1.26.24Zm-4.39.12a23.42,23.42,0,0,1,3.76.12c-.13.47-1.49-.12-2.19.24C52.13,20.64,51,20.75,51.11,20.39Zm-1.88.24c1-.44,1.05.36,0,0ZM594.93,22.9a1.53,1.53,0,0,1-1.25.12A1.54,1.54,0,0,1,594.93,22.9ZM40.14,28.78h1.57c.32.4-1,.19-1.57.24Zm-.63.84c.56.18-2.83.19-1.56,0,.11,0,.56,0,.63,0C38.85,29.48,38.86,29.63,39.51,29.61Zm2.82-.12a4.85,4.85,0,0,1,1.26.12C43.69,29.83,41.83,29.83,42.33,29.49Zm-2.2.24c0-.12.38-.09.63-.12h.63C41.29,29.78,40.61,29.71,40.14,29.73Zm4.39,0c0-.12.39-.09.63-.12h.94c0,.12-.38.09-.63.12ZM41.39,30c0-.14.57-.1.94-.12C42.28,30,41.76,30,41.39,30Zm3.76,0c-.16-.06.22-.15.31-.12S45.24,30,45.16,30Zm-6.9,1c-.16-.06.22-.15.31-.12S38.35,31,38.26,30.93ZM555.44,35.6c-.16-.06.23-.15.31-.12S555.53,35.64,555.44,35.6Zm-205,2c.14-.27,1.54,0,2.19-.12s2.06-.15,2.19.12c.93-.23,1.94,0,2.51-.12s.66.15,1.25.12h2.51c.8,0,1.61,0,1.57.36C358.84,37.59,355,38,350.45,37.64Zm69.9,0c.43-.27,2.18,0,3.13-.12-.11.36-1.34.13-2.2.12C420.89,37.64,420.78,37.8,420.35,37.64Zm4.07,0c.05-.14.57-.1.94-.12C425.31,37.66,424.79,37.62,424.42,37.64ZM374,38a6.46,6.46,0,0,1-1.88-.12,12,12,0,0,1-1.88.12c-.51.09-1.36-.24-.63-.24a1.92,1.92,0,0,1,1.25,0C371.78,37.88,374,37.51,374,38Zm-6.27-.24a9.63,9.63,0,0,1-2.19.24C365.24,37.55,367,37.85,367.69,37.76Zm6.58.12c-.05-.26,1.11-.05,1.57-.12A2.07,2.07,0,0,1,374.27,37.88Zm3.76,0c-.09.16-.78.1-1.25.12C376.86,37.72,377.61,37.73,378,37.88Zm15,0a1.87,1.87,0,0,1,.94-.12C394.25,37.85,392.75,38.12,393.08,37.88Zm-190.26,0c.26,0,.3,0,.31.12.38.37,1.2-.17,1.56.12-.27.35-.47.14-1.25.12s-2.34.3-2.2-.24C201.7,37.94,202.87,38.14,202.82,37.88ZM378.34,38c-.16-.06.23-.15.31-.12S378.43,38,378.34,38Zm2.2-.12h.63C381.23,38.22,378.82,37.85,380.54,37.88Zm40.75,0h.63C422,38.22,419.57,37.85,421.29,37.88Zm1.26.12c.05-.14.57-.1.94-.12C423.43,38,422.91,38,422.54,38Zm3.13,0c-.16-.06.23-.15.32-.12S425.76,38,425.67,38ZM297.79,39.68c.64,0,.3.45.94.48S299.42,40,300,40c.92-.11.09-.44.63-.48,1.37,0,.57.21.63.6,1.33-.11,2.78.37,3.76,0,.34.09,1.44.47,1.88.12.41,0,.28.21.63.24h1.88a12.21,12.21,0,0,0,1.88.12c.4,0,.43.15.94.12,0,.14-.05.34.31.36-.4.51-1-.11-2.19,0a8.71,8.71,0,0,0-1.57.24c-3.46,0-5.81.17-9.09,0-.54,0-.8-.09-.94-.24S298,41,297.47,41s-.19.13,0,.24c0,.19-.8.09-.62.36-1.52.08-2.21-.16-3.14,0-.24-.46-3.07.05-2.82-.6,1.59,0,4.26.72,5,0-.52-.51-.85.19-1.88-.12-.86.09-.63-.24-1.26-.24a6.28,6.28,0,0,1-2.51-.24c-.38,0-.74,0-.63.24-.59,0-.22-.4-.94-.36s-.66.19-.31.36c-.14.19-1,.1-.63.48a14.94,14.94,0,0,0-2.51.12A2.46,2.46,0,0,1,284,41c-.35,0-.49.17-.62,0-.72,0-1.18,0-1.26.24-.19-.21-1.49,0-1.57-.24-.85-.09-.63.24-1.25.24a12.14,12.14,0,0,0-3.14,0c-2.48-.13-4.92-.28-7.52-.36a16.41,16.41,0,0,0-4.07-.48l.94-.36c.55-.07,1.84.14,1.88-.12.42,0,.29.21.63.24s.34-.19.31-.36c-.37-.32-1.63,0-2.2,0-.75.07-2.27-.15-2.51.12a7.28,7.28,0,0,0-2.2-.24c-.84,0,.84.46-.62.36-.23-.23-.93-.08-.31-.36-.55.07-1.84-.15-1.88.12a7.36,7.36,0,0,0-2.19-.24c0-.19-.8-.09-.63-.36-1.57-.08-2.43.11-3.76.12a5.64,5.64,0,0,1-1.88-.24c-3.93.33-6.39-.11-10.66,0a28,28,0,0,1-6-.12,30.89,30.89,0,0,1-4.07-.12,8.75,8.75,0,0,0-1.57.24c-1-.05-2.71.16-2.82-.24a4.86,4.86,0,0,1-1.57.12,16.65,16.65,0,0,1-1.88-.24c-2.13.09-3.33-.16-5.33-.12a9.26,9.26,0,0,0-2.2.36c-2.44,0-3.71-.09-5.64,0-.1-.16-.44-.23-.31-.48a4.84,4.84,0,0,1-1.57-.12c.22-.43,2.29-.16,3.45-.24,1,.09.92-.21,1.88-.12,1-.1,1,.19,1.56.24s.25-.31.94-.24c1-.09.92.21,1.88.12.19.21,1.49,0,1.57.24.92,0,1-.27,1.88-.24.05.14.5.13.94.12h2.82a3.31,3.31,0,0,1,.94.12h5.65a5.34,5.34,0,0,0,1.57-.24,6.44,6.44,0,0,0,2.19,0c.12.17.38.2,0,.36,1,.1,1-.19,1.57-.24h3.13l.94.36c1,.14.76-.19,1.25-.24h4.08c1-.1.65.31,1.26.36.41,0,.29-.21.63-.24,2.24,0,4.34.1,6.27.24,1.7,0,2-.06,3.13-.12a28.57,28.57,0,0,0,4.7.12c.86-.09.63.24,1.25.24,2.41-.31,4,.1,6-.12a4.06,4.06,0,0,1,1.25.12c.59,0,.69-.14,1.25-.12a35,35,0,0,0,5,.12c.87.06,1.63.18,2.5.24a13,13,0,0,0,2.2-.12c2.29.15,3.64-.05,5.64.24a4.16,4.16,0,0,0,1.26-.12c3.17.2,5,.18,8.15.36.86-.09.63.24,1.26.24C296.62,39.69,297.92,39.48,297.79,39.68Zm136.35-1.32a5.33,5.33,0,0,1-1.57.24,6.52,6.52,0,0,1-1.88-.12,5.47,5.47,0,0,1-2.2,0c-.89-.1-.81.17-1.57.12-.56,0-.66-.15-1.26-.12h-6c-.06-.1.12-.11.31-.12a8.23,8.23,0,0,1,2.82,0,27.6,27.6,0,0,1,4.07-.12c1.4.17,1.95,0,3.14.12.88.1.81-.17,1.56-.12A14.71,14.71,0,0,0,434.14,38.36Zm-242,0h7.21c-.15.54-1.48.27-2.51.24-.95.16-2.5.08-3.45.24C193.22,38.6,191.83,38.81,192.16,38.36Zm182.42.12c-.19.38.59.37,0,.6-1.55-.2-2.49-.11-3.76-.24-.14.25.45.23.94.24-.14.27-1.55,0-2.2.12-.09.32,1.22.09.94.48a13,13,0,0,1-2.2-.12c.51-.16.39-.57,1.57-.48a10.15,10.15,0,0,0-1.88-.24,8.78,8.78,0,0,0-1.57.24c-1.09.1-1.2-.18-2.19-.12a2.9,2.9,0,0,1,1.88-.12c1,.06.83-.32,1.56-.36.44,0,.89,0,.94.12.19-.21,1.49,0,1.57-.24.46.07,1.62-.14,1.57.12A13.34,13.34,0,0,1,374.58,38.48Zm.94-.12c1.5-.18,2.69.51,3.13,0,.41.24,1.66.17,1.88.48.94-.08-.3-.26,0-.48h2.2c.49.43-1.06.07-.94.36s.49-.15.94.12c.49,0,1.19-.06,1.25.12.63,0,.4-.33,1.26-.24.69.36,2.47,0,3.76.36a23.33,23.33,0,0,1,3.76.12c.18-.11,1.29-.44.63-.48.22-.38.84-.16,1.57-.12,0,.12-.38.09-.63.12.11.4,1.81.19,2.82.24s.81-.17,1.57-.12c-.13.29,1.43-.07.94.36.19,0,1.21-.3,1.25,0,.76-.11.83-.48,2.2-.36.68,0,1,.1.94.36.25-.1,1.92-.12,1.88.24a7,7,0,0,1-3.45-.48c-.72,0-.35.35-.94.36a10.82,10.82,0,0,0-2.51.12c-1.26-.2-4.36.22-6-.12h-3.45c-1.34-.28-4.33.06-5.64-.24a22.18,22.18,0,0,1-4.7,0c-.46.05.12.15,0,.36-.46-.1-1.21-.09-.94-.48-1.29-.09-1.61.18-2.82.12C374.84,38.83,375.68,38.74,375.53,38.36Zm15.67.24c-1.27-.22-2.51.19-3.76-.12-1.56.26-3.06-.09-4.39.12.36-.46,2.74-.15,4.07-.24h2.5C390.22,38.41,391.52,38.2,391.2,38.6Zm.63-.12c0-.14.57-.1.94-.12-.2.11-.38.22,0,.24-.2.12-.72.12-.63.36C391,38.93,392.7,38.43,391.82,38.48Zm15.67,0c-1,.35-1.91,0-3.14.24C404.32,38.07,406.53,38.47,407.5,38.48Zm27.27,0c0-.12.38-.09.62-.12a47.62,47.62,0,0,0,5.33,0c0,.41-1.72.24-2.82.24A15.85,15.85,0,0,1,434.77,38.48Zm6.58,0c.08-.15.63-.12.63,0S441.7,38.47,441.35,38.48Zm-98.11.12c.3.43-1.23.17-1.88.24h-2.2a41.11,41.11,0,0,0-4.39-.12c-.11-.2.24-.23.63-.24C337.88,38.54,341.3,38.72,343.24,38.6Zm9.72.12c.8,0,.38.09.31.24,1,.07,1-.23,1.56,0,0,.26,1.33.05,1.89.12-.23.54-1,.19-2.2.24a19.24,19.24,0,0,0-2.51,0c-.72-.13-1.89-.08-2.5-.24-1.9.16-3.35-.13-5.64-.12,0-.26.78-.26,1.57-.24,1,.13,2.56.06,3.45.24h3.45C353.21,39,351.58,38.63,353,38.72Zm6.58,0c.19.21-.92.5,0,.6-.71.45-.56-.41-.94-.48a12.16,12.16,0,0,1-1.88.12C356.6,38.47,358.67,38.83,359.54,38.72Zm.63.12c-.16-.06.22-.15.31-.12S360.25,38.87,360.17,38.84Zm1.25,0c.06-.14.31-.07.31,0S361.42,38.91,361.42,38.84Zm51.72,0a1.54,1.54,0,0,1-1.25.12C412.16,38.61,412.35,38.83,413.14,38.84Zm6.27,0a8.66,8.66,0,0,1,3.14,0c-.05.14-.57.1-.94.12a3.25,3.25,0,0,1-.94.12c-.07.21.32.6-.63.48C420,39.24,420.21,38.85,419.41,38.84Zm3.45,0c.33-.27,2,0,2.82-.12s2.49-.15,2.82.12a4.82,4.82,0,0,1,1.57-.12,3.77,3.77,0,0,1-1.88.24c-.39.05-.65.15-.63.36-.36,0-.8.21-.31.24a3.89,3.89,0,0,1-2.2.24c-.3,0-.24.15-.31.24a8.56,8.56,0,0,0-1.57-.24c-.14-.33,1.71.09,1.57-.24a17.54,17.54,0,0,0-2.2-.24c.33-.27,2,0,2.82-.12C425.57,38.68,423.16,39.16,422.86,38.84Zm8.46-.12c.63,0,1,0,.94.24h-.94Zm33.54,0h5.64c-.63.51,1.2.22,2.51.24.36,0,.17-.12,0-.12-.05-.26,1.11-.06,1.57-.12-.08.13-.62.08-.63.24a7,7,0,0,0,1.57.12c-.84.5-2.37,0-4.07.12a5.38,5.38,0,0,0-1.57.24c-.46-.1-.68-.3-.63-.6a12.19,12.19,0,0,1-1.88.12c-.3.43,1.36.12,1.57.36a10.17,10.17,0,0,1-1.88.24c0-.12-.38-.09-.63-.12.13-.25-.21-.32-.31-.48C465.32,39,464.89,39.16,464.86,38.72ZM405.93,39c0-.12.38-.09.63-.12C406.55,39,406.17,38.93,405.93,39Zm1.88,0c.08-.15.62-.12.63,0C408.16,39,407.88,39.11,407.81,39Zm25.39-.12a4.75,4.75,0,0,1,1.25.12c0,.26-.79.26-1.57.24C433,39.1,433.21,39,433.2,38.84Zm4.39,0c.3,0,.24.15.32.24a3.53,3.53,0,0,0,.94.24c.27.1.18.33.63.36.12.23-1.43.18-.94-.12-.14-.15-.4-.24-.94-.24.12-.2-.25-.23-.63-.24C437,39,437.58,39,437.59,38.84Zm4.08.12c-.16-.06.22-.15.31-.12S441.75,39,441.66,39Zm1.25-.12c1.14-.11.44.47.63.72.37,0,.34-.19.31-.36.23.19,1.54,0,1.26.36-.89-.1-.81.17-1.57.12v-.12C442.72,39.62,442.47,38.87,442.91,38.84ZM461.1,39c.05-.14.57-.1.94-.12C462,39,461.46,38.94,461.1,39ZM410,39c.41,0,.5.21.94.24-.08.21-.54.27-1.26.24C409.65,39.22,410.07,39.19,410,39Zm69.28,0c.45.07,1.62-.14,1.56.12.29-.07,1.16-.28.94.12.75,0,.68-.22,1.57-.12.21.43-2.65.3-2.51,0C480.39,39,479.22,39.22,479.28,39Zm5,.12c.06-.14.31-.07.31,0S484.29,39.15,484.29,39.08ZM358,39.32c.38,0,.19.17,0,0C357,39.3,358.27,38.82,358,39.32Zm119.11-.12c-.16-.06.23-.15.31-.12S477.17,39.23,477.08,39.2Zm-142,.12c0-.14.57-.1.94-.12C336,39.34,335.46,39.3,335.09,39.32Zm30.4-.12c.09.46-1.48.64-1.57.12C364.68,39.37,364.61,39.1,365.49,39.2Zm7.84.12c.13-.27,1.72-.12,1.57.12.56,0,.66-.15,1.25-.12.16.1.32.19.31.36.2.12.72.12.63.36a41.1,41.1,0,0,0-4.39-.36C372.06,39.29,374.48,39.51,373.33,39.32Zm41.06,0c-.84.43-2-.27,0,0Zm13.79,0c.9-.49.84.39,1.57.36s1-.1.94-.36a13.57,13.57,0,0,1,2.82.12c.06.34-2-.14-1.56.36a16.92,16.92,0,0,0-2.19.12c-.75,0,.17.55-.94.36-.05-.14.07-.21.31-.24C428.67,39.85,428.71,39.48,428.18,39.32Zm13.48,0a.17.17,0,0,1,.31.12A.17.17,0,0,1,441.66,39.32Zm-118.8.12c.9-.16,3,.1,4.7,0,.95.24,3.18,0,4.07.24-.69.6-2.23.15-4.07.24a3.23,3.23,0,0,1-.94-.12c-.85.07-2.49-.15-2.82.12.38,0,.2.17,0,0C323,40,322.78,39.75,322.87,39.44Zm58,0c-.16-.06.23-.15.31-.12S380.94,39.47,380.85,39.44Zm2.51-.12a4.73,4.73,0,0,1,1.25.12C384.71,39.65,382.86,39.65,383.36,39.32Zm51.72,0c.06.34-1.35.34.31.36,1,.16-1.1.12-1.57.12v-.36A4.13,4.13,0,0,1,435.08,39.32Zm11.6.12c-.74.39-1.27-.42,0,0Zm7.52,0c.06-.14.32-.07.31,0S454.2,39.51,454.2,39.44Zm11.6-.12a5.36,5.36,0,0,1-2.51.24c-.12,0-.4-.12-.31-.12-.25,0-.32.12-.63.12-1.3,0-2.88,0-4.39,0-.48-.06,0-.12.31-.12h1.26C461.36,39.3,463.56,39.31,465.8,39.32Zm-284,.12v.24h-.63c-.07.23.35.26.31.48-.83,0-.81-.25-.94-.48h.63C181.22,39.53,181.28,39.4,181.81,39.44ZM336,39.92c-.59.13-2.33-.09-3.77,0v-.36a3.35,3.35,0,0,1,.94-.12c1-.09.92.21,1.88.12C335,39.85,336.52,39.49,336,39.92Zm15.67-.36c0-.12.38-.09.63-.12,1.33,0,2.19.2,3.76.12-.19.49-.86.24-1.88.24C353.49,39.68,352.32,39.72,351.7,39.56Zm33.85,0c0-.12.38-.09.63-.12C386.17,39.56,385.8,39.53,385.55,39.56Zm66.14,0c.76-.39,1.5.33,0,0ZM248,39.68c.55-.39,1.27.14,1.57.24.5,0,.54-.11.94-.12s.56,0,.63-.12c.46.06.79.18,1.26.24,1.48-.29,2.94,0,4.7,0-.39.51-1.7,0-2.82.12-.32.4,1,.19,1.57.24a4.86,4.86,0,0,0,1.57.12c-.09.25-1.17.11-1.26.36-3.81-.16-6.22-.31-11-.24a1.69,1.69,0,0,0-1.26-.36c.24-.27,1.76,0,2.51-.12a15.63,15.63,0,0,1,1.88.24,26.86,26.86,0,0,1,2.82-.12c-.23-.27-1.76,0-2.51-.12C248.68,39.8,248.51,39.66,248,39.68Zm129.45,0c0-.12.38-.09.63-.12,2.92.18,5.17-.07,8.46.24h3.76c.89-.1.81.17,1.57.12h2.82c.65.07,2.18-.19,1.88.24a24.82,24.82,0,0,0-2.82,0,11.76,11.76,0,0,1-1.56-.12c-.24,0-.32.13-.63.12,0,0-.12-.12-.31-.12-.65,0-2.24,0-3.76,0a27.19,27.19,0,0,0-2.82-.12c-1.11.21-.77-.08-1.88-.12-.23.21-.57,0-.94,0-.23.21-.57,0-.94,0-.23.27-1.76,0-2.51.12A3.54,3.54,0,0,0,377.4,39.68Zm16.93,0c-.76.39-1.5-.33,0,0Zm1.57,0c-.16-.06.23-.15.31-.12S396,39.71,395.9,39.68Zm-217.53.12c.08-.15.62-.12.63,0C178.72,39.87,178.43,39.94,178.37,39.8Zm5.64-.12c.63,0,1,0,.94.24H184Zm63.63.12a5.56,5.56,0,0,1-2.2.12c-1-.12.86-.06,1.26-.24A3.22,3.22,0,0,0,247.64,39.8Zm112.21.12a10.71,10.71,0,0,0-2.5-.12C356.35,39.69,360.33,39.46,359.85,39.92Zm-188.69,0c0-.12.38-.09.63-.12C171.77,39.92,171.4,39.89,171.16,39.92Zm.94,0c0-.12.38-.09.63-.12C172.72,39.92,172.34,39.89,172.1,39.92Zm15.67,0c-.05-.26,1.11-.05,1.56-.12C189.2,40.41,188.68,39.94,187.77,39.92Zm2.82-.12h.63C191.28,40.14,188.88,39.77,190.59,39.8Zm2.51.12c0-.12.38-.09.63-.12C193.72,39.92,193.34,39.89,193.1,39.92Zm7.21,0c-.16-.06.23-.15.31-.12S200.4,40,200.31,39.92Zm38.87,1.32c-6.42-.21-12.52-.25-18.81-.36-.58,0-1.05-.1-1.56-.12-4.6-.15-8.23-.1-12.86-.24,0-.26.79-.26,1.57-.24s2.06-.15,2.19.12a6.59,6.59,0,0,1,1.88-.12c.65.07,2.06-.15,2.2.12A17.13,17.13,0,0,1,216,40c.86-.09.63.24,1.25.24.2.17,1.21,0,1.26.24,4.07-.44,8.66.5,12.85,0,.38,0,.19-.13,0-.24.56,0,.73-.12.63-.36,3.2.05,5.17-.14,7.21,0,0,.3-1.17.28-1.57.12a16.3,16.3,0,0,1-1.88.24c-1.19.05-2.23-.31-3.14,0,1,.85,6.61.33,7.84.84,1.66-.13.37.36,0,0A4.13,4.13,0,0,0,239.18,41.24Zm59.56-1.32c0-.12.38-.09.63-.12C299.35,39.92,299,39.89,298.73,39.92Zm9.71-.12c0,.56-.89.23-1.88.24A5.63,5.63,0,0,1,308.45,39.8Zm2.82.12c-.05-.26,1.11-.05,1.57-.12a.44.44,0,0,1,.31.48c.63,0,1,0,.94.24a13,13,0,0,0-2.2-.12C311.46,40.33,311.85,39.94,311.27,39.92Zm37,.36c-2.12,0-4.2-.07-6-.24-.59,0-.69.13-1.25.12a8.4,8.4,0,0,0-2.2,0c0-.36-2.32.17-1.88-.36h2.2c.55.07,1.84-.14,1.88.12a13.09,13.09,0,0,1,3.13,0c.85.07,2.49-.15,2.82.12.38,0,.74,0,.62-.24a8.15,8.15,0,0,1,1.26.36c1.66-.13.37.36,0,0C348.64,40.19,348.26,40.16,348.26,40.28Zm50.15-.48c1.16-.08,1.34.21,2.5.12,0,.09-1,.36-.94.12-.8,0-.51.45-.94.6s-1.2-.06-1.26.12c-1-.32-2.46.31-2.51-.36.69-.26,1.28.12,2.51,0S397.8,40,398.41,39.8Zm-202.49.12c.25.1.86.07.94.24.89.1.81-.17,1.56-.12.53.16,2,0,1.88.36C198.9,40.22,196.17,40.54,195.92,39.92ZM349.2,40c-.16-.06.22-.15.31-.12S349.28,40.07,349.2,40Zm47.64,0c1-.44,1.06.36,0,0Zm6,0c-.16-.06.23-.15.31-.12S402.88,40.07,402.79,40ZM405,40c-.16-.06.23-.15.32-.12S405.08,40.07,405,40Zm-95.91.12c.05-.14.57-.1.94-.12C310,40.18,309.45,40.14,309.07,40.16ZM352,40c.75-.1,1.46.59,1.57,0,.55,0,.71.21.63.48C353.37,40.4,351.75,40.58,352,40Zm3.45,0a12.14,12.14,0,0,0,1.88.12c-.1.16-.78.1-1.26.12-.05.26,1.11.05,1.57.12s1.13.08.63.12h-3.45C355,40.34,355.3,40.21,355.46,40Zm57.67.12c0-.12.38-.09.63-.12C413.75,40.16,413.38,40.13,413.14,40.16Zm2.2,0c-.16-.06.22-.15.31-.12S415.42,40.19,415.33,40.16Zm26,0c-.16-.06.23-.15.32-.12S441.43,40.19,441.35,40.16Zm33.86.12c0,.34-2.15-.1-2.2.24-.4-.17-1.48-.07-1.88-.24,0-.34,2.15.1,2.19-.24A7.1,7.1,0,0,1,475.2,40.28Zm53.6-.12c.05-.14.57-.1.94-.12C529.69,40.18,529.17,40.14,528.8,40.16ZM331,41.12h4.39c0-.34-2.15.1-2.19-.24A4.79,4.79,0,0,1,332,41H330.7c-.2,0-.35-.12-.31-.12-.48,0-1,.26-1.57,0,0-.16.55-.11.62-.24-.62-.43-1.43,0-2.82-.12-.5-.47,1.35,0,1.25-.36a13.12,13.12,0,0,0,3.13.24c0,.22-1.06.07-1.25.24.59.4,2-.21,2.51.12.59,0,.69-.14,1.26-.12.88-.1.81.17,1.57.12.46.07,1.62-.14,1.57.12a1,1,0,0,0,.62-.24c.85,0,1.47.5,1.88,0a36.48,36.48,0,0,0,6.58.36c.62,0,.62.16.94.24.62,0,.62-.16.94-.24a16.41,16.41,0,0,1,3.14.12c7-.08,12.55.4,19.43.36.59,0,.69.13,1.25.12,2.85-.18,4.27.09,7.21.12a1.52,1.52,0,0,1-.63.36c.13-.23-1.42-.18-.94.12-.44,0-.36-.35-.63-.12-.46-.07-1.62.14-1.57-.12-.49.05-.27.38-1.26.24.14.27,1.54,0,2.2.12,0,.09,0,.12.31.12.56,0,.81-.24,1.25,0,1-.13,1.07,0,2.2-.12,0,.2.87.07.94.24.59,0,.69-.13,1.25-.12s1.62.14,1.57-.12a3.77,3.77,0,0,1,.62.12c.19,0,.38,0,.32-.12s-.37,0-.32-.12c-.22-.27-2.17.11-1.88-.36,1.48.09,3.68-.06,6,0,.55.07,1.84-.15,1.88.12.59,0,.69-.13,1.26-.12A26.89,26.89,0,0,0,395,42c-.54.36-1.14.13-2.19.12-1.94.28-4.58,0-6.27.12a4.86,4.86,0,0,1-1.57-.12,1,1,0,0,0-.63.24,32.93,32.93,0,0,1,3.76.24h2.19a10,10,0,0,0,1.88-.24c1-.15.24.39,1.25.24a4,4,0,0,0,1.25-.12c.38,0,.74,0,.63-.24a3.24,3.24,0,0,0,.94-.12c.55.11,1.68,0,1.56.36,1,0,.9-.38,2.2-.24-.13.17-.38.2,0,.36-.43,0-.33.31.31.24,0-.14.46-.07,0,0,0,.26-1.33.05-1.88.12s-.62-.16-.94-.24c-1-.14-.76.19-1.25.24a15.41,15.41,0,0,0-3.45,0c-1.4-.15-3.21-.13-5-.12a3.33,3.33,0,0,0-.94.12c-.55.07-1.84-.14-1.88.12a23.32,23.32,0,0,0-3.76-.12c-2.61,0-3.78.08-6,0a16.92,16.92,0,0,0-1.88.12c-.78-.18-2.43,0-3.13-.24a53.14,53.14,0,0,1-7.84,0,58,58,0,0,1-6-.12,12.89,12.89,0,0,1-2.2.12c-3.91-.19-6.44-.23-11-.24a3.28,3.28,0,0,1-.94-.12h-6.58a4,4,0,0,1-1.25-.12,19,19,0,0,1-2.51,0c-1.11,0-2.53.09-2.51-.36A19,19,0,0,0,332,42c.05-.26-1.11-.05-1.57-.12-1-.1.56-.16.94-.12.64,0-.07-.35-.31-.36-.06.36-1.31-.11,0,0Zm19.43-.84c.08-.15.62-.12.63,0S350.8,40.27,350.45,40.28Zm116.91-.12a17.4,17.4,0,0,0,2.82.12,17.63,17.63,0,0,1-2.2.24c-1.25-.22-2.27.17-3.45-.12-.41.32-2.51,0-2.51.48-.61,0-.62-.16-.94-.24h-3.45c-1-.12-3.18.26-3.13-.24a55.28,55.28,0,0,0,5.64-.12c1,0,1.82,0,2.51,0,.45,0,.66.11.94.12-.09,0,.16-.11.31-.12s.38.11.62.12C464.89,40.09,467,40.45,467.36,40.16Zm-266.43.24c-.16-.06.23-.15.31-.12S201,40.43,200.93,40.4Zm124.75,0c-.76.41-1.81,0-3.13.24-.5,0-.54-.11-.94-.12C322,40.07,324.78,40.3,325.69,40.4Zm33.85-.12c.41,0,.49.21.94.24.06.1-.12.11-.31.12h-.63Zm1.25,0c.91-.18.91.54,0,.36Zm63.63.12c0-.12.38-.09.62-.12C425,40.4,424.66,40.37,424.42,40.4Zm51.09,0c.05-.14.57-.1.94-.12C476.4,40.42,475.88,40.38,475.51,40.4Zm77.42,0c0-.12.38-.09.63-.12C553.55,40.4,553.18,40.37,552.94,40.4Zm-160.8.48c0-.14.05-.34-.31-.36.23-.24,2.32-.18,2.19.12q1.22-.11.94.36c-.29-.13-1.15,0-.94-.36C393.13,40.62,393.41,41,392.14,40.88Zm59.24-.48v.36c-.55,0-1.57.12-1.25-.24A4.08,4.08,0,0,1,451.38,40.4Zm-139.17.24c-.16-.06.23-.15.31-.12S312.3,40.67,312.21,40.64Zm64.88,0c-.16-.06.23-.15.31-.12S377.18,40.67,377.09,40.64Zm22.57,0c-.16-.06.23-.15.31-.12S399.74,40.67,399.66,40.64ZM4.4,40.76c-.16-.06.23-.15.31-.12S4.49,40.79,4.4,40.76Zm253.26,0c0-.12.39-.09.63-.12C258.29,40.76,257.91,40.73,257.67,40.76Zm108.46,0c-.05-.26,1.11-.06,1.56-.12H373c1.39.19,3.67,0,5,.24a22.79,22.79,0,0,1,3.14,0,2.42,2.42,0,0,1,1.25,0c.55.06,1-.05.94.24-1.65-.18-4.93-.1-7.84-.12C372.08,40.77,369.48,40.89,366.12,40.76Zm75.85,0c0-.12.38-.09.63-.12C442.59,40.76,442.22,40.73,442,40.76Zm26.64,0c-.13.27-1.66,0-1.88.24a16.45,16.45,0,0,1-3.13-.12c-.05-.34,1.93.1,1.88-.24.27,0,.3,0,.31.12A11.39,11.39,0,0,1,468.62,40.76Zm5.33,0c0-.12.38-.09.63-.12C474.56,40.76,474.19,40.73,473.95,40.76Zm-213.14.12c-.16-.06.22-.15.31-.12S260.89,40.91,260.8,40.88Zm2.82,0c.62-.34,2,0,2.82,0C265.77,41.25,264.68,40.76,263.63,40.88Zm195.28,0c0-.14.57-.1.94-.12C459.79,40.9,459.27,40.86,458.9,40.88Zm10,0c.33-.27,2,0,2.82-.12.22.32-1.48-.09-1.26.24A4.85,4.85,0,0,0,468.93,40.88Zm58.61-.12c.51,0,.54.11.94.12C528.61,41.11,527.06,41.05,527.54,40.76Zm21.63.12c-1.22.45-4.33.18-6,.48-.5,0-.54-.11-.94-.12a11.45,11.45,0,0,1-3.45,0c.71-.51,1.9-.12,3.13-.36C544.94,40.93,546.2,40.93,549.17,40.88Zm-158.29.24c-.08.28-1.38.07-1.57,0a17.62,17.62,0,0,1-2.82,0c-1-.19,1.36-.1,1.88-.12A10.89,10.89,0,0,1,390.89,41.12Zm7.83,0c-.71.39-1.77,0-2.51.24a8.47,8.47,0,0,0-2.19,0,15,15,0,0,0-2.51-.12c.16-.41,1.51-.18,2.19-.12Zm53.6-.12a11.46,11.46,0,0,0,2.82,0C455.42,41.38,452,41.38,452.32,41Zm-196.22.12c.51,0,.54.11.94.12C257.17,41.47,255.61,41.41,256.1,41.12Zm12.23.12c-.16-.06.22-.15.31-.12S268.41,41.27,268.33,41.24Zm182.11,0c.05-.14.57-.1.94-.12C451.33,41.26,450.81,41.22,450.44,41.24Zm87.77-.12a4.65,4.65,0,0,1-2.2.24C536.05,41,537.31,41.14,538.2,41.12ZM258,41.36c.67-.4,2.31.19,2.82-.12.54.23,2.57-.1,2.51.36C261.49,41.53,259.68,41.47,258,41.36Zm157,0c.06-.13.31-.07.31,0S415,41.42,415,41.36Zm6,0c0-.12.38-.09.63-.12C421.59,41.35,421.22,41.33,421,41.36Zm9.09-.12h.63C430.75,41.57,428.35,41.2,430.07,41.24Zm1.88.12c-.16-.06.23-.15.31-.12S432,41.39,431.94,41.36Zm-113.78.12c-.16-.06.23-.15.31-.12S318.25,41.51,318.16,41.48Zm-37.93.12c0-.12.38-.09.63-.12C280.86,41.59,280.48,41.57,280.24,41.6Zm-14.11.12c0-.12.38-.09.63-.12C266.75,41.71,266.38,41.69,266.13,41.72Zm23.82,0c-.16-.06.23-.15.31-.12S290,41.75,290,41.72Zm.63,0c.68-.37,1.77.11,2.82,0C292.72,42.08,291.64,41.6,290.58,41.72Zm28.21-.12c.2.56-1.71.3-2.82.36C316.1,41.53,317.6,41.62,318.79,41.6Zm-21.94.48c-.6-.05-1.89.16-1.57-.24C296,41.77,296.74,41.65,296.85,42.08Zm15-.36c.56,0,.66.15,1.25.12C313.25,42,311.39,42.05,311.89,41.72Zm3.76.12c-.76.39-1.5-.33,0,0Zm65.2-.12c.27.45-1.41.42-1.88.24.08-.15.62-.12.63,0C380.22,42,380,41.63,380.85,41.72ZM284.63,42c0-.12.38-.09.63-.12C285.24,42,284.87,41.93,284.63,42Zm116.29.24c1.12-.19.19.41.94.36.38.16.12.19,0,.36C401,42.88,400.48,42.37,400.91,42.2Zm70.53.12c-.4.51-1.56,0-2.82.12a25.13,25.13,0,0,1-3.76,0h-3.14c-.57-.09.19-.13.63-.12h7.52C470.65,42.3,470.84,42.09,471.44,42.32Zm-64.57,0h.63C407.56,42.65,405.15,42.28,406.87,42.32Zm3.76.12c0-.12.38-.09.63-.12h.94c0,.12-.38.09-.63.12Zm35.42,0c.3.43-1.23.17-1.88.24H442c-.89-.1-.81.17-1.57.12h-4.7c-.56-.22-.8.1-1.88,0h-6.89c-.93.14-2.13-.08-3.76,0,.11-.4,1.81-.19,2.82-.24.05-.1-.13-.11-.32-.12s.13-.11.32-.12c.63,0,1,0,.94.24,1.15.08,1.2-.26,2.19-.24-.11.2.25.23.63.24C435.13,42.5,441.17,42.69,446,42.44Zm27.9,0c.05-.14.57-.1.94-.12C474.84,42.46,474.31,42.42,473.95,42.44Zm-27.58.12c-.16-.06.22-.15.31-.12S446.45,42.59,446.36,42.55Zm3.14-.12c.32.4-1,.19-1.57.24-1.13.09-1.13-.21,0-.12C448.68,42.6,448.61,42.34,449.5,42.44Zm7.52.12c.05-.14.57-.1.94-.12C457.91,42.58,457.39,42.54,457,42.55Zm-53,0c.47.38-1.8.58-1.57.12C403.23,42.72,403.16,42.46,404,42.55Zm2.82.12c.35-.24,1.68.15,2.82,0C409.37,43.15,407.41,42.84,406.87,42.67Zm3.44.12c.24-.27,1.76,0,2.51-.12h2.51c.56,0,.65.11.31.12h-1.25a12.93,12.93,0,0,0-2.2.12C412.16,42.65,410.87,42.86,410.31,42.8Zm6.27,0c-.16-.06.23-.15.31-.12S416.67,42.83,416.59,42.8Zm.94,0c.05-.14.57-.1.94-.12C418.41,42.82,417.89,42.78,417.52,42.8Zm1.57,0c0-.12.38-.09.63-.12C419.71,42.79,419.34,42.77,419.09,42.8Zm.94,0c-.16-.06.23-.15.31-.12S420.12,42.83,420,42.8Zm1.57-.12h.63C422.29,43,419.89,42.64,421.6,42.67Zm.63.6h6.27c.08.19.69.08.94,0a4.06,4.06,0,0,1,1.25.12,20,20,0,0,1,4.7,0,5.5,5.5,0,0,1,2.2,0,34.78,34.78,0,0,1,4.39-.12c.55-.22.8.1,1.88,0h2.51c.62,0,1.27-.11,1.88-.12.77,0,1.42.11,2.19.12.38,0,.46-.11.94-.12s.69.12,1.26.12.94-.1,1.57-.12c.91,0,2,0,3.14,0s2.78-.19,2.82.24c-1.48,0-2.15-.21-3.76-.12a4.06,4.06,0,0,0-1.25.12c-.47,0-1.16,0-1.25.12-1.51-.15-3.15.08-5.33,0a57.76,57.76,0,0,0-6,.12,17.33,17.33,0,0,1-2.19-.24c-.92,0-1,.27-1.88.24h-4.39c-1.68-.1-2.57.24-3.76,0a68,68,0,0,1-10.34.24c-.16-.56,2.95.29,3.14-.36-.54-.27-2.4,0-3.45-.12,0,.14-.46.07,0,0C420,43.12,421.48,43.35,422.23,43.27Zm38.87,0c0-.12.38-.09.63-.12C461.71,43.27,461.34,43.25,461.1,43.27Zm3.76-.12c-.14.15-.4.25-.94.24C463.77,43.14,464.36,43.17,464.86,43.15Zm-48.27.12c-.08.25-1.17.11-1.25.36-2.23-.27-5.73-.05-8.46-.12-.46.05,0,.1,0,.24.45.05,0,.11,0,.24H405c-.34-.3,1.47-.47,0-.48-.05-.26,1.11-.05,1.57-.12h5.64c.27,0,.3,0,.31-.12,1.22.16,1.62-.06,2.51.12S415.7,43.17,416.59,43.27Zm.31.24c0-.12.38-.09.63-.12C417.52,43.51,417.14,43.49,416.9,43.51Zm1.25,0c-.16-.06.23-.15.32-.12S418.24,43.55,418.15,43.51Zm-19.43,0v.36a11,11,0,0,1,3.13,0c.72,0,.35-.35.94-.36.8,0,.38.09.31.24a4.89,4.89,0,0,1,1.57.12c-.07.15-.94.16-.94,0-1.7.23-4.4.08-6.58.12-.53,0-.59-.09-.63-.24h-4.07c1.09-.35,1.83-.09,3.45-.24a4.7,4.7,0,0,1,1.25.12C397.91,43.68,397.83,43.42,398.72,43.51Zm2.5.12c-.16-.06.23-.15.31-.12S401.31,43.67,401.23,43.63Zm-16,.36c-.32-.4,1-.19,1.56-.24H389c.89-.1.81.17,1.57.12H395c1.13-.09,1.13.21,0,.12h-1.88C390.27,44.06,387.2,43.89,385.24,44Zm24.45,0c-.32-.4,1-.19,1.57-.24a8.51,8.51,0,0,1,2.19.12,17.4,17.4,0,0,1,2.82-.12v.12c1.3-.11.07.36,0,0C414.47,44.06,411.94,44,409.69,44Zm9.09-.12c.08-.15.62-.12.63,0S419.13,43.86,418.78,43.87Zm-11,.12c.05-.14.57-.1.94-.12C408.7,44,408.18,44,407.81,44Zm80.24,2.76c0-.12.38-.09.63-.12C488.67,46.75,488.3,46.72,488.05,46.75Z"/><path class="cls-1" d="M279.92,5.77c0-.12.38-.09.63-.12C280.54,5.77,280.17,5.74,279.92,5.77Z"/><path class="cls-1" d="M61.76,5.89c-.16-.06.22-.15.31-.12S61.85,5.92,61.76,5.89Z"/><path class="cls-1" d="M163,6c0,.34-2.15-.1-2.19.24-.56,0-.66-.15-1.26-.12a44.86,44.86,0,0,1-5,.12c-.86.09-.63-.24-1.25-.24h-1.88c-.48-.06,0-.12.31-.12h2.82c.36,0,.56,0,.62-.12,1.2.41,3.41-.3,4.08.24a19.45,19.45,0,0,1,2.51-.24A2.46,2.46,0,0,0,163,6Z"/><path class="cls-1" d="M166.14,5.89c.08-.15.62-.12.62,0C166.49,6,166.21,6,166.14,5.89Z"/><path class="cls-1" d="M167.08,5.77c.63,0,1,0,.94.24h-.94Z"/><path class="cls-1" d="M274.28,5.89c.05-.14.57-.1.94-.12C275.17,5.91,274.65,5.87,274.28,5.89Z"/><path class="cls-1" d="M148,6c.95-.44,1.05.36,0,0Z"/><path class="cls-1" d="M164,6.13c0-.14.57-.1.94-.12C164.84,6.15,164.32,6.11,164,6.13Z"/><path class="cls-1" d="M561.09,6h.62C561.77,6.35,559.37,6,561.09,6Z"/><path class="cls-1" d="M563.28,6.13c0-.12.38-.09.63-.12C563.89,6.12,563.52,6.1,563.28,6.13Z"/><path class="cls-1" d="M197.49,6.25c-.16-.06.23-.15.31-.12S197.57,6.28,197.49,6.25Z"/><path class="cls-1" d="M186.2,6.37c.08-.15.62-.12.63,0S186.56,6.36,186.2,6.37Z"/><path class="cls-1" d="M187.14,6.25c.63,0,1,0,.94.24h-.94Z"/><path class="cls-1" d="M188.71,6.25h4.7c.36,0,.56,0,.63.12h-1.57c-.89-.1-.81.17-1.57.12S188.46,6.7,188.71,6.25Z"/><path class="cls-1" d="M586.79,8.76c0-.12.38-.09.63-.12C587.4,8.76,587,8.74,586.79,8.76Z"/><path class="cls-1" d="M588,8.76c0-.14.57-.1.94-.12C588.93,8.79,588.41,8.75,588,8.76Z"/><path class="cls-1" d="M584.59,8.89c0-.12.38-.09.63-.12C585.21,8.88,584.84,8.86,584.59,8.89Z"/><path class="cls-1" d="M60.83,12c-.16-.06.23-.15.31-.12S60.91,12,60.83,12Z"/><path class="cls-1" d="M66.47,12.12c-.16-.06.23-.15.31-.12S66.55,12.15,66.47,12.12Z"/><path class="cls-1" d="M48.29,13.56c-.37.56-1.71.12-3.45.24A7.4,7.4,0,0,1,48.29,13.56Z"/><path class="cls-1" d="M52.68,13.8c-.59-.05-1.89.16-1.57-.24C51.85,13.49,52.57,13.37,52.68,13.8Z"/><path class="cls-1" d="M45.78,14.88c0,.34-.89.3-1.26.48a26.65,26.65,0,0,0-2.82-.12C42.25,14.81,44.77,15.13,45.78,14.88Z"/><path class="cls-1" d="M48.92,14.88v.6c-.23-.19-1.54,0-1.26-.36-.72-.16-1.18.31-1.25,0C46.22,14.64,48.13,15,48.92,14.88Z"/><path class="cls-1" d="M43.9,16.07c-.16-.06.23-.15.31-.12S44,16.11,43.9,16.07Z"/><path class="cls-1" d="M47,16.07a9.93,9.93,0,0,1-1.88.24A2.77,2.77,0,0,1,47,16.07Z"/><path class="cls-1" d="M41.08,16.07h.63v.24h-.63Z"/><path class="cls-1" d="M47.35,16.19c-.16-.06.23-.15.31-.12S47.44,16.23,47.35,16.19Z"/><path class="cls-1" d="M38.57,16.19h.63C39.26,16.53,36.85,16.16,38.57,16.19Z"/><path class="cls-1" d="M37.94,16.91c-.2.24-1.47.08-1.56.36-1.09-.1-1.33.22-1.88,0-.72.09-1.6.11-2.2.24H29.16c.08-.17.94,0,.94-.24A32.89,32.89,0,0,0,34.5,17c.5,0,.54.11.94.12s.17-.12,0-.12c-.05-.26,1.11-.06,1.57-.12S37.5,16.87,37.94,16.91Z"/><path class="cls-1" d="M52,17c0-.14.57-.1.94-.12C52.94,17.05,52.42,17,52,17Z"/><path class="cls-1" d="M43.27,17.51c0,.3-.05.58.63.6-.17.42-1.82.19-2.5.12.05-.14-.07-.21-.31-.24.28-.33,1.1.12,1.56.12.39-.39-1-.09-.62-.48C42.58,17.65,42.68,17.49,43.27,17.51Z"/><path class="cls-1" d="M38.88,17.87c-.16-.06.22-.15.31-.12S39,17.91,38.88,17.87Z"/><path class="cls-1" d="M34.81,17.87v.36c-.5,0-.54-.11-.94-.12s-.26.22-.31.36c-.46-.1-1-.18-.94-.48C33.7,18.09,33.82,17.81,34.81,17.87Z"/><path class="cls-1" d="M36.38,18c0-.14.57-.1.94-.12C37.27,18,36.75,18,36.38,18Z"/><path class="cls-1" d="M32.3,18.11a2.84,2.84,0,0,1-1.88.24A3.72,3.72,0,0,1,32.3,18.11Z"/><path class="cls-1" d="M45.78,18.23c0-.12.39-.09.63-.12C46.4,18.23,46,18.2,45.78,18.23Z"/><path class="cls-1" d="M31.67,18.59c0-.12.38-.09.63-.12C32.29,18.59,31.92,18.56,31.67,18.59Z"/><path class="cls-1" d="M29.8,18.71c.08-.28,1.38-.07,1.56,0C31.09,19.06,30.57,18.55,29.8,18.71Z"/><path class="cls-1" d="M30.11,19.55c0-.15.46-.08,0,0Z"/><path class="cls-1" d="M34.18,19.43c.56,0,.66.15,1.25.12C35.53,19.76,33.68,19.76,34.18,19.43Z"/><path class="cls-1" d="M30.11,19.55c-.18.25-.49.25-.94.12C29.22,19.53,29.66,19.54,30.11,19.55Z"/><path class="cls-1" d="M32,19.67c-.16-.06.23-.15.31-.12S32.07,19.7,32,19.67Z"/><path class="cls-1" d="M31.67,19.91c-.16-.06.23-.15.31-.12S31.76,19.94,31.67,19.91Z"/><path class="cls-1" d="M35.12,21.23c.06-.14.31-.07.31,0S35.12,21.29,35.12,21.23Z"/><path class="cls-1" d="M36.69,21.35c0-.12.39-.09.63-.12C37.31,21.34,36.93,21.32,36.69,21.35Z"/><path class="cls-1" d="M30.42,21.71c-.16-.06.22-.15.31-.12S30.51,21.74,30.42,21.71Z"/><path class="cls-1" d="M32,21.83c.76.08.16.61-.63.48C31,21.92,32.38,22.21,32,21.83Z"/><path class="cls-1" d="M28.54,22.31c0-.12.39-.09.63-.12h.94c0,.12-.38.09-.63.12Z"/><path class="cls-1" d="M27,22.9c0,.26-.79.26-1.57.24A5.39,5.39,0,0,1,27,22.9Z"/><path class="cls-1" d="M25.72,26c0-.14.57-.1.94-.12C26.61,26,26.09,26,25.72,26Z"/><path class="cls-1" d="M580.83,28.42c0-.12.38-.09.63-.12C581.45,28.41,581.07,28.39,580.83,28.42Z"/><path class="cls-1" d="M14.75,29h.63C15.44,29.35,13,29,14.75,29Z"/><path class="cls-1" d="M12.55,29.25c.05-.14.57-.1.94-.12C13.44,29.28,12.92,29.24,12.55,29.25Z"/><path class="cls-1" d="M11,29.37c0-.14.57-.1.94-.12C11.88,29.4,11.36,29.36,11,29.37Z"/><path class="cls-1" d="M30.73,29.49c-.16-.06.23-.15.31-.12S30.82,29.53,30.73,29.49Z"/><path class="cls-1" d="M30.73,29.85c-.16-.06.23-.15.31-.12S30.82,29.89,30.73,29.85Z"/><path class="cls-1" d="M22,30c-.1.4-1.42.33-2.51.36C19.74,30,21,30.06,22,30Z"/><path class="cls-1" d="M32,30.21c.3.43-1.35.12-1.57.36H28.54c-.49-.43,1.07-.07.94-.36Z"/><path class="cls-1" d="M16,31.77c.06-.14.31-.07.31,0S16,31.84,16,31.77Z"/><path class="cls-1" d="M1.59,34.41c.46.38-1.8.58-1.57.12C.77,34.58.7,34.31,1.59,34.41Z"/><path class="cls-1" d="M17.88,35.25c-.06.18-.76.11-1.25.12-1,0-1.38.27-2.51.24-.29-.47,1.65-.09,1.88-.36h1.88Z"/><path class="cls-1" d="M561.71,35.49c-.46.45-1.78-.05,0,0Z"/><path class="cls-1" d="M559.83,35.73c-.16-.06.22-.15.31-.12S559.92,35.76,559.83,35.73Z"/><path class="cls-1" d="M11,35.73c-.39.33-1.69.31-2.82.36A10.13,10.13,0,0,1,11,35.73Z"/><path class="cls-1" d="M13.49,37.28c-1.3.11-.06-.36,0,0Z"/><path class="cls-1" d="M236.36,38.48c-.17-.06.22-.15.31-.12S236.44,38.51,236.36,38.48Z"/><path class="cls-1" d="M546.35,38.6c-.16-.06.23-.15.31-.12S546.44,38.63,546.35,38.6Z"/><path class="cls-1" d="M246.07,39c-.16-.06.23-.15.31-.12S246.16,39,246.07,39Z"/><path class="cls-1" d="M268,39.08c-.17-.06.22-.15.31-.12S268.1,39.11,268,39.08Z"/><path class="cls-1" d="M427.24,39.08c.05.26-1.11.05-1.57.12C426,38.8,426.26,39.14,427.24,39.08Z"/><path class="cls-1" d="M425.36,39.32h1.25c.32.36-.7.21-1.25.24Z"/><path class="cls-1" d="M531.94,39.56c-.16-.06.22-.15.31-.12S532,39.59,531.94,39.56Z"/><path class="cls-1" d="M275.22,40.16c-.86.5-2.59,0-5,.12-.07-.17-.93,0-.94-.24,0-.58,1.63.05,1.88-.24.55,0,1.57.34,1.88,0h-.31c.05-.14.57-.1.94-.12C272.79,40,274.72,40,275.22,40.16Z"/><path class="cls-1" d="M294.34,39.8c.08-.28,1.37-.07,1.57,0C295.83,40.08,294.53,39.87,294.34,39.8Z"/><path class="cls-1" d="M541.65,39.8c0-.12.38-.09.63-.12C542.27,39.8,541.89,39.77,541.65,39.8Z"/><path class="cls-1" d="M296.54,39.8c.49,0,1.09,0,.94.24C296.94,40,296.67,39.95,296.54,39.8Z"/><path class="cls-1" d="M312.21,40.16c-.16-.06.23-.15.31-.12S312.3,40.19,312.21,40.16Z"/><path class="cls-1" d="M276.79,40.28c-.16-.06.22-.15.31-.12S276.87,40.31,276.79,40.28Z"/><path class="cls-1" d="M285.25,40.52c.05-.14.57-.1.94-.12C286.14,40.54,285.62,40.5,285.25,40.52Z"/><path class="cls-1" d="M269.58,40.64c-.16-.06.23-.15.31-.12S269.67,40.67,269.58,40.64Z"/><path class="cls-1" d="M277.1,40.76c-.16-.06.22-.15.31-.12S277.19,40.79,277.1,40.76Z"/><path class="cls-1" d="M286.19,40.64a4.75,4.75,0,0,1,1.25.12C287.41,41.1,286.11,41,286.19,40.64Z"/><path class="cls-1" d="M284.94,41c-.16-.06.22-.15.31-.12S285,41,284.94,41Z"/><path class="cls-1" d="M337,41.24c.31-.37,1.06.05,1.26.12C337.92,41.72,337.17,41.3,337,41.24Z"/><path class="cls-1" d="M340.42,41.24c.06-.14.32-.07.32,0S340.42,41.31,340.42,41.24Z"/><path class="cls-1" d="M332.27,41.24h.63C333,41.57,330.55,41.2,332.27,41.24Z"/><path class="cls-1" d="M350.45,41.36c.05-.14.57-.1.94-.12C351.34,41.38,350.82,41.34,350.45,41.36Z"/><path class="cls-1" d="M347.63,41.48c-.49.54-2.73,0-3.45.24,0-.12-.38-.09-.63-.12,0-.34,1.31-.22,2.2-.24v.24A12.05,12.05,0,0,1,347.63,41.48Z"/><path class="cls-1" d="M333.84,41.72c.06-.14.31-.07.31,0S333.83,41.78,333.84,41.72Z"/><path class="cls-1" d="M365.81,41.6c.63,0,1,0,.94.24h-.94Z"/><path class="cls-1" d="M361.73,41.84c-.16-.06.23-.15.31-.12S361.82,41.87,361.73,41.84Z"/><path class="cls-1" d="M372.08,41.84c-.38,0-.2-.17,0,0Z"/><path class="cls-1" d="M370.82,41.84c-.07.21-.54.27-1.25.24A2.46,2.46,0,0,1,370.82,41.84Z"/><path class="cls-1" d="M372.08,41.84c.38,0,.19.17,0,0Z"/><path class="cls-1" d="M334.15,42.08c.08-.15.62-.12.63,0S334.5,42.06,334.15,42.08Z"/><path class="cls-1" d="M372.7,42.32c0-.12.38-.09.63-.12C373.32,42.31,372.95,42.29,372.7,42.32Z"/><path class="cls-1" d="M424.11,43.51a4.86,4.86,0,0,1,1.57.12C425.73,43.83,423.63,43.88,424.11,43.51Z"/><path class="cls-1" d="M426,43.75c-.16-.06.23-.15.31-.12S426.07,43.79,426,43.75Z"/><path class="cls-1" d="M6,44.59c-.16-.06.23-.15.32-.12S6.06,44.62,6,44.59Z"/><path class="cls-1" d="M9.42,45.07c0,.14-.46.07,0,0Z"/><path class="cls-1" d="M64.9,45.91c-.14.15-.4.24-.94.24C64.1,46,64.36,45.9,64.9,45.91Z"/><path class="cls-1" d="M97.81,46.51c.17.59-2,.29-3.14.36a26.63,26.63,0,0,1-3.76-.12,5.2,5.2,0,0,0-1.26.12c-.62,0-.89-.14-1.25-.12a10.38,10.38,0,0,1-1.57.24H78.38a15.89,15.89,0,0,0-2.19-.48,1,1,0,0,1,.63-.24c2.21.34,4.06.07,6.89.12C87.88,46.63,93.14,46.46,97.81,46.51Z"/><path class="cls-1" d="M106.27,47.11c0-.11.38-.09.63-.12h.94c0,.12-.38.09-.63.12Z"/><path class="cls-1" d="M499.65,47.11h.63C500.34,47.45,497.93,47.08,499.65,47.11Z"/><path class="cls-1" d="M114.43,47.35c-.16-.06.22-.15.31-.12S114.51,47.38,114.43,47.35Z"/><path class="cls-1" d="M493.07,48.67c-.16-.06.23-.15.31-.12S493.16,48.7,493.07,48.67Z"/></svg>